{
.appVersion = "3192";
.formatVersion = 3;
DisplayStrings = (
"TASA
Taiwan Space Agency

naobncodetfgnh/tittle ıiȷjklmnobdpqnrstnuvwxyz
/f_f/f_i.dlig/f_l.dlig/f_f_i.dlig/f_f_l.dlig 
Office
ABOCDEFGHIJKLMHN/_corner.sharp/_corner.flat OPQPRsSTUOVWXYZ
&
.,?!H-n-//
1234567890
0102030405060708090
I0I1I2I3I4I5I6I7I8I9I
/one.lf/two.lf/three.lf/four.lf/five.lf/six.lf/seven.lf/eight.lf/nine.lf/zero.lf 
/zero.lf/one.lf/zero.lf/two.lf/zero.lf/three.lf/zero.lf/four.lf/zero.lf/five.lf/zero.lf/six.lf/zero.lf/seven.lf/zero.lf/eight.lf/zero.lf/nine.lf/zero.lf 
I/zero.lf I/one.lf I/two.lf I/three.lf I/four.lf I/five.lf I/six.lf I/seven.lf I/eight.lf I/nine.lf I",
"HHOHOHOO
HHAHOAOO 
HHBHOBOO 
HHCHOCOO 
HHDHODOO 
HHEHOEOO 
HHFHOFOO 
HHGHOGOO 
HHHHOHOO 
HHIHOIOO 
HHJHOJOO 
HHKHOKOO 
HHLHOLOO 
HHMHOMOO 
HHNHONOO 
HHOHOOOO 
HHPHOPOO 
HHQHOQOO 
HHRHOROO 
HHSHOSOO 
HHTHOTOO 
HHUHOUOO 
HHVHOVOO 
HHWHOWOO 
HHXHOXOO 
HHYHOYOO  
HHZHOZOO

HHnHOnOO

HAHBHCHDHEHFHGHHHIHJHKHHLHMHNHOHHPHQH 
HRHSHTHUHVHWHXHYHZH
OAOBOCODOEOFOGOHOIOJOKOLOMONOOOPOQOROSOTOUOVOWOXOYOZO

hhahoaoo 
hhbhoboo 
hhchocoo 
hhdhodoo 
hhehoeoo 
hhfhofoo 
hhghogoo 
hhhhohoo 
hhihoioo 
hhjhojoo 
hhkhokoo 
hhlholoo 
hhmhomoo 
hhnhonoo 
hhohoooo 
hhphopoo 
hhqhoqoo 
hhrhoroo 
hhshosoo 
hhthotoo 
hhuhouoo 
hhvhovoo 
hhwhowoo 
hhxhoxoo 
hhyhoyoo 
hhzhozoo

nnoonnecnncennbnndnnbdnnpqnnpnn 
oaobocodoeofogohoiojokoolomono 
oopoqorosootouovoowoxoyozoo 
nanbncndnenfngnhninjnknnlnmnnn 
nonpnqnrnsnntnunvnwnxnynznn 
hahbhchdhehfhghhhihjhkhhlhmhnh 
hohphqhrhshhthuhvhwhxhyhzh",
"A.A,A:A…A!A?A*A#A//A/backslash A(A)A
A{A}A[A]A“A”A‘A’A‹A›A\"A'A
A@A&A
B.B,B:B;B…B!B?B*B#B//B/backslash B(B)B
B{B}B[B]B“B”B‘B’B‹B›B\"B'B
B@B&B
C.C,C:C;C…C!C?C*C#C//C/backslash C(C)C
C{C}C[C]C“C”C‘C’C‹C›C\"C'C
C@C&C
E.E,E:E;E…E!E?E*E#E//E/backslash E(E)E
E{E}E[E]E“E”E‘E’E‹E›E\"E'E
E@E&E
F.F,F:F;F…F!F?F*F#F//F/backslash F(F)F
F{F}F[F]F“F”F‘F’F‹F›F\"F'F
F@F&F
G.G,G:G;G…G!G?G*G#G//G/backslash G(G)G
G{G}G[G]G“G”G‘G’G‹G›G\"G'G
G@G&G
H.H,H:H;H…H!H?H*H#H//H/backslash H(H)H

glyphs = (
{
glyphname = A;
kernLeft = A;
kernRight = A;
lastChange = "2023-01-13 04:40:14 +0000";
layers = (
{
anchors = (
{
name = bottom;
pos = (340,0);
},
{
name = ogonek;
pos = (645,0);
},
{
name = top;
pos = (340,680);
}
);
color = 5;
hints = (
{
name = _corner.sharp;
options = 2;
origin = (0,1,0,7);
stem = 1000;
type = Corner;
}
);
layerId = m01;
shapes = (
{
closed = 1;
nodes = (
(317,680,l),
(559,0,l),
(645,0,l),
(398,680,l),
(282,680,l),
(35,0,l),
(121,0,l),
(360,680,l)
);
},
{
closed = 1;
nodes = (
(530,207,l),
(530,280,l),
(150,280,l),
(150,207,l)
);
}
);
userData = {
com.hugojourdan.ColorFlow = {
"0" = 0;
"1" = 0;
"10" = 0;
"11" = 0;
"2" = 0;
"3" = 0;
"4" = 0;
"5" = 0;
"6" = 0;
"7" = 0;
"8" = 0;
"9" = 0;
};
};
width = 677;
},
{
associatedMasterId = m01;
layerId = "47E6E866-A1B8-472F-B4FF-8B92FB3EE80E";
name = "Oct 20, 22, 17:17";
shapes = (
{
closed = 1;
nodes = (
(124,0,l),
(362,680,l),
(286,680,l),
(40,0,l)
);
},
{
closed = 1;
nodes = (
(424,680,l),
(348,680,l),
(586,0,l),
(670,0,l)
);
},
{
closed = 1;
nodes = (
(545,208,l),
(545,280,l),
(165,280,l),
(165,208,l)
);
}
);
userData = {
com.hugojourdan.ColorFlow = {
"0" = 0;
"1" = 0;
"10" = 0;
"11" = 0;
"2" = 0;
"3" = 0;
"4" = 0;
"5" = 0;
"6" = 0;
"7" = 0;
"8" = 0;
"9" = 0;
};
};
width = 710;
},
{
anchors = (
{
name = bottom;
pos = (355,0);
},
{
name = ogonek;
pos = (680,0);
},
{
name = top;
pos = (355,680);
}
);
color = 4;
hints = (
{
name = _corner.sharp;
options = 2;
origin = (0,1,0,7);
stem = 1000;
type = Corner;
}
);
layerId = "E8AFECA5-8081-4A12-B551-7349FD4DE2D2";
shapes = (
{
closed = 1;
nodes = (
(324,680,l),
(513,0,l),
(680,0,l),
(485,680,l),
(225,680,l),
(30,0,l),
(197,0,l),
(380,680,l)
);
},
{
closed = 1;
nodes = (
(545,168,l),
(545,310,l),
(165,310,l),
(165,168,l)
);
}
);
userData = {
com.hugojourdan.ColorFlow = {
"0" = 0;
"1" = 0;
"10" = 0;
"11" = 0;
"2" = 0;
"3" = 0;
"4" = 0;
"5" = 0;
"6" = 0;
"7" = 0;
"8" = 0;
"9" = 0;
};
};
width = 710;
},
{
associatedMasterId = "E8AFECA5-8081-4A12-B551-7349FD4DE2D2";
layerId = "839C8B1D-1541-4E4E-8A1C-CA5B4DAF4E5C";
name = "210";
shapes = (
{
closed = 1;
nodes = (
(207,0,l),
(382,660,l),
(222,660,l),
(40,0,l)
);
},
{
closed = 1;
nodes = (
(508,660,l),
(348,660,l),
(523,0,l),
(690,0,l)
);
},
{
closed = 1;
nodes = (
(555,158,l),
(555,300,l),
(175,300,l),
(175,158,l)
);
}
);
width = 730;
},
{
associatedMasterId = "E8AFECA5-8081-4A12-B551-7349FD4DE2D2";
layerId = "8C36A4CD-03FF-4727-B889-3B89F7FF98C9";
name = "Oct 25, 22, 16:46";
shapes = (
{
closed = 1;
nodes = (
(197,0,l),
(372,680,l),
(212,680,l),
(30,0,l)
);
},
{
closed = 1;
nodes = (
(498,680,l),
(338,680,l),
(513,0,l),
(680,0,l)
);
},
{
closed = 1;
nodes = (
(545,168,l),
(545,310,l),
(165,310,l),
(165,168,l)
);
}
);
width = 710;
},
{
associatedMasterId = m01;
layerId = "A398AB39-634D-4BCD-B952-78D1B2EC16BB";
name = "212";
shapes = (
{
closed = 1;
nodes = (
(129,0,l),
(357,680,l),
(281,680,l),
(45,0,l)
);
},
{
closed = 1;
nodes = (
(419,680,l),
(343,680,l),
(571,0,l),
(655,0,l)
);
},
{
closed = 1;
nodes = (
(540,208,l),
(540,280,l),
(160,280,l),
(160,208,l)
);
}
);
userData = {
com.hugojourdan.ColorFlow = {
"0" = 0;
"1" = 0;
"10" = 0;
"11" = 0;
"2" = 0;
"3" = 0;
"4" = 0;
"5" = 0;
"6" = 0;
"7" = 0;
"8" = 0;
"9" = 0;
};
};
width = 700;
},
{
anchors = (
{
name = bottom;
pos = (330,0);
},
{
name = ogonek;
pos = (640,0);
},
{
name = top;
pos = (330,680);
}
);
color = 1;
hints = (
{
name = _corner.sharp;
options = 2;
origin = (0,1,0,7);
stem = 1000;
type = Corner;
}
);
layerId = "C3EEC1F8-B65E-484C-ADEF-3AACC3987924";
shapes = (
{
closed = 1;
nodes = (
(314,680,l),
(555,0,l),
(640,0,l),
(394,680,l),
(266,680,l),
(20,0,l),
(104,0,l),
(344,680,l)
);
},
{
closed = 1;
nodes = (
(520,208,l),
(520,280,l),
(140,280,l),
(140,208,l)
);
}
);
userData = {
com.hugojourdan.ColorFlow = {
"0" = 0;
"1" = 0;
"10" = 0;
"11" = 0;
"2" = 0;
"3" = 0;
"4" = 0;
"5" = 0;
"6" = 0;
"7" = 0;
"8" = 0;
"9" = 0;
};
};
width = 660;
},
{
anchors = (
{
name = bottom;
pos = (340,0);
},
{
name = ogonek;
pos = (670,0);
},
{
name = top;
pos = (340,680);
}
);
color = 1;
hints = (
{
name = _corner.sharp;
options = 2;
origin = (0,1,0,7);
stem = 1000;
type = Corner;
}
);
layerId = m004;
shapes = (
{
closed = 1;
nodes = (
(312,680,l),
(503,0,l),
(670,0,l),
(469,680,l),
(211,680,l),
(10,0,l),
(177,0,l),
(365,680,l)
);
},
{
closed = 1;
nodes = (
(530,164,l),
(530,312,l),
(150,312,l),
(150,164,l)
);
}
);
userData = {
com.hugojourdan.ColorFlow = {
"0" = 0;
"1" = 0;
"10" = 0;
"11" = 0;
"2" = 0;
"3" = 0;
"4" = 0;
"5" = 0;
"6" = 0;
"7" = 0;
"8" = 0;
"9" = 0;
};
};
width = 680;
},
{
anchors = (
{
name = bottom;
pos = (320,0);
},
{
name = ogonek;
pos = (630,0);
},
{
name = top;
pos = (320,680);
}
);
associatedMasterId = "C3EEC1F8-B65E-484C-ADEF-3AACC3987924";
color = 0;
layerId = "6731851C-EFB6-456F-BB4F-04FCB710B41E";
name = "Dec 1, 22, 16:02";
shapes = (
{
closed = 1;
nodes = (
(94,0,l),
(334,680,l),
(256,680,l),
(10,0,l)
);
},
{
closed = 1;
nodes = (
(384,680,l),
(306,680,l),
(546,0,l),
(630,0,l)
);
},
{
closed = 1;
nodes = (
(510,208,l),
(510,280,l),
(130,280,l),
(130,208,l)
);
}
);
userData = {
com.hugojourdan.ColorFlow = {
"0" = 0;
"1" = 0;
"10" = 0;
"11" = 0;
"2" = 0;
"3" = 0;
"4" = 0;
"5" = 0;
"6" = 0;
"7" = 0;
"8" = 0;
"9" = 0;
};
};
width = 640;
},
{
anchors = (
{
name = bottom;
pos = (345,0);
},
{
name = ogonek;
pos = (675,0);
},
{
name = top;
pos = (345,680);
}
);
associatedMasterId = m004;
color = 0;
layerId = "22C7D62E-4FA0-474D-BF06-06C0D478641D";
name = "Dec 1, 22, 17:34";
shapes = (
{
closed = 1;
nodes = (
(182,0,l),
(372,680,l),
(214,680,l),
(15,0,l)
);
},
{
closed = 1;
nodes = (
(476,680,l),
(312,680,l),
(508,0,l),
(675,0,l)
);
},
{
closed = 1;
nodes = (
(535,164,l),
(535,312,l),
(155,312,l),
(155,164,l)
);
}
);
userData = {
com.hugojourdan.ColorFlow = {
"0" = 0;
"1" = 0;
"10" = 0;
"11" = 0;
"2" = 0;
"3" = 0;
"4" = 0;
"5" = 0;
"6" = 0;
"7" = 0;
"8" = 0;
"9" = 0;
};
};
width = 690;
},
{
anchors = (
{
name = bottom;
pos = (350,0);
},
{
name = ogonek;
pos = (655,0);
},
{
name = top;
pos = (350,680);
}
);
associatedMasterId = m01;
color = 0;
hints = (
{
name = _corner.sharp;
options = 2;
origin = (0,1,0,7);
stem = 1000;
type = Corner;
}
);
layerId = "5619BDF0-36D5-49C6-8FB4-4FDEC4D98371";
name = "Jan 7, 23, 13:04";
shapes = (
{
closed = 1;
nodes = (
(338,680,l),
(571,0,l),
(655,0,l),
(414,680,l),
(286,680,l),
(45,0,l),
(129,0,l),
(362,680,l)
);
},
{
closed = 1;
nodes = (
(540,208,l),
(540,280,l),
(160,280,l),
(160,208,l)
);
}
);
userData = {
com.hugojourdan.ColorFlow = {
"0" = 0;
"1" = 0;
"10" = 0;
"11" = 0;
"2" = 0;
"3" = 0;
"4" = 0;
"5" = 0;
"6" = 0;
"7" = 0;
"8" = 0;
"9" = 0;
};
};
width = 700;
},
{
anchors = (
{
name = bottom;
pos = (355,0);
},
{
name = ogonek;
pos = (680,0);
},
{
name = top;
pos = (355,680);
}
);
associatedMasterId = "E8AFECA5-8081-4A12-B551-7349FD4DE2D2";
color = 0;
hints = (
{
name = _corner.sharp;
options = 2;
origin = (0,1,0,7);
stem = 1000;
type = Corner;
}
);
layerId = "35AF96D8-43A6-49C7-A0A1-E167D7805C1D";
name = "Jan 7, 23, 13:05";
shapes = (
{
closed = 1;
nodes = (
(332,680,l),
(513,0,l),
(680,0,l),
(493,680,l),
(217,680,l),
(30,0,l),
(197,0,l),
(372,680,l)
);
},
{
closed = 1;
nodes = (
(545,168,l),
(545,310,l),
(165,310,l),
(165,168,l)
);
}
);
userData = {
com.hugojourdan.ColorFlow = {
"0" = 0;
"1" = 0;
"10" = 0;
"11" = 0;
"2" = 0;
"3" = 0;
"4" = 0;
"5" = 0;
"6" = 0;
"7" = 0;
"8" = 0;
"9" = 0;
};
};
width = 710;
},
{
anchors = (
{
name = bottom;
pos = (350,0);
},
{
name = ogonek;
pos = (655,0);
},
{
name = top;
pos = (350,680);
}
);
associatedMasterId = m01;
color = 3;
hints = (
{
name = _corner.sharp;
options = 2;
origin = (0,1,0,7);
stem = 1000;
type = Corner;
}
);
layerId = "5A2BA2A4-7264-40D7-9143-AAD04E9F3A69";
name = "Jan 10, 23, 15:38";
shapes = (
{
closed = 1;
nodes = (
(332,680,l),
(571,0,l),
(655,0,l),
(408,680,l),
(292,680,l),
(45,0,l),
(129,0,l),
(368,680,l)
);
},
{
closed = 1;
nodes = (
(540,208,l),
(540,280,l),
(160,280,l),
(160,208,l)
);
}
);
userData = {
com.hugojourdan.ColorFlow = {
"0" = 0;
"1" = 0;
"10" = 0;
"11" = 0;
"2" = 0;
"3" = 0;
"4" = 0;
"5" = 0;
"6" = 0;
"7" = 0;
"8" = 0;
"9" = 0;
};
};
width = 700;
}
);
unicode = 65;
},
{
glyphname = AE;
lastChange = "2022-12-06 06:50:00 +0000";
layers = (
{
anchors = (
{
name = bottom;
pos = (499,0);
},
{
name = top;
pos = (499,680);
}
);
color = 0;
layerId = m01;
shapes = (
{
closed = 1;
nodes = (
(135,0,l),
(479,680,l),
(397,680,l),
(45,0,l)
);
},
{
closed = 1;
nodes = (
(522,218,l),
(522,290,l),
(222,290,l),
(182,218,l)
);
},
{
closed = 1;
nodes = (
(562,0,l),
(562,680,l),
(482,680,l),
(482,0,l)
);
},
{
closed = 1;
nodes = (
(897,314,l),
(897,386,l),
(517,386,l),
(517,314,l)
);
},
{
closed = 1;
nodes = (
(927,608,l),
(927,680,l),
(417,680,l),
(417,618,l),
(517,618,l),
(517,608,l)
);
},
{
closed = 1;
nodes = (
(927,0,l),
(927,72,l),
(517,72,l),
(517,0,l)
);
}
);
userData = {
com.hugojourdan.ColorFlow = {
"0" = 0;
"1" = 0;
"10" = 0;
"11" = 0;
"2" = 0;
"3" = 0;
"4" = 0;
"5" = 0;
"6" = 0;
"7" = 0;
"8" = 0;
"9" = 0;
};
};
width = 987;
},
{
anchors = (
{
name = bottom;
pos = (498,0);
},
{
name = top;
pos = (498,680);
}
);
color = 0;
layerId = "E8AFECA5-8081-4A12-B551-7349FD4DE2D2";
shapes = (
{
closed = 1;
nodes = (
(207,0,l),
(499,680,l),
(344,680,l),
(30,0,l)
);
},
{
closed = 1;
nodes = (
(505,178,l),
(505,320,l),
(225,320,l),
(165,178,l)
);
},
{
closed = 1;
nodes = (
(640,0,l),
(640,680,l),
(490,680,l),
(490,0,l)
);
},
{
closed = 1;
nodes = (
(925,279,l),
(925,411,l),
(515,411,l),
(515,279,l)
);
},
{
closed = 1;
nodes = (
(955,543,l),
(955,680,l),
(420,680,l),
(420,553,l),
(515,553,l),
(515,543,l)
);
},
{
closed = 1;
nodes = (
(955,0,l),
(955,137,l),
(515,137,l),
(515,0,l)
);
}
);
userData = {
com.hugojourdan.ColorFlow = {
"0" = 0;
"1" = 0;
"10" = 0;
"11" = 0;
"2" = 0;
"3" = 0;
"4" = 0;
"5" = 0;
"6" = 0;
"7" = 0;
"8" = 0;
"9" = 0;
};
};
width = 995;
},
{
anchors = (
{
name = bottom;
pos = (476,0);
},
{
name = top;
pos = (476,680);
}
);
color = 0;
layerId = "C3EEC1F8-B65E-484C-ADEF-3AACC3987924";
shapes = (
{
closed = 1;
nodes = (
(103,0,l),
(496,680,l),
(412,680,l),
(10,0,l)
);
},
{
closed = 1;
nodes = (
(490,218,l),
(490,290,l),
(210,290,l),
(170,218,l)
);
},
{
closed = 1;
nodes = (
(541,0,l),
(541,680,l),
(461,680,l),
(461,0,l)
);
},
{
closed = 1;
nodes = (
(866,314,l),
(866,386,l),
(496,386,l),
(496,314,l)
);
},
{
closed = 1;
nodes = (
(896,608,l),
(896,680,l),
(436,680,l),
(436,608,l),
(486,608,l),
(496,608,l)
);
},
{
closed = 1;
nodes = (
(896,0,l),
(896,72,l),
(496,72,l),
(496,0,l)
);
}
);
userData = {
com.hugojourdan.ColorFlow = {
"0" = 0;
"1" = 0;
"10" = 0;
"11" = 0;
"2" = 0;
"3" = 0;
"4" = 0;
"5" = 0;
"6" = 0;
"7" = 0;
"8" = 0;
"9" = 0;
};
};
width = 944;
},
{
anchors = (
{
name = bottom;
pos = (503,0);
},
{
name = top;
pos = (503,680);
}
);
color = 0;
layerId = m004;
shapes = (
{
closed = 1;
nodes = (
(204,0,l),
(573,680,l),
(403,680,l),
(15,0,l)
);
},
{
closed = 1;
nodes = (
(542,174,l),
(542,322,l),
(262,322,l),
(162,174,l)
);
},
{
closed = 1;
nodes = (
(672,0,l),
(672,680,l),
(512,680,l),
(512,0,l)
);
},
{
closed = 1;
nodes = (
(957,275,l),
(957,415,l),
(547,415,l),
(547,275,l)
);
},
{
closed = 1;
nodes = (
(977,532,l),
(977,680,l),
(443,680,l),
(443,532,l),
(527,532,l),
(547,532,l)
);
},
{
closed = 1;
nodes = (
(977,0,l),
(977,148,l),
(547,148,l),
(547,0,l)
);
}
);
userData = {
com.hugojourdan.ColorFlow = {
"0" = 0;
"1" = 0;
"10" = 0;
"11" = 0;
"2" = 0;
"3" = 0;
"4" = 0;
"5" = 0;
"6" = 0;
"7" = 0;
"8" = 0;
"9" = 0;
};
};
width = 1005;
}
);
metricLeft = "=A";
metricRight = "=E";
unicode = 198;
},
{
glyphname = B;
kernLeft = H;
kernRight = B;
lastChange = "2023-01-10 07:42:02 +0000";
layers = (
{
anchors = (
{
name = bottom;
pos = (314,0);
},
{
name = center;
pos = (314,340);
},
{
name = top;
pos = (314,680);
}
);
color = 5;
layerId = m01;
shapes = (
{
closed = 1;
nodes = (
(161,0,l),
(161,680,l),
(80,680,l),
(80,0,l)
);
},
{
closed = 1;
nodes = (
(330,340,l),
(457,342,o),
(542,387,o),
(542,500,cs),
(542,613,o),
(457,680,o),
(330,680,cs),
(115,680,l),
(115,607,l),
(330,607,ls),
(412,607,o),
(459,566,o),
(459,500,cs),
(459,490,ls),
(459,419,o),
(412,385,o),
(330,385,cs),
(115,385,l),
(115,315,l),
(335,315,ls),
(423,315,o),
(474,278,o),
(474,200,cs),
(474,190,ls),
(474,117,o),
(423,73,o),
(335,73,cs),
(115,73,l),
(115,0,l),
(335,0,ls),
(473,0,o),
(557,70,o),
(557,188,cs),
(557,310,o),
(468,357,o),
(335,360,c)
);
}
);
userData = {
com.hugojourdan.ColorFlow = {
"0" = 0;
"1" = 0;
"10" = 0;
"11" = 0;
"2" = 0;
"3" = 0;
"4" = 0;
"5" = 0;
"6" = 0;
"7" = 0;
"8" = 0;
"9" = 0;
};
};
width = 617;
},
{
associatedMasterId = m01;
layerId = "11AF1E7A-7B53-49E2-AB22-294827E5E5E9";
name = "Oct 20, 22, 17:17";
shapes = (
{
closed = 1;
nodes = (
(155,0,l),
(155,680,l),
(75,680,l),
(75,0,l)
);
},
{
closed = 1;
nodes = (
(350,340,l),
(467,340,o),
(552,382,o),
(552,500,cs),
(552,618,o),
(467,680,o),
(350,680,cs),
(110,680,l),
(110,608,l),
(350,608,ls),
(427,608,o),
(470,566,o),
(470,500,cs),
(470,490,ls),
(470,419,o),
(427,384,o),
(350,384,cs),
(110,384,l),
(110,316,l),
(350,316,ls),
(433,316,o),
(480,278,o),
(480,200,cs),
(480,190,ls),
(480,117,o),
(433,72,o),
(350,72,cs),
(110,72,l),
(110,0,l),
(350,0,ls),
(473,0,o),
(562,65,o),
(562,190,cs),
(562,315,o),
(473,360,o),
(350,360,c)
);
}
);
userData = {
com.hugojourdan.ColorFlow = {
"0" = 0;
"1" = 0;
"10" = 0;
"11" = 0;
"2" = 0;
"3" = 0;
"4" = 0;
"5" = 0;
"6" = 0;
"7" = 0;
"8" = 0;
"9" = 0;
};
};
width = 627;
},
{
anchors = (
{
name = bottom;
pos = (313,0);
},
{
name = center;
pos = (313,340);
},
{
name = top;
pos = (313,680);
}
);
color = 4;
layerId = "E8AFECA5-8081-4A12-B551-7349FD4DE2D2";
shapes = (
{
closed = 1;
nodes = (
(216,0,l),
(216,680,l),
(56,680,l),
(56,0,l)
);
},
{
closed = 1;
nodes = (
(361,340,l),
(488,345,o),
(573,387,o),
(573,500,cs),
(573,613,o),
(488,680,o),
(361,680,cs),
(91,680,l),
(91,558,l),
(316,558,ls),
(376,558,o),
(411,530,o),
(411,485,cs),
(411,475,ls),
(411,428,o),
(376,404,o),
(316,404,cs),
(91,404,l),
(91,296,l),
(316,296,ls),
(382,296,o),
(421,269,o),
(421,215,cs),
(421,205,ls),
(421,154,o),
(382,122,o),
(316,122,cs),
(91,122,l),
(91,0,l),
(361,0,ls),
(494,0,o),
(583,70,o),
(583,190,cs),
(583,310,o),
(494,355,o),
(361,360,c)
);
}
);
userData = {
com.hugojourdan.ColorFlow = {
"0" = 0;
"1" = 0;
"10" = 0;
"11" = 0;
"2" = 0;
"3" = 0;
"4" = 0;
"5" = 0;
"6" = 0;
"7" = 0;
"8" = 0;
"9" = 0;
};
};
width = 619;
},
{
associatedMasterId = "E8AFECA5-8081-4A12-B551-7349FD4DE2D2";
layerId = "21217FEE-0F7C-42E8-A13A-26A191B05D6F";
name = "210";
shapes = (
{
closed = 1;
nodes = (
(210,0,l),
(210,660,l),
(50,660,l),
(50,0,l)
);
},
{
closed = 1;
nodes = (
(355,330,l),
(482,335,o),
(567,376,o),
(567,485,cs),
(567,595,o),
(482,660,o),
(355,660,cs),
(85,660,l),
(85,538,l),
(315,538,ls),
(375,538,o),
(405,512,o),
(405,470,cs),
(405,460,ls),
(405,416,o),
(375,394,o),
(315,394,cs),
(85,394,l),
(85,286,l),
(315,286,ls),
(381,286,o),
(415,261,o),
(415,210,cs),
(415,200,ls),
(415,152,o),
(381,122,o),
(315,122,cs),
(85,122,l),
(85,0,l),
(355,0,ls),
(488,0,o),
(577,68,o),
(577,185,cs),
(577,301,o),
(488,345,o),
(355,350,c)
);
}
);
width = 617;
},
{
anchors = (
{
name = bottom;
pos = (289,0);
},
{
name = center;
pos = (289,340);
},
{
name = top;
pos = (289,680);
}
);
color = 1;
layerId = "C3EEC1F8-B65E-484C-ADEF-3AACC3987924";
shapes = (
{
closed = 1;
nodes = (
(145,0,l),
(145,680,l),
(65,680,l),
(65,0,l)
);
},
{
closed = 1;
nodes = (
(300,340,l),
(427,340,o),
(512,390,o),
(512,503,cs),
(512,616,o),
(430,680,o),
(303,680,cs),
(100,680,l),
(100,608,l),
(300,608,ls),
(387,608,o),
(430,561,o),
(430,500,cs),
(430,490,ls),
(430,427,o),
(387,384,o),
(300,384,cs),
(100,384,l),
(100,316,l),
(300,316,ls),
(393,316,o),
(445,271,o),
(445,200,cs),
(445,190,ls),
(445,120,o),
(393,72,o),
(300,72,cs),
(100,72,l),
(100,0,l),
(303,0,ls),
(436,0,o),
(527,67,o),
(527,187,cs),
(527,307,o),
(433,364,o),
(310,364,c)
);
}
);
userData = {
com.hugojourdan.ColorFlow = {
"0" = 0;
"1" = 0;
"10" = 0;
"11" = 0;
"2" = 0;
"3" = 0;
"4" = 0;
"5" = 0;
"6" = 0;
"7" = 0;
"8" = 0;
"9" = 0;
};
};
width = 570;
},
{
anchors = (
{
name = bottom;
pos = (290,0);
},
{
name = center;
pos = (290,340);
},
{
name = top;
pos = (290,680);
}
);
color = 1;
layerId = m004;
shapes = (
{
closed = 1;
nodes = (
(196,0,l),
(196,680,l),
(36,680,l),
(36,0,l)
);
},
{
closed = 1;
nodes = (
(341,340,l),
(468,340,o),
(553,396,o),
(553,505,cs),
(553,618,o),
(463,680,o),
(336,680,cs),
(71,680,l),
(71,540,l),
(309,540,ls),
(364,540,o),
(391,516,o),
(391,480,cs),
(391,474,ls),
(391,438,o),
(364,416,o),
(309,416,cs),
(71,416,l),
(71,284,l),
(309,284,ls),
(370,284,o),
(401,259,o),
(401,216,cs),
(401,210,ls),
(401,168,o),
(370,140,o),
(309,140,cs),
(71,140,l),
(71,0,l),
(336,0,ls),
(469,0,o),
(563,65,o),
(563,185,cs),
(563,301,o),
(474,360,o),
(341,360,c)
);
}
);
userData = {
com.hugojourdan.ColorFlow = {
"0" = 0;
"1" = 0;
"10" = 0;
"11" = 0;
"2" = 0;
"3" = 0;
"4" = 0;
"5" = 0;
"6" = 0;
"7" = 0;
"8" = 0;
"9" = 0;
};
};
width = 580;
},
{
associatedMasterId = m004;
layerId = "3C73F55D-0540-404E-9089-6CB03EF3AA50";
name = "Nov 9, 22, 10:59";
shapes = (
{
closed = 1;
nodes = (
(216,0,l),
(216,680,l),
(56,680,l),
(56,0,l)
);
},
{
closed = 1;
nodes = (
(361,340,l),
(488,340,o),
(573,396,o),
(573,505,cs),
(573,618,o),
(483,680,o),
(356,680,cs),
(91,680,l),
(91,548,l),
(321,548,ls),
(381,548,o),
(411,522,o),
(411,483,cs),
(411,477,ls),
(411,438,o),
(381,414,o),
(321,414,cs),
(91,414,l),
(91,286,l),
(321,286,ls),
(387,286,o),
(421,259,o),
(421,213,cs),
(421,207,ls),
(421,162,o),
(387,132,o),
(321,132,cs),
(91,132,l),
(91,0,l),
(356,0,ls),
(489,0,o),
(583,65,o),
(583,185,cs),
(583,301,o),
(494,360,o),
(361,360,c)
);
}
);
width = 600;
},
{
anchors = (
{
name = bottom;
pos = (289,0);
},
{
name = center;
pos = (289,340);
},
{
name = top;
pos = (289,680);
}
);
associatedMasterId = "C3EEC1F8-B65E-484C-ADEF-3AACC3987924";
color = 0;
layerId = "DB93C7E8-4202-4598-AE9F-EB7739D9BCDF";
name = "Dec 1, 22, 15:29";
shapes = (
{
closed = 1;
nodes = (
(145,0,l),
(145,680,l),
(65,680,l),
(65,0,l)
);
},
{
closed = 1;
nodes = (
(300,340,l),
(427,340,o),
(512,390,o),
(512,503,cs),
(512,616,o),
(427,680,o),
(300,680,cs),
(100,680,l),
(100,608,l),
(300,608,ls),
(387,608,o),
(430,561,o),
(430,500,cs),
(430,490,ls),
(430,424,o),
(387,384,o),
(300,384,cs),
(100,384,l),
(100,316,l),
(300,316,ls),
(393,316,o),
(440,273,o),
(440,200,cs),
(440,190,ls),
(440,122,o),
(393,72,o),
(300,72,cs),
(100,72,l),
(100,0,l),
(300,0,ls),
(433,0,o),
(522,67,o),
(522,187,cs),
(522,307,o),
(433,360,o),
(300,360,c)
);
}
);
userData = {
com.hugojourdan.ColorFlow = {
"0" = 0;
"1" = 0;
"10" = 0;
"11" = 0;
"2" = 0;
"3" = 0;
"4" = 0;
"5" = 0;
"6" = 0;
"7" = 0;
"8" = 0;
"9" = 0;
};
};
width = 577;
},
{
anchors = (
{
name = bottom;
pos = (290,0);
},
{
name = center;
pos = (290,340);
},
{
name = top;
pos = (290,680);
}
);
associatedMasterId = m004;
color = 0;
layerId = "791A33FF-06D7-4B22-9726-F780A8C9D734";
name = "Dec 1, 22, 17:35";
shapes = (
{
closed = 1;
nodes = (
(196,0,l),
(196,680,l),
(36,680,l),
(36,0,l)
);
},
{
closed = 1;
nodes = (
(341,340,l),
(468,340,o),
(553,396,o),
(553,505,cs),
(553,618,o),
(463,680,o),
(336,680,cs),
(71,680,l),
(71,538,l),
(309,538,ls),
(364,538,o),
(391,514,o),
(391,478,cs),
(391,472,ls),
(391,436,o),
(364,414,o),
(309,414,cs),
(71,414,l),
(71,286,l),
(309,286,ls),
(370,286,o),
(401,261,o),
(401,218,cs),
(401,212,ls),
(401,170,o),
(370,142,o),
(309,142,cs),
(71,142,l),
(71,0,l),
(336,0,ls),
(469,0,o),
(563,65,o),
(563,185,cs),
(563,301,o),
(474,360,o),
(341,360,c)
);
}
);
userData = {
com.hugojourdan.ColorFlow = {
"0" = 0;
"1" = 0;
"10" = 0;
"11" = 0;
"2" = 0;
"3" = 0;
"4" = 0;
"5" = 0;
"6" = 0;
"7" = 0;
"8" = 0;
"9" = 0;
};
};
width = 580;
},
{
anchors = (
{
name = bottom;
pos = (313,0);
},
{
name = center;
pos = (313,340);
},
{
name = top;
pos = (313,680);
}
);
associatedMasterId = "E8AFECA5-8081-4A12-B551-7349FD4DE2D2";
color = 0;
layerId = "07094660-8D3B-4A9E-8774-385DF42315EC";
name = "Jan 7, 23, 18:18";
shapes = (
{
closed = 1;
nodes = (
(216,0,l),
(216,680,l),
(56,680,l),
(56,0,l)
);
},
{
closed = 1;
nodes = (
(361,340,l),
(488,345,o),
(573,387,o),
(573,500,cs),
(573,613,o),
(488,680,o),
(361,680,cs),
(91,680,l),
(91,558,l),
(321,558,ls),
(381,558,o),
(411,530,o),
(411,485,cs),
(411,475,ls),
(411,428,o),
(381,404,o),
(321,404,cs),
(91,404,l),
(91,296,l),
(321,296,ls),
(387,296,o),
(421,269,o),
(421,215,cs),
(421,205,ls),
(421,154,o),
(387,122,o),
(321,122,cs),
(91,122,l),
(91,0,l),
(361,0,ls),
(494,0,o),
(583,70,o),
(583,190,cs),
(583,310,o),
(494,355,o),
(361,360,c)
);
}
);
userData = {
com.hugojourdan.ColorFlow = {
"0" = 0;
"1" = 0;
"10" = 0;
"11" = 0;
"2" = 0;
"3" = 0;
"4" = 0;
"5" = 0;
"6" = 0;
"7" = 0;
"8" = 0;
"9" = 0;
};
};
width = 619;
},
{
anchors = (
{
name = bottom;
pos = (314,0);
},
{
name = center;
pos = (314,340);
},
{
name = top;
pos = (314,680);
}
);
associatedMasterId = m01;
color = 0;
layerId = "CD544B79-3E69-4F2B-A582-C0C84F4DFA47";
name = "Jan 10, 23, 15:09";
shapes = (
{
closed = 1;
nodes = (
(160,0,l),
(160,680,l),
(80,680,l),
(80,0,l)
);
},
{
closed = 1;
nodes = (
(335,340,l),
(462,345,o),
(547,387,o),
(547,500,cs),
(547,613,o),
(462,680,o),
(335,680,cs),
(115,680,l),
(115,608,l),
(335,608,ls),
(422,608,o),
(465,566,o),
(465,500,cs),
(465,490,ls),
(465,419,o),
(422,384,o),
(335,384,cs),
(115,384,l),
(115,316,l),
(335,316,ls),
(428,316,o),
(475,278,o),
(475,200,cs),
(475,190,ls),
(475,117,o),
(428,72,o),
(335,72,cs),
(115,72,l),
(115,0,l),
(335,0,ls),
(468,0,o),
(557,70,o),
(557,190,cs),
(557,310,o),
(468,355,o),
(335,360,c)
);
}
);
userData = {
com.hugojourdan.ColorFlow = {
"0" = 0;
"1" = 0;
"10" = 0;
"11" = 0;
"2" = 0;
"3" = 0;
"4" = 0;
"5" = 0;
"6" = 0;
"7" = 0;
"8" = 0;
"9" = 0;
};
};
width = 617;
},
{
anchors = (
{
name = bottom;
pos = (314,0);
},
{
name = center;
pos = (314,340);
},
{
name = top;
pos = (314,680);
}
);
associatedMasterId = m01;
color = 4;
layerId = "788B4673-91CF-44BE-87F3-D5FD53432719";
name = "Jan 10, 23, 15:39";
shapes = (
{
closed = 1;
nodes = (
(160,0,l),
(160,680,l),
(80,680,l),
(80,0,l)
);
},
{
closed = 1;
nodes = (
(330,340,l),
(457,345,o),
(542,387,o),
(542,500,cs),
(542,613,o),
(457,680,o),
(330,680,cs),
(115,680,l),
(115,608,l),
(330,608,ls),
(412,608,o),
(460,566,o),
(460,500,cs),
(460,490,ls),
(460,419,o),
(412,384,o),
(330,384,cs),
(115,384,l),
(115,316,l),
(335,316,ls),
(423,316,o),
(475,278,o),
(475,200,cs),
(475,190,ls),
(475,117,o),
(423,72,o),
(335,72,cs),
(115,72,l),
(115,0,l),
(335,0,ls),
(473,0,o),
(557,70,o),
(557,188,cs),
(557,310,o),
(468,355,o),
(335,360,c)
);
}
);
userData = {
com.hugojourdan.ColorFlow = {
"0" = 0;
"1" = 0;
"10" = 0;
"11" = 0;
"2" = 0;
"3" = 0;
"4" = 0;
"5" = 0;
"6" = 0;
"7" = 0;
"8" = 0;
"9" = 0;
};
};
width = 617;
}
);
metricLeft = "=H";
unicode = 66;
},
{
glyphname = C;
kernLeft = O;
kernRight = C;
lastChange = "2023-01-10 07:41:19 +0000";
layers = (
{
anchors = (
{
name = bottom;
pos = (333,0);
},
{
name = top;
pos = (333,680);
}
);
background = {
shapes = (
{
ref = O;
}
);
};
color = 5;
layerId = m01;
shapes = (
{
closed = 1;
nodes = (
(505,-10,o),
(593,102,o),
(609,220,c),
(526,220,l),
(512,128,o),
(450,63,o),
(345,63,cs),
(213,63,o),
(134,166,o),
(134,320,cs),
(134,360,ls),
(134,514,o),
(213,617,o),
(345,617,cs),
(450,617,o),
(512,552,o),
(526,460,c),
(609,460,l),
(593,578,o),
(505,690,o),
(345,690,cs),
(173,690,o),
(51,559,o),
(51,340,cs),
(51,121,o),
(173,-10,o),
(345,-10,cs)
);
}
);
userData = {
com.hugojourdan.ColorFlow = {
"0" = 0;
"1" = 0;
"10" = 0;
"11" = 0;
"2" = 0;
"3" = 0;
"4" = 0;
"5" = 0;
"6" = 0;
"7" = 0;
"8" = 0;
"9" = 0;
};
};
width = 657;
},
{
associatedMasterId = m01;
background = {
shapes = (
{
ref = O;
}
);
};
layerId = "29A5A0A2-DE4D-4AAF-AEB5-2FE7BD963529";
name = "Oct 20, 22, 15:23";
shapes = (
{
closed = 1;
nodes = (
(553,220,l),
(536,127,o),
(476,64,o),
(358,64,cs),
(223,64,o),
(138,146,o),
(138,300,cs),
(138,380,ls),
(138,534,o),
(223,616,o),
(358,616,cs),
(476,616,o),
(536,553,o),
(553,460,c),
(635,460,l),
(617,588,o),
(517,690,o),
(358,690,cs),
(183,690,o),
(56,569,o),
(56,340,cs),
(56,111,o),
(183,-10,o),
(358,-10,cs),
(517,-10,o),
(617,92,o),
(635,220,c)
);
}
);
userData = {
com.hugojourdan.ColorFlow = {
"0" = 0;
"1" = 0;
"10" = 0;
"11" = 0;
"2" = 0;
"3" = 0;
"4" = 0;
"5" = 0;
"6" = 0;
"7" = 0;
"8" = 0;
"9" = 0;
};
};
width = 695;
},
{
associatedMasterId = m01;
background = {
shapes = (
{
ref = O;
}
);
};
layerId = "71DD5123-06F5-470E-9242-661A709129C1";
name = "Oct 20, 22, 17:14";
shapes = (
{
closed = 1;
nodes = (
(543,220,l),
(526,127,o),
(468,64,o),
(353,64,cs),
(221,64,o),
(138,146,o),
(138,300,cs),
(138,380,ls),
(138,534,o),
(221,616,o),
(353,616,cs),
(468,616,o),
(526,553,o),
(543,460,c),
(625,460,l),
(607,588,o),
(509,690,o),
(353,690,cs),
(181,690,o),
(56,569,o),
(56,340,cs),
(56,111,o),
(181,-10,o),
(353,-10,cs),
(509,-10,o),
(607,92,o),
(625,220,c)
);
}
);
userData = {
com.hugojourdan.ColorFlow = {
"0" = 0;
"1" = 0;
"10" = 0;
"11" = 0;
"2" = 0;
"3" = 0;
"4" = 0;
"5" = 0;
"6" = 0;
"7" = 0;
"8" = 0;
"9" = 0;
};
};
width = 685;
},
{
anchors = (
{
name = bottom;
pos = (339,0);
},
{
name = top;
pos = (339,680);
}
);
background = {
shapes = (
{
pos = (-10,0);
ref = O;
}
);
};
color = 4;
layerId = "E8AFECA5-8081-4A12-B551-7349FD4DE2D2";
shapes = (
{
closed = 1;
nodes = (
(501,-10,o),
(623,82,o),
(642,250,c),
(476,250,l),
(467,163,o),
(412,124,o),
(343,124,cs),
(248,124,o),
(196,194,o),
(196,320,cs),
(196,360,ls),
(196,486,o),
(248,556,o),
(343,556,cs),
(412,556,o),
(467,517,o),
(476,430,c),
(642,430,l),
(623,598,o),
(501,690,o),
(346,690,cs),
(162,690,o),
(30,558,o),
(30,340,cs),
(30,122,o),
(162,-10,o),
(346,-10,cs)
);
}
);
userData = {
com.hugojourdan.ColorFlow = {
"0" = 0;
"1" = 0;
"10" = 0;
"11" = 0;
"2" = 0;
"3" = 0;
"4" = 0;
"5" = 0;
"6" = 0;
"7" = 0;
"8" = 0;
"9" = 0;
};
};
width = 666;
},
{
associatedMasterId = "E8AFECA5-8081-4A12-B551-7349FD4DE2D2";
background = {
shapes = (
{
ref = O;
}
);
};
layerId = "DDB90051-061C-449E-BA6C-72AB00383816";
name = "210";
shapes = (
{
closed = 1;
nodes = (
(511,-10,o),
(627,78,o),
(652,240,c),
(486,240,l),
(475,155,o),
(423,124,o),
(356,124,cs),
(259,124,o),
(206,190,o),
(206,310,cs),
(206,350,ls),
(206,470,o),
(259,536,o),
(356,536,cs),
(423,536,o),
(475,505,o),
(486,420,c),
(652,420,l),
(627,582,o),
(511,670,o),
(356,670,cs),
(172,670,o),
(40,542,o),
(40,330,cs),
(40,118,o),
(172,-10,o),
(356,-10,cs)
);
}
);
width = 697;
},
{
anchors = (
{
name = bottom;
pos = (340,0);
},
{
name = top;
pos = (340,680);
}
);
background = {
shapes = (
{
pos = (5,0);
ref = O;
}
);
};
color = 1;
layerId = "C3EEC1F8-B65E-484C-ADEF-3AACC3987924";
shapes = (
{
closed = 1;
nodes = (
(527,-10,o),
(624,102,o),
(642,230,c),
(561,230,l),
(545,127,o),
(467,62,o),
(357,62,cs),
(219,62,o),
(122,164,o),
(122,320,cs),
(122,360,ls),
(122,516,o),
(219,618,o),
(357,618,cs),
(467,618,o),
(545,553,o),
(561,450,c),
(642,450,l),
(624,578,o),
(527,690,o),
(357,690,cs),
(175,690,o),
(40,559,o),
(40,340,cs),
(40,121,o),
(175,-10,o),
(357,-10,cs)
);
}
);
userData = {
com.hugojourdan.ColorFlow = {
"0" = 0;
"1" = 0;
"10" = 0;
"11" = 0;
"2" = 0;
"3" = 0;
"4" = 0;
"5" = 0;
"6" = 0;
"7" = 0;
"8" = 0;
"9" = 0;
};
};
width = 680;
},
{
anchors = (
{
name = bottom;
pos = (346,0);
},
{
name = top;
pos = (346,680);
}
);
background = {
shapes = (
{
ref = O;
}
);
};
color = 1;
layerId = m004;
shapes = (
{
closed = 1;
nodes = (
(511,-10,o),
(647,82,o),
(667,260,c),
(501,260,l),
(485,173,o),
(423,138,o),
(354,138,cs),
(253,138,o),
(186,213,o),
(186,330,cs),
(186,350,ls),
(186,467,o),
(253,542,o),
(354,542,cs),
(423,542,o),
(485,507,o),
(501,420,c),
(667,420,l),
(647,598,o),
(511,690,o),
(356,690,cs),
(166,690,o),
(20,558,o),
(20,340,cs),
(20,122,o),
(166,-10,o),
(356,-10,cs)
);
}
);
userData = {
com.hugojourdan.ColorFlow = {
"0" = 0;
"1" = 0;
"10" = 0;
"11" = 0;
"2" = 0;
"3" = 0;
"4" = 0;
"5" = 0;
"6" = 0;
"7" = 0;
"8" = 0;
"9" = 0;
};
};
width = 683;
},
{
anchors = (
{
name = bottom;
pos = (335,0);
},
{
name = top;
pos = (335,680);
}
);
associatedMasterId = "C3EEC1F8-B65E-484C-ADEF-3AACC3987924";
background = {
shapes = (
{
ref = O;
}
);
};
color = 0;
layerId = "B30AF555-7AE3-4158-8AB8-6241F6AFBB53";
name = "Dec 1, 22, 15:33";
shapes = (
{
closed = 1;
nodes = (
(518,-10,o),
(616,102,o),
(637,230,c),
(555,230,l),
(539,127,o),
(462,64,o),
(352,64,cs),
(214,64,o),
(117,166,o),
(117,320,cs),
(117,360,ls),
(117,514,o),
(214,616,o),
(352,616,cs),
(462,616,o),
(539,553,o),
(555,450,c),
(637,450,l),
(616,578,o),
(518,690,o),
(352,690,cs),
(174,690,o),
(35,559,o),
(35,340,cs),
(35,121,o),
(174,-10,o),
(352,-10,cs)
);
}
);
userData = {
com.hugojourdan.ColorFlow = {
"0" = 0;
"1" = 0;
"10" = 0;
"11" = 0;
"2" = 0;
"3" = 0;
"4" = 0;
"5" = 0;
"6" = 0;
"7" = 0;
"8" = 0;
"9" = 0;
};
};
width = 669;
},
{
anchors = (
{
name = bottom;
pos = (343,0);
},
{
name = top;
pos = (343,680);
}
);
associatedMasterId = m01;
background = {
shapes = (
{
pos = (10,0);
ref = O;
}
);
};
color = 0;
layerId = "9EBD9B8A-5D37-41CD-BD45-139B1D62084B";
name = "Dec 6, 22, 14:29";
shapes = (
{
closed = 1;
nodes = (
(518,-10,o),
(605,102,o),
(625,220,c),
(543,220,l),
(528,122,o),
(463,64,o),
(358,64,cs),
(226,64,o),
(143,156,o),
(143,310,cs),
(143,370,ls),
(143,524,o),
(226,616,o),
(358,616,cs),
(463,616,o),
(528,558,o),
(543,460,c),
(625,460,l),
(605,578,o),
(518,690,o),
(358,690,cs),
(186,690,o),
(61,559,o),
(61,340,cs),
(61,121,o),
(186,-10,o),
(358,-10,cs)
);
}
);
userData = {
com.hugojourdan.ColorFlow = {
"0" = 0;
"1" = 0;
"10" = 0;
"11" = 0;
"2" = 0;
"3" = 0;
"4" = 0;
"5" = 0;
"6" = 0;
"7" = 0;
"8" = 0;
"9" = 0;
};
};
width = 685;
},
{
anchors = (
{
name = bottom;
pos = (339,0);
},
{
name = top;
pos = (339,680);
}
);
associatedMasterId = "E8AFECA5-8081-4A12-B551-7349FD4DE2D2";
background = {
shapes = (
{
pos = (-10,0);
ref = O;
}
);
};
color = 0;
layerId = "07F83377-7687-4610-97F6-1BD0A8D883EC";
name = "Jan 7, 23, 18:17";
shapes = (
{
closed = 1;
nodes = (
(501,-10,o),
(617,82,o),
(642,250,c),
(476,250,l),
(465,158,o),
(413,124,o),
(346,124,cs),
(249,124,o),
(196,194,o),
(196,320,cs),
(196,360,ls),
(196,486,o),
(249,556,o),
(346,556,cs),
(413,556,o),
(465,522,o),
(476,430,c),
(642,430,l),
(617,598,o),
(501,690,o),
(346,690,cs),
(162,690,o),
(30,558,o),
(30,340,cs),
(30,122,o),
(162,-10,o),
(346,-10,cs)
);
}
);
userData = {
com.hugojourdan.ColorFlow = {
"0" = 0;
"1" = 0;
"10" = 0;
"11" = 0;
"2" = 0;
"3" = 0;
"4" = 0;
"5" = 0;
"6" = 0;
"7" = 0;
"8" = 0;
"9" = 0;
};
};
width = 666;
},
{
anchors = (
{
name = bottom;
pos = (333,0);
},
{
name = top;
pos = (333,680);
}
);
associatedMasterId = m01;
background = {
shapes = (
{
ref = O;
}
);
};
color = 1;
layerId = "781D8FDA-AA39-414E-BBC4-1FADCE1D7E7A";
name = "Jan 10, 23, 14:54";
shapes = (
{
closed = 1;
nodes = (
(508,-10,o),
(595,102,o),
(615,220,c),
(533,220,l),
(518,122,o),
(453,62,o),
(348,62,cs),
(216,62,o),
(133,156,o),
(133,310,cs),
(133,370,ls),
(133,524,o),
(216,618,o),
(348,618,cs),
(453,618,o),
(518,558,o),
(533,460,c),
(615,460,l),
(595,578,o),
(508,690,o),
(348,690,cs),
(176,690,o),
(51,559,o),
(51,340,cs),
(51,121,o),
(176,-10,o),
(348,-10,cs)
);
}
);
userData = {
com.hugojourdan.ColorFlow = {
"0" = 0;
"1" = 0;
"10" = 0;
"11" = 0;
"2" = 0;
"3" = 0;
"4" = 0;
"5" = 0;
"6" = 0;
"7" = 0;
"8" = 0;
"9" = 0;
};
};
width = 663;
},
{
anchors = (
{
name = bottom;
pos = (333,0);
},
{
name = top;
pos = (333,680);
}
);
associatedMasterId = m01;
background = {
shapes = (
{
ref = O;
}
);
};
color = 4;
layerId = "A995B9F0-011D-479A-AD58-FB5B9A9BC4A1";
name = "Jan 10, 23, 15:40";
shapes = (
{
closed = 1;
nodes = (
(508,-10,o),
(598,102,o),
(615,220,c),
(533,220,l),
(518,128,o),
(453,62,o),
(348,62,cs),
(216,62,o),
(133,166,o),
(133,320,cs),
(133,360,ls),
(133,514,o),
(216,618,o),
(348,618,cs),
(453,618,o),
(518,552,o),
(533,460,c),
(615,460,l),
(598,578,o),
(508,690,o),
(348,690,cs),
(176,690,o),
(51,559,o),
(51,340,cs),
(51,121,o),
(176,-10,o),
(348,-10,cs)
);
}
);
userData = {
com.hugojourdan.ColorFlow = {
"0" = 0;
"1" = 0;
"10" = 0;
"11" = 0;
"2" = 0;
"3" = 0;
"4" = 0;
"5" = 0;
"6" = 0;
"7" = 0;
"8" = 0;
"9" = 0;
};
};
width = 663;
}
);
metricLeft = "=O";
unicode = 67;
},
{
glyphname = D;
kernLeft = H;
kernRight = O;
lastChange = "2023-01-10 07:41:39 +0000";
layers = (
{
anchors = (
{
name = bottom;
pos = (338,0);
},
{
name = center;
pos = (338,340);
},
{
name = top;
pos = (338,680);
}
);
background = {
shapes = (
{
pos = (10,0);
ref = O;
}
);
};
color = 5;
layerId = m01;
shapes = (
{
closed = 1;
nodes = (
(273,0,ls),
(468,0,o),
(615,118,o),
(615,340,cs),
(615,562,o),
(468,680,o),
(273,680,cs),
(115,680,l),
(115,607,l),
(273,607,ls),
(428,607,o),
(532,508,o),
(532,360,cs),
(532,320,ls),
(532,172,o),
(428,73,o),
(273,73,cs),
(115,73,l),
(115,0,l)
);
},
{
closed = 1;
nodes = (
(161,0,l),
(161,680,l),
(80,680,l),
(80,0,l)
);
}
);
userData = {
com.hugojourdan.ColorFlow = {
"0" = 0;
"1" = 0;
"10" = 0;
"11" = 0;
"2" = 0;
"3" = 0;
"4" = 0;
"5" = 0;
"6" = 0;
"7" = 0;
"8" = 0;
"9" = 0;
};
};
width = 666;
},
{
associatedMasterId = m01;
background = {
shapes = (
{
ref = O;
}
);
};
layerId = "F01D9C8E-8AE0-4EC1-B83E-53C016463DA3";
name = "Oct 20, 22, 17:15";
shapes = (
{
closed = 1;
nodes = (
(443,608,o),
(538,528,o),
(538,380,cs),
(538,300,ls),
(538,152,o),
(443,72,o),
(298,72,cs),
(110,72,l),
(110,0,l),
(298,0,ls),
(483,0,o),
(620,118,o),
(620,340,cs),
(620,562,o),
(483,680,o),
(298,680,cs),
(110,680,l),
(110,608,l),
(298,608,ls)
);
},
{
closed = 1;
nodes = (
(155,0,l),
(155,680,l),
(75,680,l),
(75,0,l)
);
}
);
userData = {
com.hugojourdan.ColorFlow = {
"0" = 0;
"1" = 0;
"10" = 0;
"11" = 0;
"2" = 0;
"3" = 0;
"4" = 0;
"5" = 0;
"6" = 0;
"7" = 0;
"8" = 0;
"9" = 0;
};
};
width = 676;
},
{
anchors = (
{
name = bottom;
pos = (339,0);
},
{
name = center;
pos = (339,340);
},
{
name = top;
pos = (339,680);
}
);
background = {
shapes = (
{
pos = (-45,0);
ref = O;
}
);
};
color = 4;
layerId = "E8AFECA5-8081-4A12-B551-7349FD4DE2D2";
shapes = (
{
closed = 1;
nodes = (
(302,0,ls),
(506,0,o),
(638,128,o),
(638,340,cs),
(638,552,o),
(506,680,o),
(302,680,cs),
(91,680,l),
(91,543,l),
(302,543,ls),
(419,543,o),
(472,468,o),
(472,350,cs),
(472,330,ls),
(472,212,o),
(419,137,o),
(302,137,cs),
(91,137,l),
(91,0,l)
);
},
{
closed = 1;
nodes = (
(216,0,l),
(216,680,l),
(56,680,l),
(56,0,l)
);
}
);
userData = {
com.hugojourdan.ColorFlow = {
"0" = 0;
"1" = 0;
"10" = 0;
"11" = 0;
"2" = 0;
"3" = 0;
"4" = 0;
"5" = 0;
"6" = 0;
"7" = 0;
"8" = 0;
"9" = 0;
};
};
width = 668;
},
{
associatedMasterId = "E8AFECA5-8081-4A12-B551-7349FD4DE2D2";
layerId = "26BC003A-9D19-4BA2-B8B5-DCBEB2BC656A";
name = "210";
shapes = (
{
closed = 1;
nodes = (
(413,523,o),
(466,462,o),
(466,350,cs),
(466,310,ls),
(466,198,o),
(413,137,o),
(296,137,cs),
(85,137,l),
(85,0,l),
(296,0,ls),
(500,0,o),
(632,124,o),
(632,330,cs),
(632,536,o),
(500,660,o),
(296,660,cs),
(85,660,l),
(85,523,l),
(296,523,ls)
);
},
{
closed = 1;
nodes = (
(210,0,l),
(210,660,l),
(50,660,l),
(50,0,l)
);
}
);
width = 672;
},
{
anchors = (
{
name = bottom;
pos = (323,0);
},
{
name = center;
pos = (323,340);
},
{
name = top;
pos = (323,680);
}
);
color = 1;
layerId = "C3EEC1F8-B65E-484C-ADEF-3AACC3987924";
shapes = (
{
closed = 1;
nodes = (
(268,0,ls),
(458,0,o),
(610,118,o),
(610,340,cs),
(610,562,o),
(458,680,o),
(268,680,cs),
(100,680,l),
(100,608,l),
(258,608,ls),
(424,608,o),
(528,508,o),
(528,360,cs),
(528,320,ls),
(528,172,o),
(424,72,o),
(258,72,cs),
(100,72,l),
(100,0,l)
);
},
{
closed = 1;
nodes = (
(145,0,l),
(145,680,l),
(65,680,l),
(65,0,l)
);
}
);
userData = {
com.hugojourdan.ColorFlow = {
"0" = 0;
"1" = 0;
"10" = 0;
"11" = 0;
"2" = 0;
"3" = 0;
"4" = 0;
"5" = 0;
"6" = 0;
"7" = 0;
"8" = 0;
"9" = 0;
};
};
width = 650;
},
{
anchors = (
{
name = bottom;
pos = (324,0);
},
{
name = center;
pos = (324,340);
},
{
name = top;
pos = (324,680);
}
);
color = 1;
layerId = m004;
shapes = (
{
closed = 1;
nodes = (
(287,0,ls),
(488,0,o),
(628,128,o),
(628,340,cs),
(628,552,o),
(488,680,o),
(287,680,cs),
(71,680,l),
(71,532,l),
(282,532,ls),
(391,532,o),
(462,461,o),
(462,350,cs),
(462,330,ls),
(462,219,o),
(391,148,o),
(282,148,cs),
(71,148,l),
(71,0,l)
);
},
{
closed = 1;
nodes = (
(196,0,l),
(196,680,l),
(36,680,l),
(36,0,l)
);
}
);
userData = {
com.hugojourdan.ColorFlow = {
"0" = 0;
"1" = 0;
"10" = 0;
"11" = 0;
"2" = 0;
"3" = 0;
"4" = 0;
"5" = 0;
"6" = 0;
"7" = 0;
"8" = 0;
"9" = 0;
};
};
width = 648;
},
{
anchors = (
{
name = bottom;
pos = (323,0);
},
{
name = center;
pos = (323,340);
},
{
name = top;
pos = (323,680);
}
);
associatedMasterId = "C3EEC1F8-B65E-484C-ADEF-3AACC3987924";
color = 0;
layerId = "B495C744-EF2F-411D-B8E4-A575A79CCE46";
name = "Dec 1, 22, 15:36";
shapes = (
{
closed = 1;
nodes = (
(258,0,ls),
(459,0,o),
(610,118,o),
(610,340,cs),
(610,562,o),
(459,680,o),
(258,680,cs),
(100,680,l),
(100,608,l),
(258,608,ls),
(419,608,o),
(528,508,o),
(528,360,cs),
(528,320,ls),
(528,172,o),
(419,72,o),
(258,72,cs),
(100,72,l),
(100,0,l)
);
},
{
closed = 1;
nodes = (
(145,0,l),
(145,680,l),
(65,680,l),
(65,0,l)
);
}
);
userData = {
com.hugojourdan.ColorFlow = {
"0" = 0;
"1" = 0;
"10" = 0;
"11" = 0;
"2" = 0;
"3" = 0;
"4" = 0;
"5" = 0;
"6" = 0;
"7" = 0;
"8" = 0;
"9" = 0;
};
};
width = 645;
},
{
anchors = (
{
name = bottom;
pos = (324,0);
},
{
name = center;
pos = (324,340);
},
{
name = top;
pos = (324,680);
}
);
associatedMasterId = m004;
color = 0;
layerId = "D07A995A-F3EB-40C0-9F78-31A1359D2A20";
name = "Dec 1, 22, 17:36";
shapes = (
{
closed = 1;
nodes = (
(282,0,ls),
(478,0,o),
(628,128,o),
(628,340,cs),
(628,552,o),
(478,680,o),
(282,680,cs),
(71,680,l),
(71,532,l),
(282,532,ls),
(391,532,o),
(462,461,o),
(462,350,cs),
(462,330,ls),
(462,219,o),
(391,148,o),
(282,148,cs),
(71,148,l),
(71,0,l)
);
},
{
closed = 1;
nodes = (
(196,0,l),
(196,680,l),
(36,680,l),
(36,0,l)
);
}
);
userData = {
com.hugojourdan.ColorFlow = {
"0" = 0;
"1" = 0;
"10" = 0;
"11" = 0;
"2" = 0;
"3" = 0;
"4" = 0;
"5" = 0;
"6" = 0;
"7" = 0;
"8" = 0;
"9" = 0;
};
};
width = 648;
},
{
anchors = (
{
name = bottom;
pos = (339,0);
},
{
name = center;
pos = (339,340);
},
{
name = top;
pos = (339,680);
}
);
associatedMasterId = "E8AFECA5-8081-4A12-B551-7349FD4DE2D2";
background = {
shapes = (
{
pos = (-45,0);
ref = O;
}
);
};
color = 0;
layerId = "FD199AFE-8960-4F60-98C9-B69ED241348C";
name = "Jan 7, 23, 18:17";
shapes = (
{
closed = 1;
nodes = (
(302,0,ls),
(506,0,o),
(638,128,o),
(638,340,cs),
(638,552,o),
(506,680,o),
(302,680,cs),
(91,680,l),
(91,543,l),
(302,543,ls),
(419,543,o),
(472,478,o),
(472,360,cs),
(472,320,ls),
(472,202,o),
(419,137,o),
(302,137,cs),
(91,137,l),
(91,0,l)
);
},
{
closed = 1;
nodes = (
(216,0,l),
(216,680,l),
(56,680,l),
(56,0,l)
);
}
);
userData = {
com.hugojourdan.ColorFlow = {
"0" = 0;
"1" = 0;
"10" = 0;
"11" = 0;
"2" = 0;
"3" = 0;
"4" = 0;
"5" = 0;
"6" = 0;
"7" = 0;
"8" = 0;
"9" = 0;
};
};
width = 668;
},
{
anchors = (
{
name = bottom;
pos = (338,0);
},
{
name = center;
pos = (338,340);
},
{
name = top;
pos = (338,680);
}
);
associatedMasterId = m01;
background = {
shapes = (
{
pos = (10,0);
ref = O;
}
);
};
color = 0;
layerId = "A65F4306-35C0-4E7F-B7D9-E7A77E861F51";
name = "Jan 10, 23, 14:55";
shapes = (
{
closed = 1;
nodes = (
(273,0,ls),
(468,0,o),
(615,118,o),
(615,340,cs),
(615,562,o),
(468,680,o),
(273,680,cs),
(115,680,l),
(115,608,l),
(273,608,ls),
(428,608,o),
(533,518,o),
(533,370,cs),
(533,310,ls),
(533,162,o),
(428,72,o),
(273,72,cs),
(115,72,l),
(115,0,l)
);
},
{
closed = 1;
nodes = (
(160,0,l),
(160,680,l),
(80,680,l),
(80,0,l)
);
}
);
userData = {
com.hugojourdan.ColorFlow = {
"0" = 0;
"1" = 0;
"10" = 0;
"11" = 0;
"2" = 0;
"3" = 0;
"4" = 0;
"5" = 0;
"6" = 0;
"7" = 0;
"8" = 0;
"9" = 0;
};
};
width = 666;
},
{
anchors = (
{
name = bottom;
pos = (338,0);
},
{
name = center;
pos = (338,340);
},
{
name = top;
pos = (338,680);
}
);
associatedMasterId = m01;
background = {
shapes = (
{
pos = (10,0);
ref = O;
}
);
};
color = 4;
layerId = "3B34548F-CB1E-43C9-BA89-CA904961952B";
name = "Jan 10, 23, 15:41";
shapes = (
{
closed = 1;
nodes = (
(273,0,ls),
(468,0,o),
(615,118,o),
(615,340,cs),
(615,562,o),
(468,680,o),
(273,680,cs),
(115,680,l),
(115,608,l),
(273,608,ls),
(428,608,o),
(533,508,o),
(533,360,cs),
(533,320,ls),
(533,172,o),
(428,72,o),
(273,72,cs),
(115,72,l),
(115,0,l)
);
},
{
closed = 1;
nodes = (
(160,0,l),
(160,680,l),
(80,680,l),
(80,0,l)
);
}
);
userData = {
com.hugojourdan.ColorFlow = {
"0" = 0;
"1" = 0;
"10" = 0;
"11" = 0;
"2" = 0;
"3" = 0;
"4" = 0;
"5" = 0;
"6" = 0;
"7" = 0;
"8" = 0;
"9" = 0;
};
};
width = 666;
}
);
metricLeft = "=H";
metricRight = "=O";
unicode = 68;
},
{
glyphname = Eth;
lastChange = "2022-12-06 06:50:00 +0000";
layers = (
{
color = 0;
layerId = m01;
shapes = (
{
pos = (45,0);
ref = D;
},
{
closed = 1;
nodes = (
(350,311,l),
(350,379,l),
(30,379,l),
(30,311,l)
);
}
);
userData = {
com.hugojourdan.ColorFlow = {
"0" = 0;
"1" = 0;
"10" = 0;
"11" = 0;
"2" = 0;
"3" = 0;
"4" = 0;
"5" = 0;
"6" = 0;
"7" = 0;
"8" = 0;
"9" = 0;
};
};
width = 711;
},
{
color = 0;
layerId = "E8AFECA5-8081-4A12-B551-7349FD4DE2D2";
shapes = (
{
pos = (55,0);
ref = D;
},
{
closed = 1;
nodes = (
(390,280,l),
(390,404,l),
(20,404,l),
(20,280,l)
);
}
);
userData = {
com.hugojourdan.ColorFlow = {
"0" = 0;
"1" = 0;
"10" = 0;
"11" = 0;
"2" = 0;
"3" = 0;
"4" = 0;
"5" = 0;
"6" = 0;
"7" = 0;
"8" = 0;
"9" = 0;
};
};
width = 723;
},
{
color = 0;
layerId = "C3EEC1F8-B65E-484C-ADEF-3AACC3987924";
shapes = (
{
pos = (40,0);
ref = D;
},
{
closed = 1;
nodes = (
(325,311,l),
(325,379,l),
(25,379,l),
(25,311,l)
);
}
);
userData = {
com.hugojourdan.ColorFlow = {
"0" = 0;
"1" = 0;
"10" = 0;
"11" = 0;
"2" = 0;
"3" = 0;
"4" = 0;
"5" = 0;
"6" = 0;
"7" = 0;
"8" = 0;
"9" = 0;
};
};
width = 690;
},
{
color = 0;
layerId = m004;
shapes = (
{
pos = (55,0);
ref = D;
},
{
closed = 1;
nodes = (
(390,272,l),
(390,412,l),
(10,412,l),
(10,272,l)
);
}
);
userData = {
com.hugojourdan.ColorFlow = {
"0" = 0;
"1" = 0;
"10" = 0;
"11" = 0;
"2" = 0;
"3" = 0;
"4" = 0;
"5" = 0;
"6" = 0;
"7" = 0;
"8" = 0;
"9" = 0;
};
};
width = 703;
}
);
metricLeft = "=T";
metricRight = "=D";
unicode = 208;
},
{
glyphname = E;
kernLeft = H;
kernRight = E;
lastChange = "2023-01-10 07:42:07 +0000";
layers = (
{
anchors = (
{
name = bottom;
pos = (298,0);
},
{
name = ogonek;
pos = (525,0);
},
{
name = top;
pos = (298,680);
},
{
name = topleft;
pos = (20,680);
}
);
color = 5;
layerId = m01;
shapes = (
{
closed = 1;
nodes = (
(161,0,l),
(161,680,l),
(80,680,l),
(80,0,l)
);
},
{
closed = 1;
nodes = (
(495,313,l),
(495,386,l),
(115,386,l),
(115,313,l)
);
},
{
closed = 1;
nodes = (
(525,607,l),
(525,680,l),
(115,680,l),
(115,607,l)
);
},
{
closed = 1;
nodes = (
(525,0,l),
(525,73,l),
(115,73,l),
(115,0,l)
);
}
);
userData = {
com.hugojourdan.ColorFlow = {
"0" = 0;
"1" = 0;
"10" = 0;
"11" = 0;
"2" = 0;
"3" = 0;
"4" = 0;
"5" = 0;
"6" = 0;
"7" = 0;
"8" = 0;
"9" = 0;
};
};
width = 585;
},
{
associatedMasterId = m01;
layerId = "670CC710-AEF8-4A59-9A3D-1A3D105A9266";
name = "Oct 20, 22, 17:18";
shapes = (
{
closed = 1;
nodes = (
(165,0,l),
(165,680,l),
(85,680,l),
(85,0,l)
);
},
{
closed = 1;
nodes = (
(520,314,l),
(520,386,l),
(120,386,l),
(120,314,l)
);
},
{
closed = 1;
nodes = (
(550,608,l),
(550,680,l),
(120,680,l),
(120,608,l)
);
},
{
closed = 1;
nodes = (
(550,0,l),
(550,72,l),
(120,72,l),
(120,0,l)
);
}
);
userData = {
com.hugojourdan.ColorFlow = {
"0" = 0;
"1" = 0;
"10" = 0;
"11" = 0;
"2" = 0;
"3" = 0;
"4" = 0;
"5" = 0;
"6" = 0;
"7" = 0;
"8" = 0;
"9" = 0;
};
};
width = 625;
},
{
anchors = (
{
name = bottom;
pos = (296,0);
},
{
name = ogonek;
pos = (551,0);
},
{
name = top;
pos = (296,680);
},
{
name = topleft;
pos = (20,680);
}
);
color = 4;
layerId = "E8AFECA5-8081-4A12-B551-7349FD4DE2D2";
shapes = (
{
closed = 1;
nodes = (
(216,0,l),
(216,680,l),
(56,680,l),
(56,0,l)
);
},
{
closed = 1;
nodes = (
(521,279,l),
(521,411,l),
(91,411,l),
(91,279,l)
);
},
{
closed = 1;
nodes = (
(551,543,l),
(551,680,l),
(91,680,l),
(91,543,l)
);
},
{
closed = 1;
nodes = (
(551,0,l),
(551,137,l),
(91,137,l),
(91,0,l)
);
}
);
userData = {
com.hugojourdan.ColorFlow = {
"0" = 0;
"1" = 0;
"10" = 0;
"11" = 0;
"2" = 0;
"3" = 0;
"4" = 0;
"5" = 0;
"6" = 0;
"7" = 0;
"8" = 0;
"9" = 0;
};
};
width = 591;
},
{
associatedMasterId = "E8AFECA5-8081-4A12-B551-7349FD4DE2D2";
layerId = "DFDAB85C-F0E1-4E72-A21E-CB9C902F89C6";
name = "210";
shapes = (
{
closed = 1;
nodes = (
(210,0,l),
(210,660,l),
(50,660,l),
(50,0,l)
);
},
{
closed = 1;
nodes = (
(515,269,l),
(515,401,l),
(85,401,l),
(85,269,l)
);
},
{
closed = 1;
nodes = (
(545,523,l),
(545,660,l),
(85,660,l),
(85,523,l)
);
},
{
closed = 1;
nodes = (
(545,0,l),
(545,137,l),
(85,137,l),
(85,0,l)
);
}
);
width = 585;
},
{
anchors = (
{
name = bottom;
pos = (288,0);
},
{
name = ogonek;
pos = (520,0);
},
{
name = top;
pos = (288,680);
},
{
name = topleft;
pos = (20,680);
}
);
color = 1;
layerId = "C3EEC1F8-B65E-484C-ADEF-3AACC3987924";
shapes = (
{
closed = 1;
nodes = (
(145,0,l),
(145,680,l),
(65,680,l),
(65,0,l)
);
},
{
closed = 1;
nodes = (
(484,314,l),
(484,386,l),
(100,386,l),
(100,314,l)
);
},
{
closed = 1;
nodes = (
(514,608,l),
(514,680,l),
(100,680,l),
(100,608,l)
);
},
{
closed = 1;
nodes = (
(514,0,l),
(514,72,l),
(100,72,l),
(100,0,l)
);
}
);
userData = {
com.hugojourdan.ColorFlow = {
"0" = 0;
"1" = 0;
"10" = 0;
"11" = 0;
"2" = 0;
"3" = 0;
"4" = 0;
"5" = 0;
"6" = 0;
"7" = 0;
"8" = 0;
"9" = 0;
};
};
width = 562;
},
{
anchors = (
{
name = bottom;
pos = (275,0);
},
{
name = ogonek;
pos = (521,0);
},
{
name = top;
pos = (275,680);
},
{
name = topleft;
pos = (20,680);
}
);
color = 1;
layerId = m004;
shapes = (
{
closed = 1;
nodes = (
(196,0,l),
(196,680,l),
(36,680,l),
(36,0,l)
);
},
{
closed = 1;
nodes = (
(493,275,l),
(493,415,l),
(71,415,l),
(71,275,l)
);
},
{
closed = 1;
nodes = (
(513,532,l),
(513,680,l),
(71,680,l),
(71,532,l)
);
},
{
closed = 1;
nodes = (
(513,0,l),
(513,148,l),
(71,148,l),
(71,0,l)
);
}
);
userData = {
com.hugojourdan.ColorFlow = {
"0" = 0;
"1" = 0;
"10" = 0;
"11" = 0;
"2" = 0;
"3" = 0;
"4" = 0;
"5" = 0;
"6" = 0;
"7" = 0;
"8" = 0;
"9" = 0;
};
};
width = 541;
},
{
anchors = (
{
name = bottom;
pos = (288,0);
},
{
name = ogonek;
pos = (520,0);
},
{
name = top;
pos = (288,680);
},
{
name = topleft;
pos = (20,680);
}
);
associatedMasterId = "C3EEC1F8-B65E-484C-ADEF-3AACC3987924";
color = 1;
layerId = "FAFBDBD3-494B-4E34-B81A-57B5194B1677";
name = "Dec 1, 22, 17:02";
shapes = (
{
closed = 1;
nodes = (
(145,0,l),
(145,680,l),
(65,680,l),
(65,0,l)
);
},
{
closed = 1;
nodes = (
(490,314,l),
(490,386,l),
(100,386,l),
(100,314,l)
);
},
{
closed = 1;
nodes = (
(520,608,l),
(520,680,l),
(100,680,l),
(100,608,l)
);
},
{
closed = 1;
nodes = (
(520,0,l),
(520,72,l),
(100,72,l),
(100,0,l)
);
}
);
userData = {
com.hugojourdan.ColorFlow = {
"0" = 0;
"1" = 0;
"10" = 0;
"11" = 0;
"2" = 0;
"3" = 0;
"4" = 0;
"5" = 0;
"6" = 0;
"7" = 0;
"8" = 0;
"9" = 0;
};
};
width = 575;
},
{
anchors = (
{
name = bottom;
pos = (275,0);
},
{
name = ogonek;
pos = (521,0);
},
{
name = top;
pos = (275,680);
},
{
name = topleft;
pos = (20,680);
}
);
associatedMasterId = m004;
color = 0;
layerId = "8E69D5C8-39BE-4FCD-8C71-93DD20762868";
name = "Dec 1, 22, 17:36";
shapes = (
{
closed = 1;
nodes = (
(196,0,l),
(196,680,l),
(36,680,l),
(36,0,l)
);
},
{
closed = 1;
nodes = (
(501,275,l),
(501,415,l),
(71,415,l),
(71,275,l)
);
},
{
closed = 1;
nodes = (
(521,532,l),
(521,680,l),
(71,680,l),
(71,532,l)
);
},
{
closed = 1;
nodes = (
(521,0,l),
(521,148,l),
(71,148,l),
(71,0,l)
);
}
);
userData = {
com.hugojourdan.ColorFlow = {
"0" = 0;
"1" = 0;
"10" = 0;
"11" = 0;
"2" = 0;
"3" = 0;
"4" = 0;
"5" = 0;
"6" = 0;
"7" = 0;
"8" = 0;
"9" = 0;
};
};
width = 549;
},
{
anchors = (
{
name = bottom;
pos = (298,0);
},
{
name = ogonek;
pos = (525,0);
},
{
name = top;
pos = (298,680);
},
{
name = topleft;
pos = (20,680);
}
);
associatedMasterId = m01;
color = 0;
layerId = "5C169400-24FF-43AD-8804-7324C52CF101";
name = "Jan 10, 23, 15:41";
shapes = (
{
closed = 1;
nodes = (
(160,0,l),
(160,680,l),
(80,680,l),
(80,0,l)
);
},
{
closed = 1;
nodes = (
(495,314,l),
(495,386,l),
(115,386,l),
(115,314,l)
);
},
{
closed = 1;
nodes = (
(525,608,l),
(525,680,l),
(115,680,l),
(115,608,l)
);
},
{
closed = 1;
nodes = (
(525,0,l),
(525,72,l),
(115,72,l),
(115,0,l)
);
}
);
userData = {
com.hugojourdan.ColorFlow = {
"0" = 0;
"1" = 0;
"10" = 0;
"11" = 0;
"2" = 0;
"3" = 0;
"4" = 0;
"5" = 0;
"6" = 0;
"7" = 0;
"8" = 0;
"9" = 0;
};
};
width = 585;
}
);
metricLeft = "=H";
unicode = 69;
},
{
glyphname = F;
kernLeft = H;
kernRight = F;
lastChange = "2023-01-10 07:42:16 +0000";
layers = (
{
anchors = (
{
name = bottom;
pos = (290,0);
},
{
name = top;
pos = (290,680);
}
);
color = 5;
layerId = m01;
shapes = (
{
closed = 1;
nodes = (
(161,0,l),
(161,680,l),
(80,680,l),
(80,0,l)
);
},
{
closed = 1;
nodes = (
(495,303,l),
(495,376,l),
(115,376,l),
(115,303,l)
);
},
{
closed = 1;
nodes = (
(515,607,l),
(515,680,l),
(115,680,l),
(115,607,l)
);
}
);
userData = {
com.hugojourdan.ColorFlow = {
"0" = 0;
"1" = 0;
"10" = 0;
"11" = 0;
"2" = 0;
"3" = 0;
"4" = 0;
"5" = 0;
"6" = 0;
"7" = 0;
"8" = 0;
"9" = 0;
};
};
width = 570;
},
{
associatedMasterId = m01;
layerId = "B589F32A-0BC6-43DE-8B3C-1278D468104D";
name = "Oct 20, 22, 17:18";
shapes = (
{
closed = 1;
nodes = (
(165,0,l),
(165,680,l),
(85,680,l),
(85,0,l)
);
},
{
closed = 1;
nodes = (
(520,304,l),
(520,376,l),
(120,376,l),
(120,304,l)
);
},
{
closed = 1;
nodes = (
(540,608,l),
(540,680,l),
(120,680,l),
(120,608,l)
);
}
);
userData = {
com.hugojourdan.ColorFlow = {
"0" = 0;
"1" = 0;
"10" = 0;
"11" = 0;
"2" = 0;
"3" = 0;
"4" = 0;
"5" = 0;
"6" = 0;
"7" = 0;
"8" = 0;
"9" = 0;
};
};
width = 610;
},
{
anchors = (
{
name = bottom;
pos = (276,0);
},
{
name = top;
pos = (276,680);
}
);
color = 4;
layerId = "E8AFECA5-8081-4A12-B551-7349FD4DE2D2";
shapes = (
{
closed = 1;
nodes = (
(216,0,l),
(216,680,l),
(56,680,l),
(56,0,l)
);
},
{
closed = 1;
nodes = (
(511,266,l),
(511,398,l),
(91,398,l),
(91,266,l)
);
},
{
closed = 1;
nodes = (
(521,540,l),
(521,680,l),
(91,680,l),
(91,540,l)
);
}
);
userData = {
com.hugojourdan.ColorFlow = {
"0" = 0;
"1" = 0;
"10" = 0;
"11" = 0;
"2" = 0;
"3" = 0;
"4" = 0;
"5" = 0;
"6" = 0;
"7" = 0;
"8" = 0;
"9" = 0;
};
};
width = 551;
},
{
associatedMasterId = "E8AFECA5-8081-4A12-B551-7349FD4DE2D2";
layerId = "2E4C6E05-CECB-4E52-8517-C6D062B488F7";
name = "210";
shapes = (
{
closed = 1;
nodes = (
(210,0,l),
(210,660,l),
(50,660,l),
(50,0,l)
);
},
{
closed = 1;
nodes = (
(505,256,l),
(505,388,l),
(85,388,l),
(85,256,l)
);
},
{
closed = 1;
nodes = (
(515,520,l),
(515,660,l),
(85,660,l),
(85,520,l)
);
}
);
width = 545;
},
{
anchors = (
{
name = bottom;
pos = (283,0);
},
{
name = top;
pos = (283,680);
}
);
color = 1;
layerId = "C3EEC1F8-B65E-484C-ADEF-3AACC3987924";
shapes = (
{
closed = 1;
nodes = (
(145,0,l),
(145,680,l),
(65,680,l),
(65,0,l)
);
},
{
closed = 1;
nodes = (
(480,304,l),
(480,376,l),
(100,376,l),
(100,304,l)
);
},
{
closed = 1;
nodes = (
(500,608,l),
(500,680,l),
(100,680,l),
(100,608,l)
);
}
);
userData = {
com.hugojourdan.ColorFlow = {
"0" = 0;
"1" = 0;
"10" = 0;
"11" = 0;
"2" = 0;
"3" = 0;
"4" = 0;
"5" = 0;
"6" = 0;
"7" = 0;
"8" = 0;
"9" = 0;
};
};
width = 542;
},
{
anchors = (
{
name = bottom;
pos = (253,0);
},
{
name = top;
pos = (253,680);
}
);
color = 1;
layerId = m004;
shapes = (
{
closed = 1;
nodes = (
(196,0,l),
(196,680,l),
(36,680,l),
(36,0,l)
);
},
{
closed = 1;
nodes = (
(472,261,l),
(472,403,l),
(71,403,l),
(71,261,l)
);
},
{
closed = 1;
nodes = (
(479,530,l),
(479,680,l),
(71,680,l),
(71,530,l)
);
}
);
userData = {
com.hugojourdan.ColorFlow = {
"0" = 0;
"1" = 0;
"10" = 0;
"11" = 0;
"2" = 0;
"3" = 0;
"4" = 0;
"5" = 0;
"6" = 0;
"7" = 0;
"8" = 0;
"9" = 0;
};
};
width = 497;
},
{
anchors = (
{
name = bottom;
pos = (283,0);
},
{
name = top;
pos = (283,680);
}
);
associatedMasterId = "C3EEC1F8-B65E-484C-ADEF-3AACC3987924";
color = 0;
layerId = "47E4830C-647C-4B39-9126-F27702FDBD36";
name = "Dec 1, 22, 17:02";
shapes = (
{
closed = 1;
nodes = (
(145,0,l),
(145,680,l),
(65,680,l),
(65,0,l)
);
},
{
closed = 1;
nodes = (
(490,304,l),
(490,376,l),
(100,376,l),
(100,304,l)
);
},
{
closed = 1;
nodes = (
(510,608,l),
(510,680,l),
(100,680,l),
(100,608,l)
);
}
);
userData = {
com.hugojourdan.ColorFlow = {
"0" = 0;
"1" = 0;
"10" = 0;
"11" = 0;
"2" = 0;
"3" = 0;
"4" = 0;
"5" = 0;
"6" = 0;
"7" = 0;
"8" = 0;
"9" = 0;
};
};
width = 565;
},
{
anchors = (
{
name = bottom;
pos = (253,0);
},
{
name = top;
pos = (253,680);
}
);
associatedMasterId = m004;
color = 0;
layerId = "B3721545-FCA4-488F-88B2-B9C0F487F86A";
name = "Dec 1, 22, 17:37";
shapes = (
{
closed = 1;
nodes = (
(196,0,l),
(196,680,l),
(36,680,l),
(36,0,l)
);
},
{
closed = 1;
nodes = (
(484,261,l),
(484,403,l),
(71,403,l),
(71,261,l)
);
},
{
closed = 1;
nodes = (
(491,530,l),
(491,680,l),
(71,680,l),
(71,530,l)
);
}
);
userData = {
com.hugojourdan.ColorFlow = {
"0" = 0;
"1" = 0;
"10" = 0;
"11" = 0;
"2" = 0;
"3" = 0;
"4" = 0;
"5" = 0;
"6" = 0;
"7" = 0;
"8" = 0;
"9" = 0;
};
};
width = 506;
}
);
metricLeft = "=H";
unicode = 70;
},
{
glyphname = G;
kernLeft = O;
kernRight = G;
lastChange = "2023-01-10 07:42:57 +0000";
layers = (
{
anchors = (
{
name = bottom;
pos = (342,0);
},
{
name = top;
pos = (342,680);
}
);
background = {
shapes = (
{
pos = (-10,0);
ref = O;
},
{
pos = (-10,0);
ref = C;
}
);
};
color = 5;
layerId = m01;
shapes = (
{
closed = 1;
nodes = (
(482,-10,o),
(572,72,o),
(572,230,c),
(556,168,l),
(561,0,l),
(623,0,l),
(623,356,l),
(348,356,l),
(348,287,l),
(608,287,l),
(542,350,l),
(542,260,ls),
(542,146,o),
(466,63,o),
(346,63,cs),
(214,63,o),
(134,166,o),
(134,320,cs),
(134,360,ls),
(134,514,o),
(218,617,o),
(349,617,cs),
(453,617,o),
(517,553,o),
(533,480,c),
(616,480,l),
(599,585,o),
(503,690,o),
(349,690,cs),
(178,690,o),
(51,559,o),
(51,340,cs),
(51,121,o),
(174,-10,o),
(346,-10,cs)
);
}
);
userData = {
com.hugojourdan.ColorFlow = {
"0" = 0;
"1" = 0;
"10" = 0;
"11" = 0;
"2" = 0;
"3" = 0;
"4" = 0;
"5" = 0;
"6" = 0;
"7" = 0;
"8" = 0;
"9" = 0;
};
};
width = 693;
},
{
associatedMasterId = m01;
background = {
shapes = (
{
ref = O;
},
{
ref = C;
}
);
};
layerId = "F1D93567-0CCD-4C3D-A850-FC9096F38AD4";
name = "Oct 20, 22, 17:18";
shapes = (
{
closed = 1;
nodes = (
(492,-10,o),
(577,72,o),
(577,230,c),
(548,260,l),
(548,146,o),
(483,64,o),
(351,64,cs),
(219,64,o),
(138,146,o),
(138,300,cs),
(138,380,ls),
(138,534,o),
(223,616,o),
(354,616,cs),
(468,616,o),
(527,553,o),
(543,480,c),
(625,480,l),
(608,588,o),
(511,690,o),
(354,690,cs),
(183,690,o),
(56,569,o),
(56,340,cs),
(56,111,o),
(179,-10,o),
(351,-10,cs)
);
},
{
closed = 1;
nodes = (
(628,0,l),
(628,356,l),
(353,356,l),
(353,288,l),
(613,288,l),
(548,350,l),
(548,183,l),
(558,168,l),
(568,0,l)
);
}
);
userData = {
com.hugojourdan.ColorFlow = {
"0" = 0;
"1" = 0;
"10" = 0;
"11" = 0;
"2" = 0;
"3" = 0;
"4" = 0;
"5" = 0;
"6" = 0;
"7" = 0;
"8" = 0;
"9" = 0;
};
};
width = 703;
},
{
anchors = (
{
name = bottom;
pos = (342,0);
},
{
name = top;
pos = (342,680);
}
);
background = {
shapes = (
{
pos = (-10,0);
ref = C;
}
);
};
color = 4;
layerId = "E8AFECA5-8081-4A12-B551-7349FD4DE2D2";
shapes = (
{
closed = 1;
nodes = (
(466,-10,o),
(552,86,o),
(552,240,c),
(518,178,l),
(533,0,l),
(643,0,l),
(643,376,l),
(358,376,l),
(358,248,l),
(608,248,l),
(490,330,l),
(490,260,ls),
(490,169,o),
(428,119,o),
(347,119,cs),
(248,119,o),
(196,194,o),
(196,320,cs),
(196,360,ls),
(196,488,o),
(249,559,o),
(346,559,cs),
(413,559,o),
(461,525,o),
(475,450,c),
(641,450,l),
(613,598,o),
(501,690,o),
(346,690,cs),
(162,690,o),
(30,558,o),
(30,340,cs),
(30,121,o),
(158,-10,o),
(324,-10,cs)
);
}
);
userData = {
com.hugojourdan.ColorFlow = {
"0" = 0;
"1" = 0;
"10" = 0;
"11" = 0;
"2" = 0;
"3" = 0;
"4" = 0;
"5" = 0;
"6" = 0;
"7" = 0;
"8" = 0;
"9" = 0;
};
};
width = 688;
},
{
associatedMasterId = "E8AFECA5-8081-4A12-B551-7349FD4DE2D2";
layerId = "5B2FC56E-BCCC-499B-9DBA-108AD7946833";
name = "Oct 24, 22, 12:56";
shapes = (
{
closed = 1;
nodes = (
(206,470,o),
(259,536,o),
(356,536,cs),
(423,536,o),
(475,505,o),
(486,420,c),
(652,420,l),
(627,582,o),
(511,670,o),
(356,670,cs),
(172,670,o),
(40,542,o),
(40,330,cs),
(40,117,o),
(172,-10,o),
(356,-10,cs),
(492,-10,o),
(582,72,o),
(582,230,c),
(568,168,l),
(573,0,l),
(633,0,l),
(633,356,l),
(358,356,l),
(358,288,l),
(618,288,l),
(553,350,l),
(553,260,ls),
(553,146,o),
(481,64,o),
(356,64,cs),
(263,64,o),
(206,156,o),
(206,310,cs),
(206,350,ls)
);
}
);
width = 600;
},
{
associatedMasterId = "E8AFECA5-8081-4A12-B551-7349FD4DE2D2";
background = {
shapes = (
{
ref = C;
}
);
};
layerId = "4BB1FC40-4686-464B-BC36-0C7E69F4DCF9";
name = "210";
shapes = (
{
closed = 1;
nodes = (
(476,-10,o),
(562,82,o),
(562,230,c),
(528,168,l),
(543,0,l),
(653,0,l),
(653,366,l),
(368,366,l),
(368,238,l),
(618,238,l),
(500,320,l),
(500,250,ls),
(500,165,o),
(438,119,o),
(357,119,cs),
(258,119,o),
(206,190,o),
(206,310,cs),
(206,350,ls),
(206,472,o),
(259,539,o),
(356,539,cs),
(423,539,o),
(471,508,o),
(485,440,c),
(651,440,l),
(623,582,o),
(511,670,o),
(356,670,cs),
(172,670,o),
(40,542,o),
(40,330,cs),
(40,117,o),
(168,-10,o),
(334,-10,cs)
);
}
);
width = 703;
},
{
anchors = (
{
name = bottom;
pos = (351,0);
},
{
name = top;
pos = (351,680);
}
);
color = 1;
layerId = "C3EEC1F8-B65E-484C-ADEF-3AACC3987924";
shapes = (
{
closed = 1;
nodes = (
(495,-10,o),
(586,87,o),
(586,225,c),
(576,168,l),
(576,0,l),
(642,0,l),
(642,356,l),
(347,356,l),
(347,288,l),
(627,288,l),
(562,350,l),
(562,270,ls),
(562,152,o),
(479,62,o),
(350,62,cs),
(212,62,o),
(122,164,o),
(122,320,cs),
(122,360,ls),
(122,516,o),
(221,618,o),
(358,618,cs),
(470,618,o),
(536,550,o),
(553,470,c),
(635,470,l),
(617,585,o),
(521,690,o),
(358,690,cs),
(177,690,o),
(40,559,o),
(40,340,cs),
(40,121,o),
(168,-10,o),
(344,-10,cs)
);
}
);
userData = {
com.hugojourdan.ColorFlow = {
"0" = 0;
"1" = 0;
"10" = 0;
"11" = 0;
"2" = 0;
"3" = 0;
"4" = 0;
"5" = 0;
"6" = 0;
"7" = 0;
"8" = 0;
"9" = 0;
};
};
width = 697;
},
{
anchors = (
{
name = bottom;
pos = (342,0);
},
{
name = top;
pos = (342,680);
}
);
background = {
shapes = (
{
ref = O;
},
{
ref = C;
}
);
};
color = 1;
layerId = m004;
shapes = (
{
closed = 1;
nodes = (
(481,-10,o),
(577,86,o),
(577,240,c),
(533,178,l),
(533,0,l),
(658,0,l),
(658,384,l),
(358,384,l),
(358,248,l),
(623,248,l),
(505,330,l),
(505,270,ls),
(505,178,o),
(437,133,o),
(357,133,cs),
(253,133,o),
(186,210,o),
(186,330,cs),
(186,350,ls),
(186,470,o),
(253,547,o),
(353,547,cs),
(418,547,o),
(476,514,o),
(490,445,c),
(656,445,l),
(628,598,o),
(516,690,o),
(356,690,cs),
(166,690,o),
(20,558,o),
(20,340,cs),
(20,122,o),
(162,-10,o),
(334,-10,cs)
);
}
);
userData = {
com.hugojourdan.ColorFlow = {
"0" = 0;
"1" = 0;
"10" = 0;
"11" = 0;
"2" = 0;
"3" = 0;
"4" = 0;
"5" = 0;
"6" = 0;
"7" = 0;
"8" = 0;
"9" = 0;
};
};
width = 683;
},
{
anchors = (
{
name = bottom;
pos = (346,0);
},
{
name = top;
pos = (346,680);
}
);
associatedMasterId = "C3EEC1F8-B65E-484C-ADEF-3AACC3987924";
color = 0;
layerId = "927C4B69-268A-4BCD-8381-6628B8CFFB72";
name = "Dec 1, 22, 15:37";
shapes = (
{
closed = 1;
nodes = (
(487,-10,o),
(581,72,o),
(581,230,c),
(571,168,l),
(571,0,l),
(637,0,l),
(637,356,l),
(342,356,l),
(342,288,l),
(622,288,l),
(557,350,l),
(557,260,ls),
(557,154,o),
(476,64,o),
(345,64,cs),
(207,64,o),
(117,166,o),
(117,320,cs),
(117,360,ls),
(117,514,o),
(216,616,o),
(353,616,cs),
(468,616,o),
(531,548,o),
(548,470,c),
(630,470,l),
(612,585,o),
(513,690,o),
(353,690,cs),
(176,690,o),
(35,559,o),
(35,340,cs),
(35,121,o),
(167,-10,o),
(345,-10,cs)
);
}
);
userData = {
com.hugojourdan.ColorFlow = {
"0" = 0;
"1" = 0;
"10" = 0;
"11" = 0;
"2" = 0;
"3" = 0;
"4" = 0;
"5" = 0;
"6" = 0;
"7" = 0;
"8" = 0;
"9" = 0;
};
};
width = 692;
},
{
anchors = (
{
name = bottom;
pos = (352,0);
},
{
name = top;
pos = (352,680);
}
);
associatedMasterId = m01;
background = {
shapes = (
{
ref = O;
},
{
ref = C;
}
);
};
color = 0;
layerId = "14DD8959-FF0E-4AE0-8958-E7BEB702244D";
name = "Dec 6, 22, 14:29";
shapes = (
{
closed = 1;
nodes = (
(492,-10,o),
(582,72,o),
(582,230,c),
(568,168,l),
(573,0,l),
(633,0,l),
(633,356,l),
(358,356,l),
(358,288,l),
(618,288,l),
(553,350,l),
(553,260,ls),
(553,146,o),
(481,64,o),
(356,64,cs),
(224,64,o),
(143,156,o),
(143,310,cs),
(143,370,ls),
(143,524,o),
(228,616,o),
(359,616,cs),
(468,616,o),
(528,553,o),
(544,480,c),
(626,480,l),
(609,585,o),
(513,690,o),
(359,690,cs),
(188,690,o),
(61,559,o),
(61,340,cs),
(61,121,o),
(184,-10,o),
(356,-10,cs)
);
}
);
userData = {
com.hugojourdan.ColorFlow = {
"0" = 0;
"1" = 0;
"10" = 0;
"11" = 0;
"2" = 0;
"3" = 0;
"4" = 0;
"5" = 0;
"6" = 0;
"7" = 0;
"8" = 0;
"9" = 0;
};
};
width = 703;
},
{
anchors = (
{
name = bottom;
pos = (342,0);
},
{
name = top;
pos = (342,680);
}
);
associatedMasterId = m01;
background = {
shapes = (
{
pos = (-10,0);
ref = O;
},
{
pos = (-10,0);
ref = C;
}
);
};
color = 1;
layerId = "65B6CC2D-B51D-4873-BAAE-F73FB4ECAB15";
name = "Jan 7, 23, 18:16";
shapes = (
{
closed = 1;
nodes = (
(482,-10,o),
(572,72,o),
(572,230,c),
(558,168,l),
(563,0,l),
(623,0,l),
(623,356,l),
(348,356,l),
(348,288,l),
(608,288,l),
(543,350,l),
(543,260,ls),
(543,146,o),
(471,62,o),
(346,62,cs),
(214,62,o),
(133,156,o),
(133,310,cs),
(133,370,ls),
(133,524,o),
(218,618,o),
(349,618,cs),
(458,618,o),
(518,553,o),
(534,480,c),
(616,480,l),
(599,585,o),
(503,690,o),
(349,690,cs),
(178,690,o),
(51,559,o),
(51,340,cs),
(51,121,o),
(174,-10,o),
(346,-10,cs)
);
}
);
userData = {
com.hugojourdan.ColorFlow = {
"0" = 0;
"1" = 0;
"10" = 0;
"11" = 0;
"2" = 0;
"3" = 0;
"4" = 0;
"5" = 0;
"6" = 0;
"7" = 0;
"8" = 0;
"9" = 0;
};
};
width = 693;
},
{
anchors = (
{
name = bottom;
pos = (342,0);
},
{
name = top;
pos = (342,680);
}
);
associatedMasterId = m01;
background = {
shapes = (
{
pos = (-10,0);
ref = O;
},
{
pos = (-10,0);
ref = C;
}
);
};
color = 4;
layerId = "5319E214-60AF-4643-BB9B-08DCEBC07AC9";
name = "Jan 10, 23, 15:42";
shapes = (
{
closed = 1;
nodes = (
(482,-10,o),
(572,72,o),
(572,230,c),
(558,168,l),
(563,0,l),
(623,0,l),
(623,356,l),
(348,356,l),
(348,288,l),
(608,288,l),
(543,350,l),
(543,260,ls),
(543,146,o),
(466,62,o),
(346,62,cs),
(214,62,o),
(133,166,o),
(133,320,cs),
(133,360,ls),
(133,514,o),
(218,618,o),
(349,618,cs),
(453,618,o),
(518,553,o),
(534,480,c),
(616,480,l),
(599,585,o),
(503,690,o),
(349,690,cs),
(178,690,o),
(51,559,o),
(51,340,cs),
(51,121,o),
(174,-10,o),
(346,-10,cs)
);
}
);
userData = {
com.hugojourdan.ColorFlow = {
"0" = 0;
"1" = 0;
"10" = 0;
"11" = 0;
"2" = 0;
"3" = 0;
"4" = 0;
"5" = 0;
"6" = 0;
"7" = 0;
"8" = 0;
"9" = 0;
};
};
width = 693;
}
);
metricLeft = "=O";
unicode = 71;
},
{
glyphname = H;
kernLeft = H;
kernRight = H;
lastChange = "2023-01-10 07:43:09 +0000";
layers = (
{
anchors = (
{
name = bottom;
pos = (345,0);
},
{
name = center;
pos = (345,340);
},
{
name = top;
pos = (345,680);
},
{
name = topleft;
pos = (20,680);
}
);
color = 5;
layerId = m01;
shapes = (
{
closed = 1;
nodes = (
(161,0,l),
(161,680,l),
(80,680,l),
(80,0,l)
);
},
{
closed = 1;
nodes = (
(575,313,l),
(575,386,l),
(115,386,l),
(115,313,l)
);
},
{
closed = 1;
nodes = (
(610,0,l),
(610,680,l),
(529,680,l),
(529,0,l)
);
}
);
userData = {
com.hugojourdan.ColorFlow = {
"0" = 0;
"1" = 0;
"10" = 0;
"11" = 0;
"2" = 0;
"3" = 0;
"4" = 0;
"5" = 0;
"6" = 0;
"7" = 0;
"8" = 0;
"9" = 0;
};
};
width = 690;
},
{
associatedMasterId = m01;
layerId = "0F51210E-F0C6-49FA-9702-9456ADAA1893";
name = "Oct 20, 22, 17:20";
shapes = (
{
closed = 1;
nodes = (
(165,0,l),
(165,680,l),
(85,680,l),
(85,0,l)
);
},
{
closed = 1;
nodes = (
(600,314,l),
(600,386,l),
(120,386,l),
(120,314,l)
);
},
{
closed = 1;
nodes = (
(635,0,l),
(635,680,l),
(555,680,l),
(555,0,l)
);
}
);
userData = {
com.hugojourdan.ColorFlow = {
"0" = 0;
"1" = 0;
"10" = 0;
"11" = 0;
"2" = 0;
"3" = 0;
"4" = 0;
"5" = 0;
"6" = 0;
"7" = 0;
"8" = 0;
"9" = 0;
};
};
width = 720;
},
{
anchors = (
{
name = bottom;
pos = (341,0);
},
{
name = center;
pos = (341,340);
},
{
name = top;
pos = (341,680);
},
{
name = topleft;
pos = (20,680);
}
);
color = 0;
layerId = "E8AFECA5-8081-4A12-B551-7349FD4DE2D2";
shapes = (
{
closed = 1;
nodes = (
(216,0,l),
(216,680,l),
(56,680,l),
(56,0,l)
);
},
{
closed = 1;
nodes = (
(591,274,l),
(591,416,l),
(91,416,l),
(91,274,l)
);
},
{
closed = 1;
nodes = (
(626,0,l),
(626,680,l),
(466,680,l),
(466,0,l)
);
}
);
userData = {
com.hugojourdan.ColorFlow = {
"0" = 0;
"1" = 0;
"10" = 0;
"11" = 0;
"2" = 0;
"3" = 0;
"4" = 0;
"5" = 0;
"6" = 0;
"7" = 0;
"8" = 0;
"9" = 0;
};
};
width = 682;
},
{
associatedMasterId = "E8AFECA5-8081-4A12-B551-7349FD4DE2D2";
layerId = "08471F94-C1EB-4024-8AF1-3766E0094048";
name = "210";
shapes = (
{
closed = 1;
nodes = (
(210,0,l),
(210,660,l),
(50,660,l),
(50,0,l)
);
},
{
closed = 1;
nodes = (
(585,264,l),
(585,406,l),
(85,406,l),
(85,264,l)
);
},
{
closed = 1;
nodes = (
(620,0,l),
(620,660,l),
(460,660,l),
(460,0,l)
);
}
);
width = 670;
},
{
anchors = (
{
name = bottom;
pos = (340,0);
},
{
name = center;
pos = (340,340);
},
{
name = top;
pos = (340,680);
},
{
name = topleft;
pos = (20,680);
}
);
color = 0;
layerId = "C3EEC1F8-B65E-484C-ADEF-3AACC3987924";
shapes = (
{
closed = 1;
nodes = (
(145,0,l),
(145,680,l),
(65,680,l),
(65,0,l)
);
},
{
closed = 1;
nodes = (
(580,314,l),
(580,386,l),
(100,386,l),
(100,314,l)
);
},
{
closed = 1;
nodes = (
(615,0,l),
(615,680,l),
(535,680,l),
(535,0,l)
);
}
);
userData = {
com.hugojourdan.ColorFlow = {
"0" = 0;
"1" = 0;
"10" = 0;
"11" = 0;
"2" = 0;
"3" = 0;
"4" = 0;
"5" = 0;
"6" = 0;
"7" = 0;
"8" = 0;
"9" = 0;
};
};
width = 680;
},
{
anchors = (
{
name = bottom;
pos = (324,0);
},
{
name = center;
pos = (324,340);
},
{
name = top;
pos = (324,680);
},
{
name = topleft;
pos = (20,680);
}
);
color = 1;
layerId = m004;
shapes = (
{
closed = 1;
nodes = (
(196,0,l),
(196,680,l),
(36,680,l),
(36,0,l)
);
},
{
closed = 1;
nodes = (
(577,271,l),
(577,421,l),
(71,421,l),
(71,271,l)
);
},
{
closed = 1;
nodes = (
(612,0,l),
(612,680,l),
(452,680,l),
(452,0,l)
);
}
);
userData = {
com.hugojourdan.ColorFlow = {
"0" = 0;
"1" = 0;
"10" = 0;
"11" = 0;
"2" = 0;
"3" = 0;
"4" = 0;
"5" = 0;
"6" = 0;
"7" = 0;
"8" = 0;
"9" = 0;
};
};
width = 648;
},
{
anchors = (
{
name = bottom;
pos = (345,0);
},
{
name = center;
pos = (345,340);
},
{
name = top;
pos = (345,680);
},
{
name = topleft;
pos = (20,680);
}
);
associatedMasterId = m01;
color = 4;
layerId = "C6CDF2A2-976B-4C15-9B32-4C84AB8E6CDE";
name = "Jan 10, 23, 15:43";
shapes = (
{
closed = 1;
nodes = (
(160,0,l),
(160,680,l),
(80,680,l),
(80,0,l)
);
},
{
closed = 1;
nodes = (
(575,314,l),
(575,386,l),
(115,386,l),
(115,314,l)
);
},
{
closed = 1;
nodes = (
(610,0,l),
(610,680,l),
(530,680,l),
(530,0,l)
);
}
);
userData = {
com.hugojourdan.ColorFlow = {
"0" = 0;
"1" = 0;
"10" = 0;
"11" = 0;
"2" = 0;
"3" = 0;
"4" = 0;
"5" = 0;
"6" = 0;
"7" = 0;
"8" = 0;
"9" = 0;
};
};
width = 690;
}
);
unicode = 72;
},
{
glyphname = I;
kernLeft = H;
kernRight = H;
lastChange = "2023-01-10 07:43:26 +0000";
layers = (
{
anchors = (
{
name = bottom;
pos = (120,0);
},
{
name = ogonek;
pos = (160,0);
},
{
name = top;
pos = (120,680);
},
{
name = topleft;
pos = (20,680);
}
);
color = 5;
layerId = m01;
shapes = (
{
closed = 1;
nodes = (
(161,0,l),
(161,680,l),
(80,680,l),
(80,0,l)
);
}
);
userData = {
com.hugojourdan.ColorFlow = {
"0" = 0;
"1" = 0;
"10" = 0;
"11" = 0;
"2" = 0;
"3" = 0;
"4" = 0;
"5" = 0;
"6" = 0;
"7" = 0;
"8" = 0;
"9" = 0;
};
};
width = 241;
},
{
anchors = (
{
name = bottom;
pos = (136,0);
},
{
name = ogonek;
pos = (216,0);
},
{
name = top;
pos = (136,680);
},
{
name = topleft;
pos = (20,680);
}
);
color = 0;
layerId = "E8AFECA5-8081-4A12-B551-7349FD4DE2D2";
shapes = (
{
closed = 1;
nodes = (
(216,0,l),
(216,680,l),
(56,680,l),
(56,0,l)
);
}
);
userData = {
com.hugojourdan.ColorFlow = {
"0" = 0;
"1" = 0;
"10" = 0;
"11" = 0;
"2" = 0;
"3" = 0;
"4" = 0;
"5" = 0;
"6" = 0;
"7" = 0;
"8" = 0;
"9" = 0;
};
};
width = 272;
},
{
associatedMasterId = "E8AFECA5-8081-4A12-B551-7349FD4DE2D2";
layerId = "2F00446B-F6A9-4874-91A4-11BAD4F10E90";
name = "210";
shapes = (
{
closed = 1;
nodes = (
(210,0,l),
(210,660,l),
(50,660,l),
(50,0,l)
);
}
);
width = 260;
},
{
anchors = (
{
name = bottom;
pos = (105,0);
},
{
name = ogonek;
pos = (145,0);
},
{
name = top;
pos = (105,680);
},
{
name = topleft;
pos = (20,680);
}
);
color = 0;
layerId = "C3EEC1F8-B65E-484C-ADEF-3AACC3987924";
shapes = (
{
closed = 1;
nodes = (
(145,0,l),
(145,680,l),
(65,680,l),
(65,0,l)
);
}
);
userData = {
com.hugojourdan.ColorFlow = {
"0" = 0;
"1" = 0;
"10" = 0;
"11" = 0;
"2" = 0;
"3" = 0;
"4" = 0;
"5" = 0;
"6" = 0;
"7" = 0;
"8" = 0;
"9" = 0;
};
};
width = 210;
},
{
anchors = (
{
name = bottom;
pos = (116,0);
},
{
name = ogonek;
pos = (196,0);
},
{
name = top;
pos = (116,680);
},
{
name = topleft;
pos = (20,680);
}
);
color = 1;
layerId = m004;
shapes = (
{
closed = 1;
nodes = (
(196,0,l),
(196,680,l),
(36,680,l),
(36,0,l)
);
}
);
userData = {
com.hugojourdan.ColorFlow = {
"0" = 0;
"1" = 0;
"10" = 0;
"11" = 0;
"2" = 0;
"3" = 0;
"4" = 0;
"5" = 0;
"6" = 0;
"7" = 0;
"8" = 0;
"9" = 0;
};
};
width = 232;
}
);
metricLeft = "=H";
metricRight = "=H";
unicode = 73;
},
{
glyphname = J;
kernLeft = J;
kernRight = U;
lastChange = "2023-01-13 03:05:01 +0000";
layers = (
{
anchors = (
{
name = bottom;
pos = (256,0);
},
{
name = top;
pos = (256,680);
}
);
color = 5;
layerId = m01;
shapes = (
{
closed = 1;
nodes = (
(344,680,l),
(344,200,ls),
(344,109,o),
(298,62,o),
(224,62,cs),
(150,62,o),
(101,109,o),
(101,200,c),
(25,200,l),
(25,56,o),
(108,-10,o),
(225,-10,cs),
(342,-10,o),
(425,56,o),
(425,200,cs),
(425,680,l)
);
}
);
userData = {
com.hugojourdan.ColorFlow = {
"0" = 0;
"1" = 0;
"10" = 0;
"11" = 0;
"2" = 0;
"3" = 0;
"4" = 0;
"5" = 0;
"6" = 0;
"7" = 0;
"8" = 0;
"9" = 0;
};
};
width = 502;
},
{
anchors = (
{
name = bottom;
pos = (258,0);
},
{
name = top;
pos = (258,680);
}
);
color = 0;
layerId = "E8AFECA5-8081-4A12-B551-7349FD4DE2D2";
shapes = (
{
closed = 1;
nodes = (
(310,680,l),
(310,230,ls),
(310,162,o),
(294,124,o),
(240,124,cs),
(186,124,o),
(168,162,o),
(168,230,c),
(10,230,l),
(10,59,o),
(105,-10,o),
(240,-10,cs),
(375,-10,o),
(470,59,o),
(470,230,cs),
(470,680,l)
);
}
);
userData = {
com.hugojourdan.ColorFlow = {
"0" = 0;
"1" = 0;
"10" = 0;
"11" = 0;
"2" = 0;
"3" = 0;
"4" = 0;
"5" = 0;
"6" = 0;
"7" = 0;
"8" = 0;
"9" = 0;
};
};
width = 515;
},
{
associatedMasterId = "E8AFECA5-8081-4A12-B551-7349FD4DE2D2";
layerId = "D63CB82C-0E51-49EF-8974-998E82AC5D88";
name = "210";
shapes = (
{
closed = 1;
nodes = (
(310,660,l),
(310,230,ls),
(310,162,o),
(294,124,o),
(240,124,cs),
(186,124,o),
(168,162,o),
(168,230,c),
(10,230,l),
(10,59,o),
(105,-10,o),
(240,-10,cs),
(375,-10,o),
(470,59,o),
(470,230,cs),
(470,660,l)
);
}
);
width = 515;
},
{
anchors = (
{
name = bottom;
pos = (245,0);
},
{
name = top;
pos = (245,680);
}
);
color = 1;
layerId = "C3EEC1F8-B65E-484C-ADEF-3AACC3987924";
shapes = (
{
closed = 1;
nodes = (
(350,680,l),
(350,210,ls),
(350,109,o),
(307,62,o),
(225,62,cs),
(143,62,o),
(96,109,o),
(96,210,c),
(20,210,l),
(20,56,o),
(105,-10,o),
(225,-10,cs),
(365,-10,o),
(430,80,o),
(430,210,cs),
(430,680,l)
);
}
);
userData = {
com.hugojourdan.ColorFlow = {
"0" = 0;
"1" = 0;
"10" = 0;
"11" = 0;
"2" = 0;
"3" = 0;
"4" = 0;
"5" = 0;
"6" = 0;
"7" = 0;
"8" = 0;
"9" = 0;
};
};
width = 490;
},
{
anchors = (
{
name = bottom;
pos = (251,0);
},
{
name = top;
pos = (251,680);
}
);
color = 1;
layerId = m004;
shapes = (
{
closed = 1;
nodes = (
(319,680,l),
(319,240,ls),
(319,169,o),
(295,138,o),
(243,138,cs),
(183,138,o),
(161,179,o),
(161,240,c),
(5,240,l),
(5,67,o),
(106,-10,o),
(245,-10,cs),
(376,-10,o),
(479,59,o),
(479,230,cs),
(479,680,l)
);
}
);
userData = {
com.hugojourdan.ColorFlow = {
"0" = 0;
"1" = 0;
"10" = 0;
"11" = 0;
"2" = 0;
"3" = 0;
"4" = 0;
"5" = 0;
"6" = 0;
"7" = 0;
"8" = 0;
"9" = 0;
};
};
width = 504;
},
{
anchors = (
{
name = bottom;
pos = (245,0);
},
{
name = top;
pos = (245,680);
}
);
associatedMasterId = "C3EEC1F8-B65E-484C-ADEF-3AACC3987924";
color = 0;
layerId = "10E2F9AF-6AE8-4410-B0DF-D20B2B71F0A1";
name = "Dec 1, 22, 15:39";
shapes = (
{
closed = 1;
nodes = (
(350,680,l),
(350,210,ls),
(350,109,o),
(302,64,o),
(225,64,cs),
(148,64,o),
(98,109,o),
(98,210,c),
(20,210,l),
(20,56,o),
(105,-10,o),
(225,-10,cs),
(345,-10,o),
(430,56,o),
(430,210,cs),
(430,680,l)
);
}
);
userData = {
com.hugojourdan.ColorFlow = {
"0" = 0;
"1" = 0;
"10" = 0;
"11" = 0;
"2" = 0;
"3" = 0;
"4" = 0;
"5" = 0;
"6" = 0;
"7" = 0;
"8" = 0;
"9" = 0;
};
};
width = 490;
},
{
anchors = (
{
name = bottom;
pos = (253,0);
},
{
name = top;
pos = (253,680);
}
);
associatedMasterId = m004;
color = 0;
layerId = "7218DD79-862E-48A0-A224-7713324D0703";
name = "Dec 1, 22, 17:38";
shapes = (
{
closed = 1;
nodes = (
(321,680,l),
(321,240,ls),
(321,179,o),
(297,138,o),
(243,138,cs),
(189,138,o),
(163,179,o),
(163,240,c),
(5,240,l),
(5,67,o),
(108,-10,o),
(243,-10,cs),
(378,-10,o),
(481,67,o),
(481,240,cs),
(481,680,l)
);
}
);
userData = {
com.hugojourdan.ColorFlow = {
"0" = 0;
"1" = 0;
"10" = 0;
"11" = 0;
"2" = 0;
"3" = 0;
"4" = 0;
"5" = 0;
"6" = 0;
"7" = 0;
"8" = 0;
"9" = 0;
};
};
width = 506;
},
{
anchors = (
{
name = bottom;
pos = (246,0);
},
{
name = top;
pos = (246,680);
}
);
associatedMasterId = m01;
color = 0;
layerId = "87D90285-5920-49F1-81B9-F20B60CCF074";
name = "Dec 6, 22, 14:29";
shapes = (
{
closed = 1;
nodes = (
(335,680,l),
(335,200,ls),
(335,109,o),
(289,64,o),
(215,64,cs),
(141,64,o),
(93,109,o),
(93,200,c),
(15,200,l),
(15,56,o),
(98,-10,o),
(215,-10,cs),
(332,-10,o),
(415,56,o),
(415,200,cs),
(415,680,l)
);
}
);
userData = {
com.hugojourdan.ColorFlow = {
"0" = 0;
"1" = 0;
"10" = 0;
"11" = 0;
"2" = 0;
"3" = 0;
"4" = 0;
"5" = 0;
"6" = 0;
"7" = 0;
"8" = 0;
"9" = 0;
};
};
width = 492;
},
{
anchors = (
{
name = bottom;
pos = (256,0);
},
{
name = top;
pos = (256,680);
}
);
associatedMasterId = m01;
color = 1;
layerId = "254668D0-4002-4E50-86F9-45B326F1F206";
name = "Jan 10, 23, 15:43";
shapes = (
{
closed = 1;
nodes = (
(345,680,l),
(345,200,ls),
(345,109,o),
(299,62,o),
(225,62,cs),
(151,62,o),
(103,109,o),
(103,200,c),
(25,200,l),
(25,56,o),
(108,-10,o),
(225,-10,cs),
(342,-10,o),
(425,56,o),
(425,200,cs),
(425,680,l)
);
}
);
userData = {
com.hugojourdan.ColorFlow = {
"0" = 0;
"1" = 0;
"10" = 0;
"11" = 0;
"2" = 0;
"3" = 0;
"4" = 0;
"5" = 0;
"6" = 0;
"7" = 0;
"8" = 0;
"9" = 0;
};
};
width = 502;
}
);
metricRight = "=U";
unicode = 74;
},
{
glyphname = K;
kernLeft = H;
kernRight = X;
lastChange = "2023-01-13 05:03:21 +0000";
layers = (
{
anchors = (
{
name = bottom;
pos = (291,0);
},
{
name = top;
pos = (291,680);
}
);
color = 5;
layerId = m01;
shapes = (
{
closed = 1;
nodes = (
(161,0,l),
(161,680,l),
(80,680,l),
(80,0,l)
);
},
{
closed = 1;
nodes = (
(447,0,l),
(552,0,l),
(217,381,l),
(218,313,l),
(547,680,l),
(446,680,l),
(156,345,l)
);
}
);
userData = {
com.hugojourdan.ColorFlow = {
"0" = 0;
"1" = 0;
"10" = 0;
"11" = 0;
"2" = 0;
"3" = 0;
"4" = 0;
"5" = 0;
"6" = 0;
"7" = 0;
"8" = 0;
"9" = 0;
};
};
width = 582;
},
{
associatedMasterId = m01;
layerId = "BB3EB5C8-3A6B-4BFD-A6FC-658D6382E208";
name = "Oct 20, 22, 15:17";
shapes = (
{
closed = 1;
nodes = (
(155,0,l),
(155,680,l),
(75,680,l),
(75,0,l)
);
},
{
closed = 1;
nodes = (
(571,680,l),
(482,680,l),
(276,340,l),
(357,340,l)
);
},
{
closed = 1;
nodes = (
(275,340,l),
(481,0,l),
(572,0,l),
(357,340,l)
);
}
);
userData = {
com.hugojourdan.ColorFlow = {
"0" = 0;
"1" = 0;
"10" = 0;
"11" = 0;
"2" = 0;
"3" = 0;
"4" = 0;
"5" = 0;
"6" = 0;
"7" = 0;
"8" = 0;
"9" = 0;
};
};
width = 600;
},
{
associatedMasterId = m01;
layerId = "73B03D8D-3E87-45E6-BC92-F87CCDB339B2";
name = "Oct 21, 22, 13:36";
shapes = (
{
closed = 1;
nodes = (
(150,0,l),
(150,680,l),
(70,680,l),
(70,0,l)
);
},
{
closed = 1;
nodes = (
(432,0,l),
(537,0,l),
(209,381,l),
(209,313,l),
(536,680,l),
(433,680,l),
(141,345,l)
);
}
);
userData = {
com.hugojourdan.ColorFlow = {
"0" = 0;
"1" = 0;
"10" = 0;
"11" = 0;
"2" = 0;
"3" = 0;
"4" = 0;
"5" = 0;
"6" = 0;
"7" = 0;
"8" = 0;
"9" = 0;
};
};
width = 572;
},
{
anchors = (
{
name = bottom;
pos = (319,0);
},
{
name = top;
pos = (319,680);
}
);
color = 0;
layerId = "E8AFECA5-8081-4A12-B551-7349FD4DE2D2";
shapes = (
{
closed = 1;
nodes = (
(216,0,l),
(216,680,l),
(56,680,l),
(56,0,l)
);
},
{
closed = 1;
nodes = (
(415,0,l),
(612,0,l),
(340,390,l),
(340,304,l),
(611,680,l),
(418,680,l),
(195,345,l)
);
}
);
userData = {
com.hugojourdan.ColorFlow = {
"0" = 0;
"1" = 0;
"10" = 0;
"11" = 0;
"2" = 0;
"3" = 0;
"4" = 0;
"5" = 0;
"6" = 0;
"7" = 0;
"8" = 0;
"9" = 0;
};
};
width = 637;
},
{
associatedMasterId = "E8AFECA5-8081-4A12-B551-7349FD4DE2D2";
layerId = "E6C114FF-A7DF-4DD3-B4C0-E4130B956AA9";
name = "210";
shapes = (
{
closed = 1;
nodes = (
(190,0,l),
(190,660,l),
(30,660,l),
(30,0,l)
);
},
{
closed = 1;
nodes = (
(387,0,l),
(586,0,l),
(306,368,l),
(306,303,l),
(585,660,l),
(388,660,l),
(161,335,l)
);
}
);
width = 606;
},
{
anchors = (
{
name = bottom;
pos = (281,0);
},
{
name = top;
pos = (281,680);
}
);
color = 0;
layerId = "C3EEC1F8-B65E-484C-ADEF-3AACC3987924";
shapes = (
{
closed = 1;
nodes = (
(145,0,l),
(145,680,l),
(65,680,l),
(65,0,l)
);
},
{
closed = 1;
nodes = (
(442,0,l),
(547,0,l),
(201,378,l),
(201,313,l),
(546,680,l),
(443,680,l),
(136,345,l)
);
}
);
userData = {
com.hugojourdan.ColorFlow = {
"0" = 0;
"1" = 0;
"10" = 0;
"11" = 0;
"2" = 0;
"3" = 0;
"4" = 0;
"5" = 0;
"6" = 0;
"7" = 0;
"8" = 0;
"9" = 0;
};
};
width = 562;
},
{
anchors = (
{
name = bottom;
pos = (304,0);
},
{
name = top;
pos = (304,680);
}
);
color = 1;
layerId = m004;
shapes = (
{
closed = 1;
nodes = (
(196,0,l),
(196,680,l),
(36,680,l),
(36,0,l)
);
},
{
closed = 1;
nodes = (
(400,0,l),
(597,0,l),
(331,381,l),
(331,310,l),
(596,680,l),
(401,680,l),
(173,345,l)
);
}
);
userData = {
com.hugojourdan.ColorFlow = {
"0" = 0;
"1" = 0;
"10" = 0;
"11" = 0;
"2" = 0;
"3" = 0;
"4" = 0;
"5" = 0;
"6" = 0;
"7" = 0;
"8" = 0;
"9" = 0;
};
};
width = 607;
},
{
anchors = (
{
name = bottom;
pos = (304,0);
},
{
name = top;
pos = (304,680);
}
);
associatedMasterId = m004;
color = 0;
layerId = "6D6E608C-F18C-482F-8CC0-D8A4A833D0AF";
name = "Dec 1, 22, 17:40";
shapes = (
{
closed = 1;
nodes = (
(196,0,l),
(196,680,l),
(36,680,l),
(36,0,l)
);
},
{
closed = 1;
nodes = (
(398,0,l),
(597,0,l),
(316,378,l),
(316,313,l),
(596,680,l),
(399,680,l),
(161,345,l)
);
}
);
userData = {
com.hugojourdan.ColorFlow = {
"0" = 0;
"1" = 0;
"10" = 0;
"11" = 0;
"2" = 0;
"3" = 0;
"4" = 0;
"5" = 0;
"6" = 0;
"7" = 0;
"8" = 0;
"9" = 0;
};
};
width = 607;
},
{
anchors = (
{
name = bottom;
pos = (291,0);
},
{
name = top;
pos = (291,680);
}
);
associatedMasterId = m01;
color = 4;
layerId = "ACED8EA6-F1AA-4A9D-8E10-9D2AA8F8FAD5";
name = "Jan 10, 23, 15:43";
shapes = (
{
closed = 1;
nodes = (
(160,0,l),
(160,680,l),
(80,680,l),
(80,0,l)
);
},
{
closed = 1;
nodes = (
(447,0,l),
(552,0,l),
(216,378,l),
(216,313,l),
(551,680,l),
(448,680,l),
(151,345,l)
);
}
);
userData = {
com.hugojourdan.ColorFlow = {
"0" = 0;
"1" = 0;
"10" = 0;
"11" = 0;
"2" = 0;
"3" = 0;
"4" = 0;
"5" = 0;
"6" = 0;
"7" = 0;
"8" = 0;
"9" = 0;
};
};
width = 582;
},
{
anchors = (
{
name = bottom;
pos = (319,0);
},
{
name = top;
pos = (319,680);
}
);
associatedMasterId = "E8AFECA5-8081-4A12-B551-7349FD4DE2D2";
color = 0;
layerId = "A4EFF4FC-E0EB-4F92-869F-94365931954A";
name = "Jan 13, 23, 13:02";
shapes = (
{
closed = 1;
nodes = (
(216,0,l),
(216,680,l),
(56,680,l),
(56,0,l)
);
},
{
closed = 1;
nodes = (
(413,0,l),
(612,0,l),
(332,378,l),
(332,313,l),
(611,680,l),
(414,680,l),
(187,345,l)
);
}
);
userData = {
com.hugojourdan.ColorFlow = {
"0" = 0;
"1" = 0;
"10" = 0;
"11" = 0;
"2" = 0;
"3" = 0;
"4" = 0;
"5" = 0;
"6" = 0;
"7" = 0;
"8" = 0;
"9" = 0;
};
};
width = 637;
},
{
anchors = (
{
name = bottom;
pos = (304,0);
},
{
name = top;
pos = (304,680);
}
);
associatedMasterId = m004;
color = 1;
layerId = "E816B726-4CC6-4A1F-985C-9D44354979C4";
name = "Jan 13, 23, 13:02";
shapes = (
{
closed = 1;
nodes = (
(196,0,l),
(196,680,l),
(36,680,l),
(36,0,l)
);
},
{
closed = 1;
nodes = (
(400,0,l),
(597,0,l),
(319,378,l),
(319,313,l),
(596,680,l),
(401,680,l),
(161,345,l)
);
}
);
userData = {
com.hugojourdan.ColorFlow = {
"0" = 0;
"1" = 0;
"10" = 0;
"11" = 0;
"2" = 0;
"3" = 0;
"4" = 0;
"5" = 0;
"6" = 0;
"7" = 0;
"8" = 0;
"9" = 0;
};
};
width = 607;
}
);
metricLeft = "=H";
metricRight = "=V-5";
unicode = 75;
},
{
glyphname = L;
kernLeft = H;
kernRight = L;
lastChange = "2023-01-10 07:44:09 +0000";
layers = (
{
anchors = (
{
name = bottom;
pos = (258,0);
},
{
name = center;
pos = (258,340);
},
{
name = top;
pos = (120,680);
},
{
name = topright;
pos = (295,680);
}
);
color = 5;
layerId = m01;
shapes = (
{
closed = 1;
nodes = (
(161,0,l),
(161,680,l),
(80,680,l),
(80,0,l)
);
},
{
closed = 1;
nodes = (
(485,0,l),
(485,73,l),
(115,73,l),
(115,0,l)
);
}
);
userData = {
com.hugojourdan.ColorFlow = {
"0" = 0;
"1" = 0;
"10" = 0;
"11" = 0;
"2" = 0;
"3" = 0;
"4" = 0;
"5" = 0;
"6" = 0;
"7" = 0;
"8" = 0;
"9" = 0;
};
};
width = 525;
},
{
anchors = (
{
name = bottom;
pos = (266,0);
},
{
name = center;
pos = (266,340);
},
{
name = top;
pos = (136,680);
},
{
name = topright;
pos = (331,680);
}
);
color = 0;
layerId = "E8AFECA5-8081-4A12-B551-7349FD4DE2D2";
shapes = (
{
closed = 1;
nodes = (
(216,0,l),
(216,680,l),
(56,680,l),
(56,0,l)
);
},
{
closed = 1;
nodes = (
(511,0,l),
(511,142,l),
(91,142,l),
(91,0,l)
);
}
);
userData = {
com.hugojourdan.ColorFlow = {
"0" = 0;
"1" = 0;
"10" = 0;
"11" = 0;
"2" = 0;
"3" = 0;
"4" = 0;
"5" = 0;
"6" = 0;
"7" = 0;
"8" = 0;
"9" = 0;
};
};
width = 531;
},
{
associatedMasterId = "E8AFECA5-8081-4A12-B551-7349FD4DE2D2";
layerId = "6CF70E3F-CF7B-44CE-8A55-19CE9360F559";
name = "210";
shapes = (
{
closed = 1;
nodes = (
(210,0,l),
(210,660,l),
(50,660,l),
(50,0,l)
);
},
{
closed = 1;
nodes = (
(505,0,l),
(505,142,l),
(85,142,l),
(85,0,l)
);
}
);
width = 525;
},
{
anchors = (
{
name = bottom;
pos = (253,0);
},
{
name = center;
pos = (253,340);
},
{
name = top;
pos = (105,680);
},
{
name = topright;
pos = (305,680);
}
);
color = 0;
layerId = "C3EEC1F8-B65E-484C-ADEF-3AACC3987924";
shapes = (
{
closed = 1;
nodes = (
(145,0,l),
(145,680,l),
(65,680,l),
(65,0,l)
);
},
{
closed = 1;
nodes = (
(480,0,l),
(480,72,l),
(100,72,l),
(100,0,l)
);
}
);
userData = {
com.hugojourdan.ColorFlow = {
"0" = 0;
"1" = 0;
"10" = 0;
"11" = 0;
"2" = 0;
"3" = 0;
"4" = 0;
"5" = 0;
"6" = 0;
"7" = 0;
"8" = 0;
"9" = 0;
};
};
width = 505;
},
{
anchors = (
{
name = bottom;
pos = (243,0);
},
{
name = center;
pos = (243,340);
},
{
name = top;
pos = (116,680);
},
{
name = topright;
pos = (306,680);
}
);
color = 1;
layerId = m004;
shapes = (
{
closed = 1;
nodes = (
(196,0,l),
(196,680,l),
(36,680,l),
(36,0,l)
);
},
{
closed = 1;
nodes = (
(471,0,l),
(471,150,l),
(71,150,l),
(71,0,l)
);
}
);
userData = {
com.hugojourdan.ColorFlow = {
"0" = 0;
"1" = 0;
"10" = 0;
"11" = 0;
"2" = 0;
"3" = 0;
"4" = 0;
"5" = 0;
"6" = 0;
"7" = 0;
"8" = 0;
"9" = 0;
};
};
width = 486;
},
{
anchors = (
{
name = bottom;
pos = (258,0);
},
{
name = center;
pos = (258,340);
},
{
name = top;
pos = (120,680);
},
{
name = topright;
pos = (295,680);
}
);
associatedMasterId = m01;
color = 4;
layerId = "33891C58-D560-4C85-8920-F0F352ED4052";
name = "Jan 10, 23, 15:44";
shapes = (
{
closed = 1;
nodes = (
(160,0,l),
(160,680,l),
(80,680,l),
(80,0,l)
);
},
{
closed = 1;
nodes = (
(485,0,l),
(485,72,l),
(115,72,l),
(115,0,l)
);
}
);
userData = {
com.hugojourdan.ColorFlow = {
"0" = 0;
"1" = 0;
"10" = 0;
"11" = 0;
"2" = 0;
"3" = 0;
"4" = 0;
"5" = 0;
"6" = 0;
"7" = 0;
"8" = 0;
"9" = 0;
};
};
width = 525;
}
);
metricLeft = "=H";
unicode = 76;
},
{
glyphname = M;
kernLeft = H;
kernRight = H;
lastChange = "2023-01-13 05:07:47 +0000";
layers = (
{
anchors = (
{
name = bottom;
pos = (431,0);
},
{
name = top;
pos = (431,680);
}
);
color = 5;
hints = (
{
name = _corner.sharp;
options = 2;
origin = (0,1,0,3);
stem = 1000;
type = Corner;
},
{
name = _corner.sharp;
options = 2;
origin = (0,5,0,7);
stem = 1000;
type = Corner;
}
);
layerId = m01;
shapes = (
{
closed = 1;
nodes = (
(155,0,l),
(155,680,l),
(137,680,l),
(363,0,l),
(494,0,l),
(719,680,l),
(701,680,l),
(701,0,l),
(781,0,l),
(781,680,l),
(641,680,l),
(415,0,l),
(448,0,l),
(221,680,l),
(80,680,l),
(80,0,l)
);
}
);
userData = {
com.hugojourdan.ColorFlow = {
"0" = 0;
"1" = 0;
"10" = 0;
"11" = 0;
"2" = 0;
"3" = 0;
"4" = 0;
"5" = 0;
"6" = 0;
"7" = 0;
"8" = 0;
"9" = 0;
};
};
width = 861;
},
{
anchors = (
{
name = bottom;
pos = (474,0);
},
{
name = top;
pos = (474,680);
}
);
color = 4;
hints = (
{
name = _corner.sharp;
options = 2;
origin = (0,1,0,3);
stem = 1000;
type = Corner;
},
{
name = _corner.sharp;
options = 2;
origin = (0,5,0,7);
stem = 1000;
type = Corner;
}
);
layerId = "E8AFECA5-8081-4A12-B551-7349FD4DE2D2";
shapes = (
{
closed = 1;
nodes = (
(203,0,l),
(203,680,l),
(174,680,l),
(344,0,l),
(593,0,l),
(763,680,l),
(734,680,l),
(734,0,l),
(892,0,l),
(892,680,l),
(616,680,l),
(446,0,l),
(502,0,l),
(332,680,l),
(56,680,l),
(56,0,l)
);
}
);
userData = {
com.hugojourdan.ColorFlow = {
"0" = 0;
"1" = 0;
"10" = 0;
"11" = 0;
"2" = 0;
"3" = 0;
"4" = 0;
"5" = 0;
"6" = 0;
"7" = 0;
"8" = 0;
"9" = 0;
};
};
width = 948;
},
{
associatedMasterId = "E8AFECA5-8081-4A12-B551-7349FD4DE2D2";
layerId = "325210C4-C6BD-47D2-B83E-4FC2D1C18C23";
name = "Oct 24, 22, 10:17";
shapes = (
{
closed = 1;
nodes = (
(202,0,l),
(202,660,l),
(50,660,l),
(50,0,l)
);
},
{
closed = 1;
nodes = (
(506,0,l),
(326,660,l),
(168,660,l),
(348,0,l)
);
},
{
closed = 1;
nodes = (
(886,660,l),
(728,660,l),
(728,0,l),
(886,0,l)
);
},
{
closed = 1;
nodes = (
(762,660,l),
(610,660,l),
(430,0,l),
(582,0,l)
);
}
);
width = 936;
},
{
associatedMasterId = "E8AFECA5-8081-4A12-B551-7349FD4DE2D2";
layerId = "19CE4566-2E4F-451B-98ED-E414C2C18771";
name = "210";
shapes = (
{
closed = 1;
nodes = (
(202,0,l),
(202,660,l),
(50,660,l),
(50,0,l)
);
},
{
closed = 1;
nodes = (
(486,0,l),
(346,660,l),
(188,660,l),
(328,0,l)
);
},
{
closed = 1;
nodes = (
(886,660,l),
(728,660,l),
(728,0,l),
(886,0,l)
);
},
{
closed = 1;
nodes = (
(742,660,l),
(590,660,l),
(450,0,l),
(602,0,l)
);
}
);
width = 936;
},
{
associatedMasterId = m01;
layerId = "A8C1D5F4-18DA-44B2-8B18-452ED123F82B";
name = "212";
shapes = (
{
closed = 1;
nodes = (
(156,0,l),
(156,680,l),
(80,680,l),
(80,0,l)
);
},
{
closed = 1;
nodes = (
(466,0,l),
(221,680,l),
(139,680,l),
(383,0,l)
);
},
{
closed = 1;
nodes = (
(831,680,l),
(753,680,l),
(753,0,l),
(831,0,l)
);
},
{
closed = 1;
nodes = (
(770,680,l),
(690,680,l),
(445,0,l),
(526,0,l)
);
}
);
userData = {
com.hugojourdan.ColorFlow = {
"0" = 0;
"1" = 0;
"10" = 0;
"11" = 0;
"2" = 0;
"3" = 0;
"4" = 0;
"5" = 0;
"6" = 0;
"7" = 0;
"8" = 0;
"9" = 0;
};
};
width = 911;
},
{
anchors = (
{
name = bottom;
pos = (426,0);
},
{
name = top;
pos = (426,680);
}
);
color = 1;
hints = (
{
name = _corner.sharp;
options = 2;
origin = (0,1,0,3);
stem = 1000;
type = Corner;
},
{
name = _corner.sharp;
options = 2;
origin = (0,5,0,7);
stem = 1000;
type = Corner;
}
);
layerId = "C3EEC1F8-B65E-484C-ADEF-3AACC3987924";
shapes = (
{
closed = 1;
nodes = (
(143,0,l),
(143,680,l),
(121,680,l),
(360,0,l),
(491,0,l),
(730,680,l),
(708,680,l),
(708,0,l),
(786,0,l),
(786,680,l),
(652,680,l),
(412,0,l),
(443,0,l),
(203,680,l),
(65,680,l),
(65,0,l)
);
}
);
userData = {
com.hugojourdan.ColorFlow = {
"0" = 0;
"1" = 0;
"10" = 0;
"11" = 0;
"2" = 0;
"3" = 0;
"4" = 0;
"5" = 0;
"6" = 0;
"7" = 0;
"8" = 0;
"9" = 0;
};
};
width = 851;
},
{
anchors = (
{
name = bottom;
pos = (454,0);
},
{
name = top;
pos = (454,680);
}
);
color = 1;
hints = (
{
name = _corner.sharp;
options = 2;
origin = (0,1,0,3);
stem = 1000;
type = Corner;
},
{
name = _corner.sharp;
options = 2;
origin = (0,5,0,7);
stem = 1000;
type = Corner;
}
);
layerId = m004;
shapes = (
{
closed = 1;
nodes = (
(186,0,l),
(186,680,l),
(162,680,l),
(327,0,l),
(570,0,l),
(735,680,l),
(711,680,l),
(711,0,l),
(871,0,l),
(871,680,l),
(585,680,l),
(430,0,l),
(482,0,l),
(327,680,l),
(36,680,l),
(36,0,l)
);
}
);
userData = {
com.hugojourdan.ColorFlow = {
"0" = 0;
"1" = 0;
"10" = 0;
"11" = 0;
"2" = 0;
"3" = 0;
"4" = 0;
"5" = 0;
"6" = 0;
"7" = 0;
"8" = 0;
"9" = 0;
};
};
width = 907;
},
{
associatedMasterId = m01;
layerId = "9D1A385A-73D6-49E7-B8FB-D29B6B3CDA00";
name = "Nov 7, 22, 18:26";
shapes = (
{
closed = 1;
nodes = (
(156,0,l),
(156,680,l),
(80,680,l),
(80,0,l)
);
},
{
closed = 1;
nodes = (
(466,0,l),
(216,680,l),
(134,680,l),
(383,0,l)
);
},
{
closed = 1;
nodes = (
(821,680,l),
(743,680,l),
(743,0,l),
(821,0,l)
);
},
{
closed = 1;
nodes = (
(765,680,l),
(685,680,l),
(435,0,l),
(516,0,l)
);
}
);
userData = {
com.hugojourdan.ColorFlow = {
"0" = 0;
"1" = 0;
"10" = 0;
"11" = 0;
"2" = 0;
"3" = 0;
"4" = 0;
"5" = 0;
"6" = 0;
"7" = 0;
"8" = 0;
"9" = 0;
};
};
width = 901;
},
{
associatedMasterId = m01;
layerId = "F43ABC7A-F853-42A4-B814-B32AAF5E22C4";
name = "Nov 8, 22, 18:03";
shapes = (
{
closed = 1;
nodes = (
(156,0,l),
(156,680,l),
(80,680,l),
(80,0,l)
);
},
{
closed = 1;
nodes = (
(446,0,l),
(216,680,l),
(134,680,l),
(363,0,l)
);
},
{
closed = 1;
nodes = (
(781,680,l),
(703,680,l),
(703,0,l),
(781,0,l)
);
},
{
closed = 1;
nodes = (
(725,680,l),
(645,680,l),
(415,0,l),
(496,0,l)
);
}
);
userData = {
com.hugojourdan.ColorFlow = {
"0" = 0;
"1" = 0;
"10" = 0;
"11" = 0;
"2" = 0;
"3" = 0;
"4" = 0;
"5" = 0;
"6" = 0;
"7" = 0;
"8" = 0;
"9" = 0;
};
};
width = 861;
},
{
associatedMasterId = "E8AFECA5-8081-4A12-B551-7349FD4DE2D2";
layerId = "7F42BB63-4003-4764-A629-89BADAE1574C";
name = "Nov 8, 22, 18:03";
shapes = (
{
closed = 1;
nodes = (
(208,0,l),
(208,680,l),
(56,680,l),
(56,0,l)
);
},
{
closed = 1;
nodes = (
(492,0,l),
(352,680,l),
(194,680,l),
(334,0,l)
);
},
{
closed = 1;
nodes = (
(892,680,l),
(734,680,l),
(734,0,l),
(892,0,l)
);
},
{
closed = 1;
nodes = (
(748,680,l),
(596,680,l),
(456,0,l),
(608,0,l)
);
}
);
width = 948;
},
{
associatedMasterId = "C3EEC1F8-B65E-484C-ADEF-3AACC3987924";
layerId = "1D1CEA75-3892-445F-A5EE-5A6A373499EB";
name = "Nov 8, 22, 18:03";
shapes = (
{
closed = 1;
nodes = (
(141,0,l),
(141,680,l),
(65,680,l),
(65,0,l)
);
},
{
closed = 1;
nodes = (
(441,0,l),
(201,680,l),
(119,680,l),
(358,0,l)
);
},
{
closed = 1;
nodes = (
(786,680,l),
(708,680,l),
(708,0,l),
(786,0,l)
);
},
{
closed = 1;
nodes = (
(730,680,l),
(650,680,l),
(410,0,l),
(491,0,l)
);
}
);
width = 851;
},
{
associatedMasterId = m004;
layerId = "12CAFD89-2F27-4C84-8634-F95541F18B24";
name = "Nov 8, 22, 18:03";
shapes = (
{
closed = 1;
nodes = (
(190,0,l),
(190,680,l),
(36,680,l),
(36,0,l)
);
},
{
closed = 1;
nodes = (
(482,0,l),
(327,680,l),
(166,680,l),
(321,0,l)
);
},
{
closed = 1;
nodes = (
(871,680,l),
(711,680,l),
(711,0,l),
(871,0,l)
);
},
{
closed = 1;
nodes = (
(735,680,l),
(581,680,l),
(426,0,l),
(580,0,l)
);
}
);
width = 917;
},
{
anchors = (
{
name = bottom;
pos = (426,0);
},
{
name = top;
pos = (426,680);
}
);
associatedMasterId = "C3EEC1F8-B65E-484C-ADEF-3AACC3987924";
color = 0;
hints = (
{
name = _corner.sharp;
options = 2;
origin = (0,1,0,3);
stem = 1000;
type = Corner;
},
{
name = _corner.sharp;
options = 2;
origin = (0,5,0,7);
stem = 1000;
type = Corner;
}
);
layerId = "4CEBDC69-B50B-4A44-A453-7A855BE77FDE";
name = "Dec 1, 22, 16:16";
shapes = (
{
closed = 1;
nodes = (
(141,0,l),
(141,680,l),
(119,680,l),
(358,0,l),
(491,0,l),
(730,680,l),
(708,680,l),
(708,0,l),
(786,0,l),
(786,680,l),
(650,680,l),
(410,0,l),
(441,0,l),
(201,680,l),
(65,680,l),
(65,0,l)
);
}
);
userData = {
com.hugojourdan.ColorFlow = {
"0" = 0;
"1" = 0;
"10" = 0;
"11" = 0;
"2" = 0;
"3" = 0;
"4" = 0;
"5" = 0;
"6" = 0;
"7" = 0;
"8" = 0;
"9" = 0;
};
};
width = 851;
},
{
anchors = (
{
name = bottom;
pos = (454,0);
},
{
name = top;
pos = (454,680);
}
);
associatedMasterId = m004;
color = 0;
hints = (
{
name = _corner.sharp;
options = 2;
origin = (0,1,0,3);
stem = 1000;
type = Corner;
},
{
name = _corner.sharp;
options = 2;
origin = (0,5,0,7);
stem = 1000;
type = Corner;
}
);
layerId = "080E43EA-8623-41DA-A4F5-7EF31DED391E";
name = "Dec 1, 22, 17:42";
shapes = (
{
closed = 1;
nodes = (
(190,0,l),
(190,680,l),
(166,680,l),
(321,0,l),
(580,0,l),
(735,680,l),
(711,680,l),
(711,0,l),
(871,0,l),
(871,680,l),
(581,680,l),
(426,0,l),
(482,0,l),
(327,680,l),
(36,680,l),
(36,0,l)
);
}
);
userData = {
com.hugojourdan.ColorFlow = {
"0" = 0;
"1" = 0;
"10" = 0;
"11" = 0;
"2" = 0;
"3" = 0;
"4" = 0;
"5" = 0;
"6" = 0;
"7" = 0;
"8" = 0;
"9" = 0;
};
};
width = 907;
},
{
anchors = (
{
name = bottom;
pos = (474,0);
},
{
name = top;
pos = (474,680);
}
);
associatedMasterId = "E8AFECA5-8081-4A12-B551-7349FD4DE2D2";
color = 0;
hints = (
{
name = _corner.sharp;
options = 2;
origin = (0,1,0,3);
stem = 1000;
type = Corner;
},
{
name = _corner.sharp;
options = 2;
origin = (0,5,0,7);
stem = 1000;
type = Corner;
}
);
layerId = "B545F7F2-AE1B-412B-8996-743B01D598FA";
name = "Jan 7, 23, 12:59";
shapes = (
{
closed = 1;
nodes = (
(208,0,l),
(208,680,l),
(194,680,l),
(334,0,l),
(608,0,l),
(748,680,l),
(734,680,l),
(734,0,l),
(892,0,l),
(892,680,l),
(596,680,l),
(456,0,l),
(492,0,l),
(352,680,l),
(56,680,l),
(56,0,l)
);
}
);
userData = {
com.hugojourdan.ColorFlow = {
"0" = 0;
"1" = 0;
"10" = 0;
"11" = 0;
"2" = 0;
"3" = 0;
"4" = 0;
"5" = 0;
"6" = 0;
"7" = 0;
"8" = 0;
"9" = 0;
};
};
width = 948;
},
{
anchors = (
{
name = bottom;
pos = (431,0);
},
{
name = top;
pos = (431,680);
}
);
associatedMasterId = m01;
color = 4;
hints = (
{
name = _corner.sharp;
options = 2;
origin = (0,1,0,3);
stem = 1000;
type = Corner;
},
{
name = _corner.sharp;
options = 2;
origin = (0,5,0,7);
stem = 1000;
type = Corner;
}
);
layerId = "1EC6BBB3-9FFB-4551-BB0E-978F86DC768B";
name = "Jan 10, 23, 15:44";
shapes = (
{
closed = 1;
nodes = (
(156,0,l),
(156,680,l),
(134,680,l),
(363,0,l),
(496,0,l),
(725,680,l),
(703,680,l),
(703,0,l),
(781,0,l),
(781,680,l),
(645,680,l),
(415,0,l),
(446,0,l),
(216,680,l),
(80,680,l),
(80,0,l)
);
}
);
userData = {
com.hugojourdan.ColorFlow = {
"0" = 0;
"1" = 0;
"10" = 0;
"11" = 0;
"2" = 0;
"3" = 0;
"4" = 0;
"5" = 0;
"6" = 0;
"7" = 0;
"8" = 0;
"9" = 0;
};
};
width = 861;
}
);
metricLeft = "=H";
metricRight = "=H";
unicode = 77;
},
{
glyphname = N;
kernLeft = H;
kernRight = H;
lastChange = "2023-01-13 05:08:05 +0000";
layers = (
{
anchors = (
{
name = bottom;
pos = (350,0);
},
{
name = top;
pos = (350,680);
}
);
color = 5;
hints = (
{
name = _corner.sharp;
options = 2;
origin = (0,1,0,3);
stem = 1000;
type = Corner;
},
{
name = _corner.sharp;
options = 2;
origin = (0,7,0,9);
stem = 1000;
type = Corner;
}
);
layerId = m01;
shapes = (
{
closed = 1;
nodes = (
(157,0,l),
(157,680,l),
(122,680,l),
(486,0,l),
(620,0,l),
(620,680,l),
(543,680,l),
(543,0,l),
(579,0,l),
(214,680,l),
(80,680,l),
(80,0,l)
);
}
);
userData = {
com.hugojourdan.ColorFlow = {
"0" = 0;
"1" = 0;
"10" = 0;
"11" = 0;
"2" = 0;
"3" = 0;
"4" = 0;
"5" = 0;
"6" = 0;
"7" = 0;
"8" = 0;
"9" = 0;
};
};
width = 700;
},
{
anchors = (
{
name = bottom;
pos = (361,0);
},
{
name = top;
pos = (361,680);
}
);
color = 4;
hints = (
{
name = _corner.sharp;
options = 2;
origin = (0,1,0,3);
stem = 1000;
type = Corner;
},
{
name = _corner.sharp;
options = 2;
origin = (0,7,0,9);
stem = 1000;
type = Corner;
}
);
layerId = "E8AFECA5-8081-4A12-B551-7349FD4DE2D2";
shapes = (
{
closed = 1;
nodes = (
(201,0,l),
(201,680,l),
(157,680,l),
(397,0,l),
(666,0,l),
(666,680,l),
(521,680,l),
(521,0,l),
(565,0,l),
(325,680,l),
(56,680,l),
(56,0,l)
);
}
);
userData = {
com.hugojourdan.ColorFlow = {
"0" = 0;
"1" = 0;
"10" = 0;
"11" = 0;
"2" = 0;
"3" = 0;
"4" = 0;
"5" = 0;
"6" = 0;
"7" = 0;
"8" = 0;
"9" = 0;
};
};
width = 722;
},
{
associatedMasterId = "E8AFECA5-8081-4A12-B551-7349FD4DE2D2";
layerId = "9068D836-C458-4DB7-96AB-9C7E48379601";
name = "Oct 24, 22, 10:07";
shapes = (
{
closed = 1;
nodes = (
(202,0,l),
(202,660,l),
(50,660,l),
(50,0,l)
);
},
{
closed = 1;
nodes = (
(640,0,l),
(640,660,l),
(488,660,l),
(488,0,l)
);
},
{
closed = 1;
nodes = (
(522,0,l),
(322,660,l),
(168,660,l),
(368,0,l)
);
}
);
width = 690;
},
{
associatedMasterId = "E8AFECA5-8081-4A12-B551-7349FD4DE2D2";
layerId = "8C2A7CD7-21C9-4C97-8D83-29D8CEDD1F45";
name = "210";
shapes = (
{
closed = 1;
nodes = (
(198,0,l),
(198,660,l),
(50,660,l),
(50,0,l)
);
},
{
closed = 1;
nodes = (
(640,0,l),
(640,660,l),
(492,660,l),
(492,0,l)
);
},
{
closed = 1;
nodes = (
(516,0,l),
(336,660,l),
(174,660,l),
(354,0,l)
);
}
);
width = 690;
},
{
associatedMasterId = m01;
layerId = "E0C3EDBF-E918-48C1-930A-E0B6D587805F";
name = "212";
shapes = (
{
closed = 1;
nodes = (
(156,0,l),
(156,680,l),
(80,680,l),
(80,0,l)
);
},
{
closed = 1;
nodes = (
(630,0,l),
(630,680,l),
(554,680,l),
(554,0,l)
);
},
{
closed = 1;
nodes = (
(571,0,l),
(226,680,l),
(139,680,l),
(483,0,l)
);
}
);
userData = {
com.hugojourdan.ColorFlow = {
"0" = 0;
"1" = 0;
"10" = 0;
"11" = 0;
"2" = 0;
"3" = 0;
"4" = 0;
"5" = 0;
"6" = 0;
"7" = 0;
"8" = 0;
"9" = 0;
};
};
width = 710;
},
{
anchors = (
{
name = bottom;
pos = (345,0);
},
{
name = top;
pos = (345,680);
}
);
color = 1;
hints = (
{
name = _corner.sharp;
options = 2;
origin = (0,1,0,3);
stem = 1000;
type = Corner;
},
{
name = _corner.sharp;
options = 2;
origin = (0,7,0,9);
stem = 1000;
type = Corner;
}
);
layerId = "C3EEC1F8-B65E-484C-ADEF-3AACC3987924";
shapes = (
{
closed = 1;
nodes = (
(142,0,l),
(142,680,l),
(119,680,l),
(482,0,l),
(625,0,l),
(625,680,l),
(548,680,l),
(548,0,l),
(571,0,l),
(207,680,l),
(65,680,l),
(65,0,l)
);
}
);
userData = {
com.hugojourdan.ColorFlow = {
"0" = 0;
"1" = 0;
"10" = 0;
"11" = 0;
"2" = 0;
"3" = 0;
"4" = 0;
"5" = 0;
"6" = 0;
"7" = 0;
"8" = 0;
"9" = 0;
};
};
width = 690;
},
{
anchors = (
{
name = bottom;
pos = (350,0);
},
{
name = top;
pos = (350,680);
}
);
color = 1;
hints = (
{
name = _corner.sharp;
options = 2;
origin = (0,1,0,3);
stem = 1000;
type = Corner;
},
{
name = _corner.sharp;
options = 2;
origin = (0,7,0,9);
stem = 1000;
type = Corner;
}
);
layerId = m004;
shapes = (
{
closed = 1;
nodes = (
(189,0,l),
(189,680,l),
(152,680,l),
(381,0,l),
(664,0,l),
(664,680,l),
(511,680,l),
(511,0,l),
(548,0,l),
(319,680,l),
(36,680,l),
(36,0,l)
);
}
);
userData = {
com.hugojourdan.ColorFlow = {
"0" = 0;
"1" = 0;
"10" = 0;
"11" = 0;
"2" = 0;
"3" = 0;
"4" = 0;
"5" = 0;
"6" = 0;
"7" = 0;
"8" = 0;
"9" = 0;
};
};
width = 700;
},
{
associatedMasterId = m01;
layerId = "8E3AFCA2-92D7-4B0A-A97C-B2D51985E493";
name = "Nov 8, 22, 17:48";
shapes = (
{
closed = 1;
nodes = (
(156,0,l),
(156,680,l),
(80,680,l),
(80,0,l)
);
},
{
closed = 1;
nodes = (
(620,0,l),
(620,680,l),
(544,680,l),
(544,0,l)
);
},
{
closed = 1;
nodes = (
(566,0,l),
(221,680,l),
(134,680,l),
(478,0,l)
);
}
);
userData = {
com.hugojourdan.ColorFlow = {
"0" = 0;
"1" = 0;
"10" = 0;
"11" = 0;
"2" = 0;
"3" = 0;
"4" = 0;
"5" = 0;
"6" = 0;
"7" = 0;
"8" = 0;
"9" = 0;
};
};
width = 700;
},
{
associatedMasterId = "E8AFECA5-8081-4A12-B551-7349FD4DE2D2";
layerId = "745D8775-8586-4456-B7C7-528AFBFB4EFC";
name = "Nov 8, 22, 17:48";
shapes = (
{
closed = 1;
nodes = (
(204,0,l),
(204,680,l),
(56,680,l),
(56,0,l)
);
},
{
closed = 1;
nodes = (
(666,0,l),
(666,680,l),
(518,680,l),
(518,0,l)
);
},
{
closed = 1;
nodes = (
(542,0,l),
(342,680,l),
(180,680,l),
(380,0,l)
);
}
);
width = 722;
},
{
associatedMasterId = "C3EEC1F8-B65E-484C-ADEF-3AACC3987924";
layerId = "145AC011-AA80-430C-8813-DD3F6023F88E";
name = "Nov 8, 22, 17:48";
shapes = (
{
closed = 1;
nodes = (
(141,0,l),
(141,680,l),
(65,680,l),
(65,0,l)
);
},
{
closed = 1;
nodes = (
(625,0,l),
(625,680,l),
(549,680,l),
(549,0,l)
);
},
{
closed = 1;
nodes = (
(571,0,l),
(206,680,l),
(119,680,l),
(483,0,l)
);
}
);
width = 690;
},
{
associatedMasterId = m004;
layerId = "0C502590-7CAA-432A-B567-CCB23C498DFD";
name = "Nov 8, 22, 17:48";
shapes = (
{
closed = 1;
nodes = (
(189,0,l),
(189,680,l),
(36,680,l),
(36,0,l)
);
},
{
closed = 1;
nodes = (
(664,0,l),
(664,680,l),
(511,680,l),
(511,0,l)
);
},
{
closed = 1;
nodes = (
(548,0,l),
(319,680,l),
(152,680,l),
(381,0,l)
);
}
);
width = 700;
},
{
anchors = (
{
name = bottom;
pos = (345,0);
},
{
name = top;
pos = (345,680);
}
);
associatedMasterId = "C3EEC1F8-B65E-484C-ADEF-3AACC3987924";
color = 0;
hints = (
{
name = _corner.sharp;
options = 2;
origin = (0,1,0,3);
stem = 1000;
type = Corner;
},
{
name = _corner.sharp;
options = 2;
origin = (0,7,0,9);
stem = 1000;
type = Corner;
}
);
layerId = "F8DCCE87-B77B-4775-8EAD-D1A0FFA8E776";
name = "Dec 1, 22, 16:17";
shapes = (
{
closed = 1;
nodes = (
(141,0,l),
(141,680,l),
(119,680,l),
(483,0,l),
(625,0,l),
(625,680,l),
(549,680,l),
(549,0,l),
(571,0,l),
(206,680,l),
(65,680,l),
(65,0,l)
);
}
);
userData = {
com.hugojourdan.ColorFlow = {
"0" = 0;
"1" = 0;
"10" = 0;
"11" = 0;
"2" = 0;
"3" = 0;
"4" = 0;
"5" = 0;
"6" = 0;
"7" = 0;
"8" = 0;
"9" = 0;
};
};
width = 690;
},
{
anchors = (
{
name = bottom;
pos = (361,0);
},
{
name = top;
pos = (361,680);
}
);
associatedMasterId = "E8AFECA5-8081-4A12-B551-7349FD4DE2D2";
color = 0;
hints = (
{
name = _corner.sharp;
options = 2;
origin = (0,1,0,3);
stem = 1000;
type = Corner;
},
{
name = _corner.sharp;
options = 2;
origin = (0,7,0,9);
stem = 1000;
type = Corner;
}
);
layerId = "230592FF-1D99-4F62-970A-662646AE3AB0";
name = "Jan 7, 23, 12:58";
shapes = (
{
closed = 1;
nodes = (
(204,0,l),
(204,680,l),
(180,680,l),
(380,0,l),
(666,0,l),
(666,680,l),
(518,680,l),
(518,0,l),
(542,0,l),
(342,680,l),
(56,680,l),
(56,0,l)
);
}
);
userData = {
com.hugojourdan.ColorFlow = {
"0" = 0;
"1" = 0;
"10" = 0;
"11" = 0;
"2" = 0;
"3" = 0;
"4" = 0;
"5" = 0;
"6" = 0;
"7" = 0;
"8" = 0;
"9" = 0;
};
};
width = 722;
},
{
anchors = (
{
name = bottom;
pos = (350,0);
},
{
name = top;
pos = (350,680);
}
);
associatedMasterId = m01;
color = 0;
hints = (
{
name = _corner.sharp;
options = 2;
origin = (0,1,0,3);
stem = 1000;
type = Corner;
},
{
name = _corner.sharp;
options = 2;
origin = (0,7,0,9);
stem = 1000;
type = Corner;
}
);
layerId = "1781E0EB-4A8A-4441-B5B8-0ACB2325A875";
name = "Jan 7, 23, 18:15";
shapes = (
{
closed = 1;
nodes = (
(156,0,l),
(156,680,l),
(134,680,l),
(478,0,l),
(620,0,l),
(620,680,l),
(544,680,l),
(544,0,l),
(566,0,l),
(221,680,l),
(80,680,l),
(80,0,l)
);
}
);
userData = {
com.hugojourdan.ColorFlow = {
"0" = 0;
"1" = 0;
"10" = 0;
"11" = 0;
"2" = 0;
"3" = 0;
"4" = 0;
"5" = 0;
"6" = 0;
"7" = 0;
"8" = 0;
"9" = 0;
};
};
width = 700;
},
{
anchors = (
{
name = bottom;
pos = (350,0);
},
{
name = top;
pos = (350,680);
}
);
associatedMasterId = m01;
color = 4;
hints = (
{
name = _corner.sharp;
options = 2;
origin = (0,1,0,3);
stem = 1000;
type = Corner;
},
{
name = _corner.sharp;
options = 2;
origin = (0,7,0,9);
stem = 1000;
type = Corner;
}
);
layerId = "830B7B9E-9F1A-4BE8-8FC8-18C2ED5D801E";
name = "Jan 10, 23, 15:44";
shapes = (
{
closed = 1;
nodes = (
(156,0,l),
(156,680,l),
(124,680,l),
(488,0,l),
(620,0,l),
(620,680,l),
(544,680,l),
(544,0,l),
(576,0,l),
(211,680,l),
(80,680,l),
(80,0,l)
);
}
);
userData = {
com.hugojourdan.ColorFlow = {
"0" = 0;
"1" = 0;
"10" = 0;
"11" = 0;
"2" = 0;
"3" = 0;
"4" = 0;
"5" = 0;
"6" = 0;
"7" = 0;
"8" = 0;
"9" = 0;
};
};
width = 700;
}
);
metricLeft = "=H";
metricRight = "=H";
unicode = 78;
},
{
glyphname = O;
kernLeft = O;
kernRight = O;
lastChange = "2023-01-10 07:40:48 +0000";
layers = (
{
anchors = (
{
name = bottom;
pos = (343,0);
},
{
name = center;
pos = (343,340);
},
{
name = ogonek;
pos = (625,10);
},
{
name = top;
pos = (343,680);
},
{
name = topleft;
pos = (10,680);
},
{
name = topright;
pos = (676,680);
}
);
color = 5;
layerId = m01;
shapes = (
{
closed = 1;
nodes = (
(513,-10,o),
(635,121,o),
(635,340,cs),
(635,559,o),
(513,690,o),
(343,690,cs),
(173,690,o),
(51,559,o),
(51,340,cs),
(51,121,o),
(173,-10,o),
(343,-10,cs)
);
},
{
closed = 1;
nodes = (
(134,360,ls),
(134,524,o),
(214,617,o),
(343,617,cs),
(472,617,o),
(552,524,o),
(552,360,cs),
(552,320,ls),
(552,156,o),
(472,63,o),
(343,63,cs),
(214,63,o),
(134,156,o),
(134,320,cs)
);
}
);
userData = {
com.hugojourdan.ColorFlow = {
"0" = 0;
"1" = 0;
"10" = 0;
"11" = 0;
"2" = 0;
"3" = 0;
"4" = 0;
"5" = 0;
"6" = 0;
"7" = 0;
"8" = 0;
"9" = 0;
};
};
width = 686;
},
{
associatedMasterId = m01;
layerId = "D533E88A-CCEC-400C-A92C-F34A03CB2107";
name = "Oct 20, 22, 15:09";
shapes = (
{
closed = 1;
nodes = (
(533,-10,o),
(660,111,o),
(660,340,cs),
(660,569,o),
(533,690,o),
(358,690,cs),
(183,690,o),
(56,569,o),
(56,340,cs),
(56,111,o),
(183,-10,o),
(358,-10,cs)
);
},
{
closed = 1;
nodes = (
(138,380,ls),
(138,534,o),
(223,616,o),
(358,616,cs),
(493,616,o),
(578,534,o),
(578,380,cs),
(578,300,ls),
(578,146,o),
(493,64,o),
(358,64,cs),
(223,64,o),
(138,146,o),
(138,300,cs)
);
}
);
userData = {
com.hugojourdan.ColorFlow = {
"0" = 0;
"1" = 0;
"10" = 0;
"11" = 0;
"2" = 0;
"3" = 0;
"4" = 0;
"5" = 0;
"6" = 0;
"7" = 0;
"8" = 0;
"9" = 0;
};
};
width = 716;
},
{
associatedMasterId = m01;
layerId = "8BB268C9-5F00-49E3-8AAA-30B392164E64";
name = "Oct 20, 22, 17:14";
shapes = (
{
closed = 1;
nodes = (
(518,-10,o),
(640,111,o),
(640,340,cs),
(640,569,o),
(518,690,o),
(348,690,cs),
(178,690,o),
(56,569,o),
(56,340,cs),
(56,111,o),
(178,-10,o),
(348,-10,cs)
);
},
{
closed = 1;
nodes = (
(138,380,ls),
(138,534,o),
(219,616,o),
(348,616,cs),
(477,616,o),
(558,534,o),
(558,380,cs),
(558,300,ls),
(558,146,o),
(477,64,o),
(348,64,cs),
(219,64,o),
(138,146,o),
(138,300,cs)
);
}
);
userData = {
com.hugojourdan.ColorFlow = {
"0" = 0;
"1" = 0;
"10" = 0;
"11" = 0;
"2" = 0;
"3" = 0;
"4" = 0;
"5" = 0;
"6" = 0;
"7" = 0;
"8" = 0;
"9" = 0;
};
};
width = 696;
},
{
anchors = (
{
name = bottom;
pos = (346,0);
},
{
name = center;
pos = (346,340);
},
{
name = ogonek;
pos = (631,10);
},
{
name = top;
pos = (346,680);
},
{
name = topleft;
pos = (10,680);
},
{
name = topright;
pos = (682,680);
}
);
color = 4;
layerId = "E8AFECA5-8081-4A12-B551-7349FD4DE2D2";
shapes = (
{
closed = 1;
nodes = (
(530,-10,o),
(662,122,o),
(662,340,cs),
(662,558,o),
(530,690,o),
(346,690,cs),
(162,690,o),
(30,558,o),
(30,340,cs),
(30,122,o),
(162,-10,o),
(346,-10,cs)
);
},
{
closed = 1;
nodes = (
(196,360,ls),
(196,486,o),
(249,556,o),
(346,556,cs),
(443,556,o),
(496,486,o),
(496,360,cs),
(496,320,ls),
(496,194,o),
(443,124,o),
(346,124,cs),
(249,124,o),
(196,194,o),
(196,320,cs)
);
}
);
userData = {
com.hugojourdan.ColorFlow = {
"0" = 0;
"1" = 0;
"10" = 0;
"11" = 0;
"2" = 0;
"3" = 0;
"4" = 0;
"5" = 0;
"6" = 0;
"7" = 0;
"8" = 0;
"9" = 0;
};
};
width = 692;
},
{
associatedMasterId = "E8AFECA5-8081-4A12-B551-7349FD4DE2D2";
layerId = "8E81AFDC-F1C6-4B63-B9F8-8A4392680A5E";
name = "210";
shapes = (
{
closed = 1;
nodes = (
(540,-10,o),
(672,118,o),
(672,330,cs),
(672,542,o),
(540,670,o),
(356,670,cs),
(172,670,o),
(40,542,o),
(40,330,cs),
(40,118,o),
(172,-10,o),
(356,-10,cs)
);
},
{
closed = 1;
nodes = (
(206,350,ls),
(206,470,o),
(259,536,o),
(356,536,cs),
(453,536,o),
(506,470,o),
(506,350,cs),
(506,310,ls),
(506,190,o),
(453,124,o),
(356,124,cs),
(259,124,o),
(206,190,o),
(206,310,cs)
);
}
);
width = 712;
},
{
anchors = (
{
name = bottom;
pos = (352,0);
},
{
name = center;
pos = (352,340);
},
{
name = ogonek;
pos = (630,10);
},
{
name = top;
pos = (352,680);
},
{
name = topleft;
pos = (25,680);
},
{
name = topright;
pos = (679,680);
}
);
color = 1;
layerId = "C3EEC1F8-B65E-484C-ADEF-3AACC3987924";
shapes = (
{
closed = 1;
nodes = (
(536,-10,o),
(664,131,o),
(664,340,cs),
(664,549,o),
(536,690,o),
(352,690,cs),
(168,690,o),
(40,549,o),
(40,340,cs),
(40,131,o),
(168,-10,o),
(352,-10,cs)
);
},
{
closed = 1;
nodes = (
(122,360,ls),
(122,516,o),
(217,618,o),
(352,618,cs),
(487,618,o),
(582,516,o),
(582,360,cs),
(582,320,ls),
(582,164,o),
(487,62,o),
(352,62,cs),
(217,62,o),
(122,164,o),
(122,320,cs)
);
}
);
userData = {
com.hugojourdan.ColorFlow = {
"0" = 0;
"1" = 0;
"10" = 0;
"11" = 0;
"2" = 0;
"3" = 0;
"4" = 0;
"5" = 0;
"6" = 0;
"7" = 0;
"8" = 0;
"9" = 0;
};
};
width = 704;
},
{
anchors = (
{
name = bottom;
pos = (356,0);
},
{
name = center;
pos = (356,340);
},
{
name = ogonek;
pos = (641,10);
},
{
name = top;
pos = (356,680);
},
{
name = topleft;
pos = (20,680);
},
{
name = topright;
pos = (692,680);
}
);
color = 1;
layerId = m004;
shapes = (
{
closed = 1;
nodes = (
(546,-10,o),
(692,122,o),
(692,340,cs),
(692,558,o),
(546,690,o),
(356,690,cs),
(166,690,o),
(20,558,o),
(20,340,cs),
(20,122,o),
(166,-10,o),
(356,-10,cs)
);
},
{
closed = 1;
nodes = (
(186,350,ls),
(186,467,o),
(253,542,o),
(356,542,cs),
(459,542,o),
(526,467,o),
(526,350,cs),
(526,330,ls),
(526,213,o),
(459,138,o),
(356,138,cs),
(253,138,o),
(186,213,o),
(186,330,cs)
);
}
);
userData = {
com.hugojourdan.ColorFlow = {
"0" = 0;
"1" = 0;
"10" = 0;
"11" = 0;
"2" = 0;
"3" = 0;
"4" = 0;
"5" = 0;
"6" = 0;
"7" = 0;
"8" = 0;
"9" = 0;
};
};
width = 712;
},
{
anchors = (
{
name = bottom;
pos = (347,0);
},
{
name = center;
pos = (347,340);
},
{
name = ogonek;
pos = (625,10);
},
{
name = top;
pos = (347,680);
},
{
name = topleft;
pos = (20,680);
},
{
name = topright;
pos = (674,680);
}
);
associatedMasterId = "C3EEC1F8-B65E-484C-ADEF-3AACC3987924";
color = 0;
layerId = "D80B36E7-D5E4-4A48-9D86-0BC182915BDF";
name = "Dec 1, 22, 15:32";
shapes = (
{
closed = 1;
nodes = (
(523,-10,o),
(659,131,o),
(659,340,cs),
(659,549,o),
(523,690,o),
(347,690,cs),
(171,690,o),
(35,549,o),
(35,340,cs),
(35,131,o),
(171,-10,o),
(347,-10,cs)
);
},
{
closed = 1;
nodes = (
(117,360,ls),
(117,514,o),
(212,616,o),
(347,616,cs),
(482,616,o),
(577,514,o),
(577,360,cs),
(577,320,ls),
(577,166,o),
(482,64,o),
(347,64,cs),
(212,64,o),
(117,166,o),
(117,320,cs)
);
}
);
userData = {
com.hugojourdan.ColorFlow = {
"0" = 0;
"1" = 0;
"10" = 0;
"11" = 0;
"2" = 0;
"3" = 0;
"4" = 0;
"5" = 0;
"6" = 0;
"7" = 0;
"8" = 0;
"9" = 0;
};
};
width = 694;
},
{
anchors = (
{
name = bottom;
pos = (353,0);
},
{
name = center;
pos = (353,340);
},
{
name = ogonek;
pos = (635,10);
},
{
name = top;
pos = (353,680);
},
{
name = topleft;
pos = (20,680);
},
{
name = topright;
pos = (686,680);
}
);
associatedMasterId = m01;
color = 0;
layerId = "E2CADF66-9247-4570-ABC2-0E95059AF01B";
name = "Dec 6, 22, 14:29";
shapes = (
{
closed = 1;
nodes = (
(523,-10,o),
(645,131,o),
(645,340,cs),
(645,549,o),
(523,690,o),
(353,690,cs),
(183,690,o),
(61,549,o),
(61,340,cs),
(61,131,o),
(183,-10,o),
(353,-10,cs)
);
},
{
closed = 1;
nodes = (
(143,370,ls),
(143,524,o),
(224,616,o),
(353,616,cs),
(482,616,o),
(563,524,o),
(563,370,cs),
(563,310,ls),
(563,156,o),
(482,64,o),
(353,64,cs),
(224,64,o),
(143,156,o),
(143,310,cs)
);
}
);
userData = {
com.hugojourdan.ColorFlow = {
"0" = 0;
"1" = 0;
"10" = 0;
"11" = 0;
"2" = 0;
"3" = 0;
"4" = 0;
"5" = 0;
"6" = 0;
"7" = 0;
"8" = 0;
"9" = 0;
};
};
width = 706;
},
{
anchors = (
{
name = bottom;
pos = (346,0);
},
{
name = center;
pos = (346,340);
},
{
name = ogonek;
pos = (631,10);
},
{
name = top;
pos = (346,680);
},
{
name = topleft;
pos = (10,680);
},
{
name = topright;
pos = (682,680);
}
);
associatedMasterId = "E8AFECA5-8081-4A12-B551-7349FD4DE2D2";
color = 0;
layerId = "426FDA85-AD10-4362-8D53-F9EDF756B44A";
name = "Jan 7, 23, 18:10";
shapes = (
{
closed = 1;
nodes = (
(530,-10,o),
(662,122,o),
(662,340,cs),
(662,558,o),
(530,690,o),
(346,690,cs),
(162,690,o),
(30,558,o),
(30,340,cs),
(30,122,o),
(162,-10,o),
(346,-10,cs)
);
},
{
closed = 1;
nodes = (
(196,360,ls),
(196,486,o),
(249,556,o),
(346,556,cs),
(443,556,o),
(496,486,o),
(496,360,cs),
(496,320,ls),
(496,194,o),
(443,124,o),
(346,124,cs),
(249,124,o),
(196,194,o),
(196,320,cs)
);
}
);
userData = {
com.hugojourdan.ColorFlow = {
"0" = 0;
"1" = 0;
"10" = 0;
"11" = 0;
"2" = 0;
"3" = 0;
"4" = 0;
"5" = 0;
"6" = 0;
"7" = 0;
"8" = 0;
"9" = 0;
};
};
width = 692;
},
{
anchors = (
{
name = bottom;
pos = (343,0);
},
{
name = center;
pos = (343,340);
},
{
name = ogonek;
pos = (625,10);
},
{
name = top;
pos = (343,680);
},
{
name = topleft;
pos = (10,680);
},
{
name = topright;
pos = (676,680);
}
);
associatedMasterId = m01;
color = 1;
layerId = "46B805B5-0FB8-4D25-A291-A608A7074422";
name = "Jan 7, 23, 18:13";
shapes = (
{
closed = 1;
nodes = (
(513,-10,o),
(635,131,o),
(635,340,cs),
(635,549,o),
(513,690,o),
(343,690,cs),
(173,690,o),
(51,549,o),
(51,340,cs),
(51,131,o),
(173,-10,o),
(343,-10,cs)
);
},
{
closed = 1;
nodes = (
(133,370,ls),
(133,524,o),
(214,618,o),
(343,618,cs),
(472,618,o),
(553,524,o),
(553,370,cs),
(553,310,ls),
(553,156,o),
(472,62,o),
(343,62,cs),
(214,62,o),
(133,156,o),
(133,310,cs)
);
}
);
userData = {
com.hugojourdan.ColorFlow = {
"0" = 0;
"1" = 0;
"10" = 0;
"11" = 0;
"2" = 0;
"3" = 0;
"4" = 0;
"5" = 0;
"6" = 0;
"7" = 0;
"8" = 0;
"9" = 0;
};
};
width = 686;
},
{
anchors = (
{
name = bottom;
pos = (343,0);
},
{
name = center;
pos = (343,340);
},
{
name = ogonek;
pos = (625,10);
},
{
name = top;
pos = (343,680);
},
{
name = topleft;
pos = (10,680);
},
{
name = topright;
pos = (676,680);
}
);
associatedMasterId = m01;
color = 4;
layerId = "50CA9DE5-1B8B-4E6D-9A4D-528E4D98C691";
name = "Jan 10, 23, 15:40";
shapes = (
{
closed = 1;
nodes = (
(513,-10,o),
(635,121,o),
(635,340,cs),
(635,559,o),
(513,690,o),
(343,690,cs),
(173,690,o),
(51,559,o),
(51,340,cs),
(51,121,o),
(173,-10,o),
(343,-10,cs)
);
},
{
closed = 1;
nodes = (
(133,360,ls),
(133,524,o),
(214,618,o),
(343,618,cs),
(472,618,o),
(553,524,o),
(553,360,cs),
(553,320,ls),
(553,156,o),
(472,62,o),
(343,62,cs),
(214,62,o),
(133,156,o),
(133,320,cs)
);
}
);
userData = {
com.hugojourdan.ColorFlow = {
"0" = 0;
"1" = 0;
"10" = 0;
"11" = 0;
"2" = 0;
"3" = 0;
"4" = 0;
"5" = 0;
"6" = 0;
"7" = 0;
"8" = 0;
"9" = 0;
};
};
width = 686;
}
);
unicode = 79;
},
{
glyphname = Oslash;
lastChange = "2022-12-06 06:50:00 +0000";
layers = (
{
color = 0;
layerId = m01;
shapes = (
{
pos = (15,0);
ref = O;
},
{
closed = 1;
nodes = (
(51,0,l),
(129,0,l),
(685,680,l),
(607,680,l)
);
}
);
userData = {
com.hugojourdan.ColorFlow = {
"0" = 0;
"1" = 0;
"10" = 0;
"11" = 0;
"2" = 0;
"3" = 0;
"4" = 0;
"5" = 0;
"6" = 0;
"7" = 0;
"8" = 0;
"9" = 0;
};
};
width = 736;
},
{
color = 0;
layerId = "E8AFECA5-8081-4A12-B551-7349FD4DE2D2";
shapes = (
{
pos = (14,0);
ref = O;
},
{
closed = 1;
nodes = (
(30,0,l),
(180,0,l),
(710,680,l),
(560,680,l)
);
}
);
userData = {
com.hugojourdan.ColorFlow = {
"0" = 0;
"1" = 0;
"10" = 0;
"11" = 0;
"2" = 0;
"3" = 0;
"4" = 0;
"5" = 0;
"6" = 0;
"7" = 0;
"8" = 0;
"9" = 0;
};
};
width = 740;
},
{
color = 0;
layerId = "C3EEC1F8-B65E-484C-ADEF-3AACC3987924";
shapes = (
{
ref = O;
},
{
closed = 1;
nodes = (
(40,0,l),
(124,0,l),
(654,680,l),
(570,680,l)
);
}
);
userData = {
com.hugojourdan.ColorFlow = {
"0" = 0;
"1" = 0;
"10" = 0;
"11" = 0;
"2" = 0;
"3" = 0;
"4" = 0;
"5" = 0;
"6" = 0;
"7" = 0;
"8" = 0;
"9" = 0;
};
};
width = 704;
},
{
color = 0;
layerId = m004;
shapes = (
{
ref = O;
},
{
closed = 1;
nodes = (
(26,0,l),
(176,0,l),
(686,680,l),
(536,680,l)
);
}
);
userData = {
com.hugojourdan.ColorFlow = {
"0" = 0;
"1" = 0;
"10" = 0;
"11" = 0;
"2" = 0;
"3" = 0;
"4" = 0;
"5" = 0;
"6" = 0;
"7" = 0;
"8" = 0;
"9" = 0;
};
};
width = 712;
}
);
metricLeft = "=O";
metricRight = "=O";
unicode = 216;
},
{
glyphname = OE;
lastChange = "2022-12-06 06:50:00 +0000";
layers = (
{
anchors = (
{
name = bottom;
pos = (633,0);
},
{
name = top;
pos = (633,680);
}
);
color = 0;
layerId = m01;
shapes = (
{
closed = 1;
nodes = (
(506,-10,o),
(587,131,o),
(587,340,cs),
(587,549,o),
(506,690,o),
(339,690,cs),
(171,690,o),
(51,549,o),
(51,340,cs),
(51,131,o),
(171,-10,o),
(339,-10,cs)
);
},
{
closed = 1;
nodes = (
(133,370,ls),
(133,524,o),
(212,616,o),
(339,616,cs),
(466,616,o),
(545,524,o),
(545,370,cs),
(545,310,ls),
(545,156,o),
(466,64,o),
(339,64,cs),
(212,64,o),
(133,156,o),
(133,310,cs)
);
},
{
closed = 1;
nodes = (
(621,0,l),
(621,680,l),
(545,680,l),
(545,0,l)
);
},
{
closed = 1;
nodes = (
(940,314,l),
(940,386,l),
(580,386,l),
(580,314,l)
);
},
{
closed = 1;
nodes = (
(970,608,l),
(970,680,l),
(580,680,l),
(580,608,l)
);
},
{
closed = 1;
nodes = (
(970,0,l),
(970,72,l),
(580,72,l),
(580,0,l)
);
}
);
userData = {
com.hugojourdan.ColorFlow = {
"0" = 0;
"1" = 0;
"10" = 0;
"11" = 0;
"2" = 0;
"3" = 0;
"4" = 0;
"5" = 0;
"6" = 0;
"7" = 0;
"8" = 0;
"9" = 0;
};
};
width = 1030;
},
{
anchors = (
{
name = bottom;
pos = (517,0);
},
{
name = top;
pos = (517,680);
}
);
color = 0;
layerId = "E8AFECA5-8081-4A12-B551-7349FD4DE2D2";
shapes = (
{
closed = 1;
nodes = (
(505,-10,o),
(592,122,o),
(592,340,cs),
(592,558,o),
(505,690,o),
(331,690,cs),
(156,690,o),
(30,558,o),
(30,340,cs),
(30,122,o),
(156,-10,o),
(331,-10,cs)
);
},
{
closed = 1;
nodes = (
(196,360,ls),
(196,486,o),
(247,556,o),
(341,556,cs),
(435,556,o),
(486,486,o),
(486,360,cs),
(486,320,ls),
(486,194,o),
(435,124,o),
(341,124,cs),
(247,124,o),
(196,194,o),
(196,320,cs)
);
},
{
closed = 1;
nodes = (
(688,0,l),
(688,680,l),
(538,680,l),
(538,0,l)
);
},
{
closed = 1;
nodes = (
(973,279,l),
(973,411,l),
(573,411,l),
(573,279,l)
);
},
{
closed = 1;
nodes = (
(1003,543,l),
(1003,680,l),
(573,680,l),
(573,543,l)
);
},
{
closed = 1;
nodes = (
(1003,0,l),
(1003,137,l),
(573,137,l),
(573,0,l)
);
}
);
userData = {
com.hugojourdan.ColorFlow = {
"0" = 0;
"1" = 0;
"10" = 0;
"11" = 0;
"2" = 0;
"3" = 0;
"4" = 0;
"5" = 0;
"6" = 0;
"7" = 0;
"8" = 0;
"9" = 0;
};
};
width = 1043;
},
{
anchors = (
{
name = bottom;
pos = (536,0);
},
{
name = top;
pos = (536,680);
}
);
color = 0;
layerId = "C3EEC1F8-B65E-484C-ADEF-3AACC3987924";
shapes = (
{
closed = 1;
nodes = (
(523,-10,o),
(638,131,o),
(638,340,cs),
(638,549,o),
(523,690,o),
(349,690,cs),
(175,690,o),
(40,549,o),
(40,340,cs),
(40,131,o),
(175,-10,o),
(349,-10,cs)
);
},
{
closed = 1;
nodes = (
(122,360,ls),
(122,514,o),
(216,616,o),
(349,616,cs),
(482,616,o),
(576,514,o),
(576,360,cs),
(576,320,ls),
(576,166,o),
(482,64,o),
(349,64,cs),
(216,64,o),
(122,166,o),
(122,320,cs)
);
},
{
closed = 1;
nodes = (
(656,0,l),
(656,680,l),
(576,680,l),
(576,0,l)
);
},
{
closed = 1;
nodes = (
(981,314,l),
(981,386,l),
(611,386,l),
(611,314,l)
);
},
{
closed = 1;
nodes = (
(1011,608,l),
(1011,680,l),
(611,680,l),
(611,608,l)
);
},
{
closed = 1;
nodes = (
(1011,0,l),
(1011,72,l),
(611,72,l),
(611,0,l)
);
}
);
userData = {
com.hugojourdan.ColorFlow = {
"0" = 0;
"1" = 0;
"10" = 0;
"11" = 0;
"2" = 0;
"3" = 0;
"4" = 0;
"5" = 0;
"6" = 0;
"7" = 0;
"8" = 0;
"9" = 0;
};
};
width = 1059;
},
{
anchors = (
{
name = bottom;
pos = (511,0);
},
{
name = top;
pos = (511,680);
}
);
color = 0;
layerId = m004;
shapes = (
{
closed = 1;
nodes = (
(521,-10,o),
(632,122,o),
(632,340,cs),
(632,558,o),
(521,690,o),
(341,690,cs),
(159,690,o),
(20,558,o),
(20,340,cs),
(20,122,o),
(159,-10,o),
(341,-10,cs)
);
},
{
closed = 1;
nodes = (
(186,350,ls),
(186,467,o),
(251,542,o),
(351,542,cs),
(451,542,o),
(516,467,o),
(516,350,cs),
(516,330,ls),
(516,213,o),
(451,138,o),
(351,138,cs),
(251,138,o),
(186,213,o),
(186,330,cs)
);
},
{
closed = 1;
nodes = (
(688,0,l),
(688,680,l),
(538,680,l),
(538,0,l)
);
},
{
closed = 1;
nodes = (
(973,275,l),
(973,415,l),
(573,415,l),
(573,275,l)
);
},
{
closed = 1;
nodes = (
(993,532,l),
(993,680,l),
(573,680,l),
(573,532,l)
);
},
{
closed = 1;
nodes = (
(993,0,l),
(993,148,l),
(573,148,l),
(573,0,l)
);
}
);
userData = {
com.hugojourdan.ColorFlow = {
"0" = 0;
"1" = 0;
"10" = 0;
"11" = 0;
"2" = 0;
"3" = 0;
"4" = 0;
"5" = 0;
"6" = 0;
"7" = 0;
"8" = 0;
"9" = 0;
};
};
width = 1021;
},
{
anchors = (
{
name = bottom;
pos = (356,0);
},
{
name = center;
pos = (356,340);
},
{
name = ogonek;
pos = (641,10);
},
{
name = top;
pos = (356,680);
},
{
name = topleft;
pos = (20,680);
},
{
name = topright;
pos = (692,680);
}
);
associatedMasterId = m004;
layerId = "5B7D6D11-C45B-49C2-B82C-C6F377FC54A3";
name = "Nov 16, 22, 15:42";
shapes = (
{
closed = 1;
nodes = (
(546,-10,o),
(692,122,o),
(692,340,cs),
(692,558,o),
(546,690,o),
(356,690,cs),
(166,690,o),
(20,558,o),
(20,340,cs),
(20,122,o),
(166,-10,o),
(356,-10,cs)
);
},
{
closed = 1;
nodes = (
(186,350,ls),
(186,467,o),
(253,542,o),
(356,542,cs),
(459,542,o),
(526,467,o),
(526,350,cs),
(526,330,ls),
(526,213,o),
(459,138,o),
(356,138,cs),
(253,138,o),
(186,213,o),
(186,330,cs)
);
},
{
closed = 1;
nodes = (
(708,0,l),
(708,680,l),
(548,680,l),
(548,0,l)
);
},
{
closed = 1;
nodes = (
(993,275,l),
(993,415,l),
(583,415,l),
(583,275,l)
);
},
{
closed = 1;
nodes = (
(1013,532,l),
(1013,680,l),
(583,680,l),
(583,532,l)
);
},
{
closed = 1;
nodes = (
(1013,0,l),
(1013,148,l),
(583,148,l),
(583,0,l)
);
}
);
width = 1261;
},
{
anchors = (
{
name = bottom;
pos = (347,0);
},
{
name = center;
pos = (347,340);
},
{
name = ogonek;
pos = (625,10);
},
{
name = top;
pos = (347,680);
},
{
name = topleft;
pos = (20,680);
},
{
name = topright;
pos = (674,680);
}
);
associatedMasterId = "C3EEC1F8-B65E-484C-ADEF-3AACC3987924";
layerId = "A3D2691D-2392-47FA-AC3A-8EAEAE6A097F";
name = "Nov 16, 22, 15:44";
shapes = (
{
closed = 1;
nodes = (
(523,-10,o),
(659,131,o),
(659,340,cs),
(659,549,o),
(523,690,o),
(347,690,cs),
(171,690,o),
(35,549,o),
(35,340,cs),
(35,131,o),
(171,-10,o),
(347,-10,cs)
);
},
{
closed = 1;
nodes = (
(117,360,ls),
(117,514,o),
(212,616,o),
(347,616,cs),
(482,616,o),
(577,514,o),
(577,360,cs),
(577,320,ls),
(577,166,o),
(482,64,o),
(347,64,cs),
(212,64,o),
(117,166,o),
(117,320,cs)
);
},
{
closed = 1;
nodes = (
(657,0,l),
(657,680,l),
(577,680,l),
(577,0,l)
);
},
{
closed = 1;
nodes = (
(1002,314,l),
(1002,386,l),
(612,386,l),
(612,314,l)
);
},
{
closed = 1;
nodes = (
(1032,608,l),
(1032,680,l),
(612,680,l),
(612,608,l)
);
},
{
closed = 1;
nodes = (
(1032,0,l),
(1032,72,l),
(612,72,l),
(612,0,l)
);
}
);
width = 1269;
}
);
metricLeft = "=O";
metricRight = "=E";
unicode = 338;
},
{
glyphname = P;
kernLeft = H;
kernRight = P;
lastChange = "2023-01-13 03:07:21 +0000";
layers = (
{
anchors = (
{
name = bottom;
pos = (295,0);
},
{
name = top;
pos = (295,680);
}
);
color = 5;
layerId = m01;
shapes = (
{
closed = 1;
nodes = (
(161,0,l),
(161,680,l),
(80,680,l),
(80,0,l)
);
},
{
closed = 1;
nodes = (
(305,262,ls),
(444,262,o),
(537,343,o),
(537,471,cs),
(537,599,o),
(444,680,o),
(305,680,cs),
(115,680,l),
(115,607,l),
(305,607,ls),
(395,607,o),
(454,560,o),
(454,476,cs),
(454,466,ls),
(454,382,o),
(395,335,o),
(305,335,cs),
(115,335,l),
(115,262,l)
);
}
);
userData = {
com.hugojourdan.ColorFlow = {
"0" = 0;
"1" = 0;
"10" = 0;
"11" = 0;
"2" = 0;
"3" = 0;
"4" = 0;
"5" = 0;
"6" = 0;
"7" = 0;
"8" = 0;
"9" = 0;
};
};
width = 570;
},
{
associatedMasterId = m01;
layerId = "1749D784-020B-47B9-AED9-4B434B893057";
name = "Oct 20, 22, 17:22";
shapes = (
{
closed = 1;
nodes = (
(155,0,l),
(155,680,l),
(75,680,l),
(75,0,l)
);
},
{
closed = 1;
nodes = (
(330,262,ls),
(459,262,o),
(552,340,o),
(552,471,cs),
(552,602,o),
(459,680,o),
(330,680,cs),
(110,680,l),
(110,608,l),
(330,608,ls),
(420,608,o),
(470,565,o),
(470,481,cs),
(470,461,ls),
(470,377,o),
(420,334,o),
(330,334,cs),
(110,334,l),
(110,262,l)
);
}
);
userData = {
com.hugojourdan.ColorFlow = {
"0" = 0;
"1" = 0;
"10" = 0;
"11" = 0;
"2" = 0;
"3" = 0;
"4" = 0;
"5" = 0;
"6" = 0;
"7" = 0;
"8" = 0;
"9" = 0;
};
};
width = 600;
},
{
anchors = (
{
name = bottom;
pos = (299,0);
},
{
name = top;
pos = (299,680);
}
);
color = 4;
layerId = "E8AFECA5-8081-4A12-B551-7349FD4DE2D2";
shapes = (
{
closed = 1;
nodes = (
(216,0,l),
(216,680,l),
(56,680,l),
(56,0,l)
);
},
{
closed = 1;
nodes = (
(326,212,ls),
(480,212,o),
(583,303,o),
(583,446,cs),
(583,589,o),
(480,680,o),
(326,680,cs),
(91,680,l),
(91,548,l),
(312,548,ls),
(375,548,o),
(417,514,o),
(417,451,cs),
(417,441,ls),
(417,378,o),
(375,344,o),
(312,344,cs),
(91,344,l),
(91,212,l)
);
}
);
userData = {
com.hugojourdan.ColorFlow = {
"0" = 0;
"1" = 0;
"10" = 0;
"11" = 0;
"2" = 0;
"3" = 0;
"4" = 0;
"5" = 0;
"6" = 0;
"7" = 0;
"8" = 0;
"9" = 0;
};
};
width = 598;
},
{
associatedMasterId = "E8AFECA5-8081-4A12-B551-7349FD4DE2D2";
layerId = "49FD458A-E028-4F62-8613-CC0E13CC5538";
name = "210";
shapes = (
{
closed = 1;
nodes = (
(210,0,l),
(210,660,l),
(50,660,l),
(50,0,l)
);
},
{
closed = 1;
nodes = (
(325,202,ls),
(476,202,o),
(577,291,o),
(577,431,cs),
(577,571,o),
(476,660,o),
(325,660,cs),
(85,660,l),
(85,528,l),
(321,528,ls),
(381,528,o),
(411,496,o),
(411,441,cs),
(411,421,ls),
(411,366,o),
(381,334,o),
(321,334,cs),
(85,334,l),
(85,202,l)
);
}
);
width = 592;
},
{
anchors = (
{
name = bottom;
pos = (282,0);
},
{
name = top;
pos = (282,680);
}
);
color = 1;
layerId = "C3EEC1F8-B65E-484C-ADEF-3AACC3987924";
shapes = (
{
closed = 1;
nodes = (
(145,0,l),
(145,680,l),
(65,680,l),
(65,0,l)
);
},
{
closed = 1;
nodes = (
(305,272,ls),
(439,272,o),
(532,348,o),
(532,476,cs),
(532,604,o),
(439,680,o),
(305,680,cs),
(100,680,l),
(100,608,l),
(300,608,ls),
(400,608,o),
(450,557,o),
(450,481,cs),
(450,471,ls),
(450,395,o),
(400,344,o),
(300,344,cs),
(100,344,l),
(100,272,l)
);
}
);
userData = {
com.hugojourdan.ColorFlow = {
"0" = 0;
"1" = 0;
"10" = 0;
"11" = 0;
"2" = 0;
"3" = 0;
"4" = 0;
"5" = 0;
"6" = 0;
"7" = 0;
"8" = 0;
"9" = 0;
};
};
width = 563;
},
{
anchors = (
{
name = bottom;
pos = (285,0);
},
{
name = top;
pos = (285,680);
}
);
color = 0;
layerId = m004;
shapes = (
{
closed = 1;
nodes = (
(196,0,l),
(196,680,l),
(36,680,l),
(36,0,l)
);
},
{
closed = 1;
nodes = (
(296,208,ls),
(453,208,o),
(558,300,o),
(558,444,cs),
(558,588,o),
(453,680,o),
(296,680,cs),
(71,680,l),
(71,538,l),
(292,538,ls),
(358,538,o),
(392,502,o),
(392,449,cs),
(392,439,ls),
(392,386,o),
(358,350,o),
(292,350,cs),
(71,350,l),
(71,208,l)
);
}
);
userData = {
com.hugojourdan.ColorFlow = {
"0" = 0;
"1" = 0;
"10" = 0;
"11" = 0;
"2" = 0;
"3" = 0;
"4" = 0;
"5" = 0;
"6" = 0;
"7" = 0;
"8" = 0;
"9" = 0;
};
};
width = 570;
},
{
associatedMasterId = "C3EEC1F8-B65E-484C-ADEF-3AACC3987924";
layerId = "C6CD9933-9EB2-4BA1-9C91-4582A093FF00";
name = "Nov 7, 22, 18:33";
shapes = (
{
closed = 1;
nodes = (
(130,0,l),
(130,680,l),
(50,680,l),
(50,0,l)
);
},
{
closed = 1;
nodes = (
(305,262,ls),
(444,262,o),
(537,343,o),
(537,471,cs),
(537,599,o),
(444,680,o),
(305,680,cs),
(85,680,l),
(85,608,l),
(305,608,ls),
(405,608,o),
(455,555,o),
(455,476,cs),
(455,466,ls),
(455,387,o),
(405,334,o),
(305,334,cs),
(85,334,l),
(85,262,l)
);
}
);
width = 553;
},
{
anchors = (
{
name = bottom;
pos = (282,0);
},
{
name = top;
pos = (282,680);
}
);
associatedMasterId = "C3EEC1F8-B65E-484C-ADEF-3AACC3987924";
color = 0;
layerId = "6495FC34-C525-4CC9-8A52-D3C6E9914915";
name = "Dec 1, 22, 15:41";
shapes = (
{
closed = 1;
nodes = (
(145,0,l),
(145,680,l),
(65,680,l),
(65,0,l)
);
},
{
closed = 1;
nodes = (
(300,272,ls),
(439,272,o),
(532,351,o),
(532,476,cs),
(532,601,o),
(439,680,o),
(300,680,cs),
(100,680,l),
(100,608,l),
(300,608,ls),
(400,608,o),
(450,557,o),
(450,481,cs),
(450,471,ls),
(450,395,o),
(400,344,o),
(300,344,cs),
(100,344,l),
(100,272,l)
);
}
);
userData = {
com.hugojourdan.ColorFlow = {
"0" = 0;
"1" = 0;
"10" = 0;
"11" = 0;
"2" = 0;
"3" = 0;
"4" = 0;
"5" = 0;
"6" = 0;
"7" = 0;
"8" = 0;
"9" = 0;
};
};
width = 563;
},
{
anchors = (
{
name = bottom;
pos = (299,0);
},
{
name = top;
pos = (299,680);
}
);
associatedMasterId = "E8AFECA5-8081-4A12-B551-7349FD4DE2D2";
color = 0;
layerId = "1890E51F-5587-4E77-93AA-EAC0F52E25DF";
name = "Jan 7, 23, 18:12";
shapes = (
{
closed = 1;
nodes = (
(216,0,l),
(216,680,l),
(56,680,l),
(56,0,l)
);
},
{
closed = 1;
nodes = (
(326,212,ls),
(480,212,o),
(583,303,o),
(583,446,cs),
(583,589,o),
(480,680,o),
(326,680,cs),
(91,680,l),
(91,548,l),
(322,548,ls),
(385,548,o),
(417,514,o),
(417,456,cs),
(417,436,ls),
(417,378,o),
(385,344,o),
(322,344,cs),
(91,344,l),
(91,212,l)
);
}
);
userData = {
com.hugojourdan.ColorFlow = {
"0" = 0;
"1" = 0;
"10" = 0;
"11" = 0;
"2" = 0;
"3" = 0;
"4" = 0;
"5" = 0;
"6" = 0;
"7" = 0;
"8" = 0;
"9" = 0;
};
};
width = 598;
},
{
anchors = (
{
name = bottom;
pos = (295,0);
},
{
name = top;
pos = (295,680);
}
);
associatedMasterId = m01;
color = 0;
layerId = "E618B0A0-4DE2-4AC0-8AE1-6D01DFCEA937";
name = "Jan 7, 23, 18:13";
shapes = (
{
closed = 1;
nodes = (
(160,0,l),
(160,680,l),
(80,680,l),
(80,0,l)
);
},
{
closed = 1;
nodes = (
(325,262,ls),
(464,262,o),
(557,343,o),
(557,471,cs),
(557,599,o),
(464,680,o),
(325,680,cs),
(115,680,l),
(115,608,l),
(325,608,ls),
(425,608,o),
(475,560,o),
(475,481,cs),
(475,461,ls),
(475,382,o),
(425,334,o),
(325,334,cs),
(115,334,l),
(115,262,l)
);
}
);
userData = {
com.hugojourdan.ColorFlow = {
"0" = 0;
"1" = 0;
"10" = 0;
"11" = 0;
"2" = 0;
"3" = 0;
"4" = 0;
"5" = 0;
"6" = 0;
"7" = 0;
"8" = 0;
"9" = 0;
};
};
width = 590;
},
{
anchors = (
{
name = bottom;
pos = (295,0);
},
{
name = top;
pos = (295,680);
}
);
associatedMasterId = m01;
color = 4;
layerId = "1F570B9C-567B-4207-8E1E-7657E5A09305";
name = "Jan 10, 23, 15:44";
shapes = (
{
closed = 1;
nodes = (
(160,0,l),
(160,680,l),
(80,680,l),
(80,0,l)
);
},
{
closed = 1;
nodes = (
(325,262,ls),
(464,262,o),
(557,343,o),
(557,471,cs),
(557,599,o),
(464,680,o),
(325,680,cs),
(115,680,l),
(115,608,l),
(325,608,ls),
(415,608,o),
(475,560,o),
(475,476,cs),
(475,466,ls),
(475,382,o),
(415,334,o),
(325,334,cs),
(115,334,l),
(115,262,l)
);
}
);
userData = {
com.hugojourdan.ColorFlow = {
"0" = 0;
"1" = 0;
"10" = 0;
"11" = 0;
"2" = 0;
"3" = 0;
"4" = 0;
"5" = 0;
"6" = 0;
"7" = 0;
"8" = 0;
"9" = 0;
};
};
width = 590;
},
{
anchors = (
{
name = bottom;
pos = (295,0);
},
{
name = top;
pos = (295,680);
}
);
associatedMasterId = m01;
color = 5;
layerId = "2AC1FC2A-2E08-49DB-AAF9-FD12CBAC9EA8";
name = "Jan 13, 23, 11:07";
shapes = (
{
closed = 1;
nodes = (
(161,0,l),
(161,680,l),
(80,680,l),
(80,0,l)
);
},
{
closed = 1;
nodes = (
(325,262,ls),
(464,262,o),
(557,343,o),
(557,471,cs),
(557,599,o),
(464,680,o),
(325,680,cs),
(115,680,l),
(115,607,l),
(325,607,ls),
(415,607,o),
(474,560,o),
(474,476,cs),
(474,466,ls),
(474,382,o),
(415,335,o),
(325,335,cs),
(115,335,l),
(115,262,l)
);
}
);
userData = {
com.hugojourdan.ColorFlow = {
"0" = 0;
"1" = 0;
"10" = 0;
"11" = 0;
"2" = 0;
"3" = 0;
"4" = 0;
"5" = 0;
"6" = 0;
"7" = 0;
"8" = 0;
"9" = 0;
};
};
width = 590;
}
);
metricLeft = "=H";
unicode = 80;
},
{
glyphname = Thorn;
lastChange = "2022-12-01 07:00:43 +0000";
layers = (
{
anchors = (
{
name = bottom;
pos = (120,0);
},
{
name = top;
pos = (120,680);
}
);
color = 0;
layerId = m01;
shapes = (
{
closed = 1;
nodes = (
(160,0,l),
(160,680,l),
(80,680,l),
(80,0,l)
);
},
{
closed = 1;
nodes = (
(325,141,ls),
(464,141,o),
(557,222,o),
(557,350,cs),
(557,478,o),
(464,559,o),
(325,559,cs),
(115,559,l),
(115,487,l),
(325,487,ls),
(425,487,o),
(475,439,o),
(475,360,cs),
(475,340,ls),
(475,261,o),
(425,213,o),
(325,213,cs),
(115,213,l),
(115,141,l)
);
}
);
userData = {
com.hugojourdan.ColorFlow = {
"0" = 0;
"1" = 0;
"10" = 0;
"11" = 0;
"2" = 0;
"3" = 0;
"4" = 0;
"5" = 0;
"6" = 0;
"7" = 0;
"8" = 0;
"9" = 0;
};
};
width = 590;
},
{
anchors = (
{
name = bottom;
pos = (136,0);
},
{
name = top;
pos = (136,680);
}
);
color = 0;
layerId = "E8AFECA5-8081-4A12-B551-7349FD4DE2D2";
shapes = (
{
closed = 1;
nodes = (
(216,0,l),
(216,680,l),
(56,680,l),
(56,0,l)
);
},
{
closed = 1;
nodes = (
(326,116,ls),
(480,116,o),
(583,207,o),
(583,350,cs),
(583,493,o),
(480,584,o),
(326,584,cs),
(91,584,l),
(91,452,l),
(322,452,ls),
(385,452,o),
(417,418,o),
(417,360,cs),
(417,340,ls),
(417,282,o),
(385,248,o),
(322,248,cs),
(91,248,l),
(91,116,l)
);
}
);
userData = {
com.hugojourdan.ColorFlow = {
"0" = 0;
"1" = 0;
"10" = 0;
"11" = 0;
"2" = 0;
"3" = 0;
"4" = 0;
"5" = 0;
"6" = 0;
"7" = 0;
"8" = 0;
"9" = 0;
};
};
width = 598;
},
{
anchors = (
{
name = bottom;
pos = (105,0);
},
{
name = top;
pos = (105,680);
}
);
color = 0;
layerId = "C3EEC1F8-B65E-484C-ADEF-3AACC3987924";
shapes = (
{
closed = 1;
nodes = (
(145,0,l),
(145,680,l),
(65,680,l),
(65,0,l)
);
},
{
closed = 1;
nodes = (
(300,146,ls),
(439,146,o),
(532,225,o),
(532,350,cs),
(532,475,o),
(439,554,o),
(300,554,cs),
(100,554,l),
(100,482,l),
(300,482,ls),
(400,482,o),
(450,431,o),
(450,355,cs),
(450,345,ls),
(450,269,o),
(400,218,o),
(300,218,cs),
(100,218,l),
(100,146,l)
);
}
);
userData = {
com.hugojourdan.ColorFlow = {
"0" = 0;
"1" = 0;
"10" = 0;
"11" = 0;
"2" = 0;
"3" = 0;
"4" = 0;
"5" = 0;
"6" = 0;
"7" = 0;
"8" = 0;
"9" = 0;
};
};
width = 563;
},
{
anchors = (
{
name = bottom;
pos = (116,0);
},
{
name = top;
pos = (116,680);
}
);
color = 0;
layerId = m004;
shapes = (
{
closed = 1;
nodes = (
(196,0,l),
(196,680,l),
(36,680,l),
(36,0,l)
);
},
{
closed = 1;
nodes = (
(296,114,ls),
(453,114,o),
(558,206,o),
(558,350,cs),
(558,494,o),
(453,586,o),
(296,586,cs),
(71,586,l),
(71,444,l),
(292,444,ls),
(358,444,o),
(392,408,o),
(392,355,cs),
(392,345,ls),
(392,292,o),
(358,256,o),
(292,256,cs),
(71,256,l),
(71,114,l)
);
}
);
userData = {
com.hugojourdan.ColorFlow = {
"0" = 0;
"1" = 0;
"10" = 0;
"11" = 0;
"2" = 0;
"3" = 0;
"4" = 0;
"5" = 0;
"6" = 0;
"7" = 0;
"8" = 0;
"9" = 0;
};
};
width = 570;
}
);
metricLeft = "=P";
metricRight = "=P";
unicode = 222;
},
{
glyphname = Q;
kernLeft = O;
kernRight = O;
lastChange = "2023-01-13 04:00:48 +0000";
layers = (
{
anchors = (
{
name = bottom;
pos = (353,0);
},
{
name = top;
pos = (353,680);
}
);
color = 5;
layerId = m01;
shapes = (
{
closed = 1;
nodes = (
(615,-127,l),
(615,-58,l),
(335,-8,l),
(335,-75,l)
);
},
{
ref = O;
}
);
userData = {
com.hugojourdan.ColorFlow = {
"0" = 0;
"1" = 0;
"10" = 0;
"11" = 0;
"2" = 0;
"3" = 0;
"4" = 0;
"5" = 0;
"6" = 0;
"7" = 0;
"8" = 0;
"9" = 0;
};
};
width = 686;
},
{
associatedMasterId = m01;
layerId = "B0F2E1B7-0C53-40DD-9521-5BEAECECD5DF";
name = "Oct 21, 22, 13:40";
shapes = (
{
ref = O;
},
{
closed = 1;
nodes = (
(615,-127,l),
(615,-54,l),
(335,-4,l),
(335,-75,l)
);
}
);
userData = {
com.hugojourdan.ColorFlow = {
"0" = 0;
"1" = 0;
"10" = 0;
"11" = 0;
"2" = 0;
"3" = 0;
"4" = 0;
"5" = 0;
"6" = 0;
"7" = 0;
"8" = 0;
"9" = 0;
};
};
width = 706;
},
{
anchors = (
{
name = bottom;
pos = (356,0);
},
{
name = top;
pos = (356,680);
}
);
color = 0;
layerId = "E8AFECA5-8081-4A12-B551-7349FD4DE2D2";
shapes = (
{
closed = 1;
nodes = (
(615,-167,l),
(615,-24,l),
(335,6,l),
(335,-135,l)
);
},
{
ref = O;
}
);
userData = {
com.hugojourdan.ColorFlow = {
"0" = 0;
"1" = 0;
"10" = 0;
"11" = 0;
"2" = 0;
"3" = 0;
"4" = 0;
"5" = 0;
"6" = 0;
"7" = 0;
"8" = 0;
"9" = 0;
};
};
width = 692;
},
{
anchors = (
{
name = bottom;
pos = (347,0);
},
{
name = top;
pos = (347,680);
}
);
color = 0;
layerId = "C3EEC1F8-B65E-484C-ADEF-3AACC3987924";
shapes = (
{
closed = 1;
nodes = (
(630,-117,l),
(630,-44,l),
(340,-8,l),
(340,-79,l)
);
},
{
ref = O;
}
);
userData = {
com.hugojourdan.ColorFlow = {
"0" = 0;
"1" = 0;
"10" = 0;
"11" = 0;
"2" = 0;
"3" = 0;
"4" = 0;
"5" = 0;
"6" = 0;
"7" = 0;
"8" = 0;
"9" = 0;
};
};
width = 704;
},
{
anchors = (
{
name = bottom;
pos = (356,0);
},
{
name = top;
pos = (356,680);
}
);
color = 0;
layerId = m004;
shapes = (
{
closed = 1;
nodes = (
(645,-167,l),
(645,-24,l),
(345,6,l),
(345,-135,l)
);
},
{
ref = O;
}
);
userData = {
com.hugojourdan.ColorFlow = {
"0" = 0;
"1" = 0;
"10" = 0;
"11" = 0;
"2" = 0;
"3" = 0;
"4" = 0;
"5" = 0;
"6" = 0;
"7" = 0;
"8" = 0;
"9" = 0;
};
};
width = 712;
},
{
anchors = (
{
name = bottom;
pos = (353,0);
},
{
name = top;
pos = (353,680);
}
);
associatedMasterId = m01;
color = 5;
layerId = "8FA318AD-C01F-454D-95DA-6FF9AE07326D";
name = "Jan 13, 23, 12:00";
shapes = (
{
closed = 1;
nodes = (
(615,-127,l),
(615,-54,l),
(335,-4,l),
(335,-75,l)
);
},
{
ref = O;
}
);
userData = {
com.hugojourdan.ColorFlow = {
"0" = 0;
"1" = 0;
"10" = 0;
"11" = 0;
"2" = 0;
"3" = 0;
"4" = 0;
"5" = 0;
"6" = 0;
"7" = 0;
"8" = 0;
"9" = 0;
};
};
width = 686;
}
);
metricLeft = "=O";
metricRight = "=O";
unicode = 81;
},
{
glyphname = R;
kernLeft = H;
kernRight = R;
lastChange = "2023-01-10 07:45:32 +0000";
layers = (
{
anchors = (
{
name = bottom;
pos = (315,0);
},
{
name = top;
pos = (315,680);
}
);
color = 5;
layerId = m01;
shapes = (
{
closed = 1;
nodes = (
(303,272,l),
(335,272,l),
(464,272,o),
(557,350,o),
(557,476,cs),
(557,602,o),
(464,680,o),
(335,680,cs),
(115,680,l),
(115,607,l),
(335,607,ls),
(415,607,o),
(474,565,o),
(474,481,cs),
(474,471,ls),
(474,387,o),
(415,345,o),
(335,345,cs),
(115,345,l),
(115,272,l)
);
},
{
closed = 1;
nodes = (
(161,0,l),
(161,680,l),
(80,680,l),
(80,0,l)
);
},
{
closed = 1;
nodes = (
(570,0,l),
(348,310,l),
(258,310,l),
(470,0,l)
);
}
);
userData = {
com.hugojourdan.ColorFlow = {
"0" = 0;
"1" = 0;
"10" = 0;
"11" = 0;
"2" = 0;
"3" = 0;
"4" = 0;
"5" = 0;
"6" = 0;
"7" = 0;
"8" = 0;
"9" = 0;
};
};
width = 612;
},
{
associatedMasterId = m01;
layerId = "97A9C2A5-50C9-437A-8F06-0B9D78B7F078";
name = "Oct 20, 22, 17:22";
shapes = (
{
closed = 1;
nodes = (
(155,0,l),
(155,680,l),
(75,680,l),
(75,0,l)
);
},
{
closed = 1;
nodes = (
(330,272,ls),
(459,272,o),
(552,345,o),
(552,476,cs),
(552,607,o),
(459,680,o),
(330,680,cs),
(110,680,l),
(110,608,l),
(330,608,ls),
(420,608,o),
(470,570,o),
(470,486,cs),
(470,466,ls),
(470,382,o),
(420,344,o),
(330,344,cs),
(110,344,l),
(110,272,l)
);
},
{
closed = 1;
nodes = (
(565,0,l),
(330,310,l),
(242,310,l),
(464,0,l)
);
}
);
userData = {
com.hugojourdan.ColorFlow = {
"0" = 0;
"1" = 0;
"10" = 0;
"11" = 0;
"2" = 0;
"3" = 0;
"4" = 0;
"5" = 0;
"6" = 0;
"7" = 0;
"8" = 0;
"9" = 0;
};
};
width = 600;
},
{
anchors = (
{
name = bottom;
pos = (303,0);
},
{
name = top;
pos = (303,680);
}
);
color = 4;
layerId = "E8AFECA5-8081-4A12-B551-7349FD4DE2D2";
shapes = (
{
closed = 1;
nodes = (
(315,232,l),
(331,232,l),
(479,232,o),
(578,319,o),
(578,456,cs),
(578,593,o),
(479,680,o),
(321,680,cs),
(91,680,l),
(91,548,l),
(307,548,ls),
(374,548,o),
(412,511,o),
(412,456,cs),
(412,446,ls),
(412,391,o),
(374,354,o),
(307,354,cs),
(91,354,l),
(91,232,l)
);
},
{
closed = 1;
nodes = (
(216,0,l),
(216,680,l),
(56,680,l),
(56,0,l)
);
},
{
closed = 1;
nodes = (
(601,0,l),
(436,280,l),
(273,280,l),
(413,0,l)
);
}
);
userData = {
com.hugojourdan.ColorFlow = {
"0" = 0;
"1" = 0;
"10" = 0;
"11" = 0;
"2" = 0;
"3" = 0;
"4" = 0;
"5" = 0;
"6" = 0;
"7" = 0;
"8" = 0;
"9" = 0;
};
};
width = 606;
},
{
associatedMasterId = "E8AFECA5-8081-4A12-B551-7349FD4DE2D2";
layerId = "7270F524-4B8F-403F-9F3C-4E11045A7B15";
name = "210";
shapes = (
{
closed = 1;
nodes = (
(325,222,ls),
(473,222,o),
(572,307,o),
(572,441,cs),
(572,575,o),
(473,660,o),
(325,660,cs),
(85,660,l),
(85,528,l),
(321,528,ls),
(378,528,o),
(406,498,o),
(406,446,cs),
(406,426,ls),
(406,374,o),
(378,344,o),
(321,344,cs),
(85,344,l),
(85,222,l)
);
},
{
closed = 1;
nodes = (
(210,0,l),
(210,660,l),
(50,660,l),
(50,0,l)
);
},
{
closed = 1;
nodes = (
(595,0,l),
(430,270,l),
(262,270,l),
(402,0,l)
);
}
);
width = 600;
},
{
anchors = (
{
name = bottom;
pos = (300,0);
},
{
name = top;
pos = (300,680);
}
);
color = 1;
layerId = "C3EEC1F8-B65E-484C-ADEF-3AACC3987924";
shapes = (
{
closed = 1;
nodes = (
(275,284,l),
(311,284,l),
(440,284,o),
(532,356,o),
(532,481,cs),
(532,606,o),
(440,680,o),
(311,680,cs),
(100,680,l),
(100,608,l),
(306,608,ls),
(396,608,o),
(450,562,o),
(450,486,cs),
(450,476,ls),
(450,400,o),
(396,354,o),
(306,354,cs),
(100,354,l),
(100,284,l)
);
},
{
closed = 1;
nodes = (
(145,0,l),
(145,680,l),
(65,680,l),
(65,0,l)
);
},
{
closed = 1;
nodes = (
(545,0,l),
(296,320,l),
(207,320,l),
(446,0,l)
);
}
);
userData = {
com.hugojourdan.ColorFlow = {
"0" = 0;
"1" = 0;
"10" = 0;
"11" = 0;
"2" = 0;
"3" = 0;
"4" = 0;
"5" = 0;
"6" = 0;
"7" = 0;
"8" = 0;
"9" = 0;
};
};
width = 569;
},
{
anchors = (
{
name = bottom;
pos = (288,0);
},
{
name = top;
pos = (288,680);
}
);
color = 1;
layerId = m004;
shapes = (
{
closed = 1;
nodes = (
(262,233,l),
(290,233,l),
(447,233,o),
(552,312,o),
(552,454,cs),
(552,591,o),
(453,680,o),
(295,680,cs),
(71,680,l),
(71,538,l),
(286,538,ls),
(352,538,o),
(386,505,o),
(386,457,cs),
(386,447,ls),
(386,399,o),
(352,366,o),
(286,366,cs),
(71,366,l),
(71,233,l)
);
},
{
closed = 1;
nodes = (
(196,0,l),
(196,680,l),
(36,680,l),
(36,0,l)
);
},
{
closed = 1;
nodes = (
(580,0,l),
(383,280,l),
(218,280,l),
(387,0,l)
);
}
);
userData = {
com.hugojourdan.ColorFlow = {
"0" = 0;
"1" = 0;
"10" = 0;
"11" = 0;
"2" = 0;
"3" = 0;
"4" = 0;
"5" = 0;
"6" = 0;
"7" = 0;
"8" = 0;
"9" = 0;
};
};
width = 575;
},
{
associatedMasterId = m01;
layerId = "40BBC077-75B7-48B1-BBF7-EE9800BE1C98";
name = "Nov 10, 22, 10:10";
shapes = (
{
closed = 1;
nodes = (
(335,272,ls),
(464,272,o),
(557,350,o),
(557,476,cs),
(557,602,o),
(464,680,o),
(335,680,cs),
(115,680,l),
(115,608,l),
(335,608,ls),
(425,608,o),
(475,565,o),
(475,486,cs),
(475,466,ls),
(475,387,o),
(425,344,o),
(335,344,cs),
(115,344,l),
(115,272,l)
);
},
{
closed = 1;
nodes = (
(160,0,l),
(160,680,l),
(80,680,l),
(80,0,l)
);
},
{
closed = 1;
nodes = (
(570,0,l),
(335,310,l),
(247,310,l),
(469,0,l)
);
}
);
userData = {
com.hugojourdan.ColorFlow = {
"0" = 0;
"1" = 0;
"10" = 0;
"11" = 0;
"2" = 0;
"3" = 0;
"4" = 0;
"5" = 0;
"6" = 0;
"7" = 0;
"8" = 0;
"9" = 0;
};
};
width = 630;
},
{
associatedMasterId = "C3EEC1F8-B65E-484C-ADEF-3AACC3987924";
layerId = "65924B41-4F1F-4F12-A924-04AEF954F2B5";
name = "Nov 10, 22, 10:10";
shapes = (
{
closed = 1;
nodes = (
(310,282,ls),
(439,282,o),
(532,358,o),
(532,481,cs),
(532,604,o),
(439,680,o),
(310,680,cs),
(100,680,l),
(100,608,l),
(310,608,ls),
(400,608,o),
(450,562,o),
(450,486,cs),
(450,476,ls),
(450,400,o),
(400,354,o),
(310,354,cs),
(100,354,l),
(100,282,l)
);
},
{
closed = 1;
nodes = (
(145,0,l),
(145,680,l),
(65,680,l),
(65,0,l)
);
},
{
closed = 1;
nodes = (
(545,0,l),
(310,320,l),
(222,320,l),
(444,0,l)
);
}
);
width = 600;
},
{
associatedMasterId = m004;
layerId = "D9688859-4C51-485C-A00B-BB80D3573DC0";
name = "Nov 10, 22, 10:11";
shapes = (
{
closed = 1;
nodes = (
(290,230,ls),
(447,230,o),
(552,317,o),
(552,452,cs),
(552,591,o),
(447,680,o),
(290,680,cs),
(71,680,l),
(71,538,l),
(286,538,ls),
(352,538,o),
(386,505,o),
(386,457,cs),
(386,447,ls),
(386,399,o),
(352,366,o),
(286,366,cs),
(71,366,l),
(71,230,l)
);
},
{
closed = 1;
nodes = (
(196,0,l),
(196,680,l),
(36,680,l),
(36,0,l)
);
},
{
closed = 1;
nodes = (
(570,0,l),
(413,280,l),
(243,280,l),
(385,0,l)
);
}
);
width = 575;
},
{
anchors = (
{
name = bottom;
pos = (300,0);
},
{
name = top;
pos = (300,680);
}
);
associatedMasterId = "C3EEC1F8-B65E-484C-ADEF-3AACC3987924";
color = 0;
layerId = "A470EE84-38EA-4F06-9191-BB44C927DEFA";
name = "Dec 1, 22, 15:42";
shapes = (
{
closed = 1;
nodes = (
(310,282,ls),
(439,282,o),
(532,358,o),
(532,481,cs),
(532,604,o),
(439,680,o),
(310,680,cs),
(100,680,l),
(100,608,l),
(310,608,ls),
(400,608,o),
(450,562,o),
(450,486,cs),
(450,476,ls),
(450,400,o),
(400,354,o),
(310,354,cs),
(100,354,l),
(100,282,l)
);
},
{
closed = 1;
nodes = (
(145,0,l),
(145,680,l),
(65,680,l),
(65,0,l)
);
},
{
closed = 1;
nodes = (
(545,0,l),
(293,320,l),
(202,320,l),
(444,0,l)
);
}
);
userData = {
com.hugojourdan.ColorFlow = {
"0" = 0;
"1" = 0;
"10" = 0;
"11" = 0;
"2" = 0;
"3" = 0;
"4" = 0;
"5" = 0;
"6" = 0;
"7" = 0;
"8" = 0;
"9" = 0;
};
};
width = 600;
},
{
anchors = (
{
name = bottom;
pos = (288,0);
},
{
name = top;
pos = (288,680);
}
);
associatedMasterId = m004;
color = 0;
layerId = "56C1EE31-7717-4AD7-A89A-4EA32394C9B8";
name = "Dec 1, 22, 17:45";
shapes = (
{
closed = 1;
nodes = (
(262,233,l),
(290,233,l),
(447,233,o),
(552,312,o),
(552,454,cs),
(552,591,o),
(453,680,o),
(295,680,cs),
(71,680,l),
(71,538,l),
(286,538,ls),
(352,538,o),
(386,505,o),
(386,457,cs),
(386,447,ls),
(386,399,o),
(352,366,o),
(286,366,cs),
(71,366,l),
(71,233,l)
);
},
{
closed = 1;
nodes = (
(196,0,l),
(196,680,l),
(36,680,l),
(36,0,l)
);
},
{
closed = 1;
nodes = (
(575,0,l),
(378,280,l),
(203,280,l),
(385,0,l)
);
}
);
userData = {
com.hugojourdan.ColorFlow = {
"0" = 0;
"1" = 0;
"10" = 0;
"11" = 0;
"2" = 0;
"3" = 0;
"4" = 0;
"5" = 0;
"6" = 0;
"7" = 0;
"8" = 0;
"9" = 0;
};
};
width = 575;
},
{
anchors = (
{
name = bottom;
pos = (303,0);
},
{
name = top;
pos = (303,680);
}
);
associatedMasterId = "E8AFECA5-8081-4A12-B551-7349FD4DE2D2";
color = 0;
layerId = "187AD59C-A39A-4826-A4FB-5A217992D72B";
name = "Jan 7, 23, 18:11";
shapes = (
{
closed = 1;
nodes = (
(315,232,l),
(331,232,l),
(479,232,o),
(578,319,o),
(578,456,cs),
(578,593,o),
(479,680,o),
(321,680,cs),
(91,680,l),
(91,548,l),
(317,548,ls),
(384,548,o),
(412,516,o),
(412,461,cs),
(412,441,ls),
(412,386,o),
(384,354,o),
(317,354,cs),
(91,354,l),
(91,232,l)
);
},
{
closed = 1;
nodes = (
(216,0,l),
(216,680,l),
(56,680,l),
(56,0,l)
);
},
{
closed = 1;
nodes = (
(601,0,l),
(436,280,l),
(273,280,l),
(413,0,l)
);
}
);
userData = {
com.hugojourdan.ColorFlow = {
"0" = 0;
"1" = 0;
"10" = 0;
"11" = 0;
"2" = 0;
"3" = 0;
"4" = 0;
"5" = 0;
"6" = 0;
"7" = 0;
"8" = 0;
"9" = 0;
};
};
width = 606;
},
{
anchors = (
{
name = bottom;
pos = (315,0);
},
{
name = top;
pos = (315,680);
}
);
associatedMasterId = m01;
color = 0;
layerId = "4DFD557B-48CA-4AF2-A38E-8732BF11CEA0";
name = "Jan 7, 23, 18:13";
shapes = (
{
closed = 1;
nodes = (
(303,272,l),
(335,272,l),
(464,272,o),
(557,350,o),
(557,476,cs),
(557,602,o),
(464,680,o),
(335,680,cs),
(115,680,l),
(115,608,l),
(335,608,ls),
(425,608,o),
(475,565,o),
(475,486,cs),
(475,466,ls),
(475,387,o),
(425,344,o),
(335,344,cs),
(115,344,l),
(115,272,l)
);
},
{
closed = 1;
nodes = (
(160,0,l),
(160,680,l),
(80,680,l),
(80,0,l)
);
},
{
closed = 1;
nodes = (
(570,0,l),
(335,310,l),
(247,310,l),
(469,0,l)
);
}
);
userData = {
com.hugojourdan.ColorFlow = {
"0" = 0;
"1" = 0;
"10" = 0;
"11" = 0;
"2" = 0;
"3" = 0;
"4" = 0;
"5" = 0;
"6" = 0;
"7" = 0;
"8" = 0;
"9" = 0;
};
};
width = 612;
},
{
anchors = (
{
name = bottom;
pos = (315,0);
},
{
name = top;
pos = (315,680);
}
);
associatedMasterId = m01;
color = 4;
layerId = "703B0642-40A9-41B8-906B-F0E88203D48C";
name = "Jan 10, 23, 14:56";
shapes = (
{
closed = 1;
nodes = (
(303,272,l),
(335,272,l),
(464,272,o),
(557,350,o),
(557,476,cs),
(557,602,o),
(464,680,o),
(335,680,cs),
(115,680,l),
(115,608,l),
(335,608,ls),
(415,608,o),
(475,565,o),
(475,481,cs),
(475,471,ls),
(475,387,o),
(415,344,o),
(335,344,cs),
(115,344,l),
(115,272,l)
);
},
{
closed = 1;
nodes = (
(160,0,l),
(160,680,l),
(80,680,l),
(80,0,l)
);
},
{
closed = 1;
nodes = (
(570,0,l),
(335,310,l),
(247,310,l),
(469,0,l)
);
}
);
userData = {
com.hugojourdan.ColorFlow = {
"0" = 0;
"1" = 0;
"10" = 0;
"11" = 0;
"2" = 0;
"3" = 0;
"4" = 0;
"5" = 0;
"6" = 0;
"7" = 0;
"8" = 0;
"9" = 0;
};
};
width = 612;
},
{
anchors = (
{
name = bottom;
pos = (315,0);
},
{
name = top;
pos = (315,680);
}
);
associatedMasterId = m01;
color = 4;
layerId = "4A68AF07-BA24-4752-8386-FF56A223B96E";
name = "Jan 10, 23, 15:45";
shapes = (
{
closed = 1;
nodes = (
(303,272,l),
(335,272,l),
(464,272,o),
(557,350,o),
(557,476,cs),
(557,602,o),
(464,680,o),
(335,680,cs),
(115,680,l),
(115,608,l),
(335,608,ls),
(415,608,o),
(475,565,o),
(475,481,cs),
(475,471,ls),
(475,387,o),
(415,344,o),
(335,344,cs),
(115,344,l),
(115,272,l)
);
},
{
closed = 1;
nodes = (
(160,0,l),
(160,680,l),
(80,680,l),
(80,0,l)
);
},
{
closed = 1;
nodes = (
(570,0,l),
(345,310,l),
(258,310,l),
(470,0,l)
);
}
);
userData = {
com.hugojourdan.ColorFlow = {
"0" = 0;
"1" = 0;
"10" = 0;
"11" = 0;
"2" = 0;
"3" = 0;
"4" = 0;
"5" = 0;
"6" = 0;
"7" = 0;
"8" = 0;
"9" = 0;
};
};
width = 612;
}
);
metricLeft = "=H";
unicode = 82;
},
{
glyphname = S;
kernLeft = S;
kernRight = S;
lastChange = "2023-01-10 07:56:30 +0000";
layers = (
{
anchors = (
{
name = bottom;
pos = (309,0);
},
{
name = top;
pos = (309,680);
}
);
color = 5;
layerId = m01;
shapes = (
{
closed = 1;
nodes = (
(352,286,ls),
(421,267,o),
(462,242,o),
(462,175,cs),
(462,102,o),
(411,62,o),
(314,62,cs),
(191,62,o),
(148,128,o),
(145,200,c),
(64,200,l),
(72,91,o),
(147,-10,o),
(310,-10,cs),
(451,-10,o),
(544,64,o),
(544,181,cs),
(544,287,o),
(465,340,o),
(370,366,cs),
(266,394,ls),
(199,412,o),
(156,438,o),
(156,505,cs),
(156,578,o),
(207,618,o),
(304,618,cs),
(427,618,o),
(470,552,o),
(473,480,c),
(554,480,l),
(546,589,o),
(471,690,o),
(310,690,cs),
(170,690,o),
(74,616,o),
(74,499,cs),
(74,393,o),
(153,340,o),
(248,314,cs)
);
}
);
userData = {
com.hugojourdan.ColorFlow = {
"0" = 0;
"1" = 0;
"10" = 0;
"11" = 0;
"2" = 0;
"3" = 0;
"4" = 0;
"5" = 0;
"6" = 0;
"7" = 0;
"8" = 0;
"9" = 0;
};
};
width = 618;
},
{
associatedMasterId = m01;
layerId = "14AB1C82-59BC-4AAD-BC0F-13631D6C1E28";
name = "Oct 12, 22, 12:48";
shapes = (
{
closed = 1;
nodes = (
(294,290,ls),
(363,271,o),
(406,240,o),
(406,173,cs),
(406,104,o),
(358,54,o),
(254,54,cs),
(123,54,o),
(89,130,o),
(86,200,c),
(6,200,l),
(14,101,o),
(89,-10,o),
(254,-10,cs),
(390,-10,o),
(486,69,o),
(486,181,cs),
(486,281,o),
(407,334,o),
(312,361,cs),
(208,390,ls),
(141,409,o),
(96,440,o),
(96,507,cs),
(96,576,o),
(144,626,o),
(248,626,cs),
(379,626,o),
(413,550,o),
(416,480,c),
(496,480,l),
(488,579,o),
(413,690,o),
(248,690,cs),
(112,690,o),
(16,611,o),
(16,499,cs),
(16,399,o),
(95,346,o),
(190,319,cs)
);
}
);
width = 600;
},
{
associatedMasterId = m01;
layerId = "17B4B199-DAD1-4533-87ED-B718E1C9F637";
name = "Oct 21, 22, 13:47";
shapes = (
{
closed = 1;
nodes = (
(358,287,ls),
(427,268,o),
(470,242,o),
(470,173,cs),
(470,102,o),
(422,60,o),
(318,60,cs),
(187,60,o),
(153,128,o),
(150,200,c),
(70,200,l),
(78,101,o),
(153,-10,o),
(318,-10,cs),
(454,-10,o),
(550,69,o),
(550,181,cs),
(550,283,o),
(471,337,o),
(376,364,cs),
(272,393,ls),
(205,412,o),
(160,438,o),
(160,507,cs),
(160,578,o),
(208,620,o),
(312,620,cs),
(443,620,o),
(477,552,o),
(480,480,c),
(560,480,l),
(552,579,o),
(477,690,o),
(312,690,cs),
(176,690,o),
(80,611,o),
(80,499,cs),
(80,397,o),
(159,343,o),
(254,316,cs)
);
}
);
userData = {
com.hugojourdan.ColorFlow = {
"0" = 0;
"1" = 0;
"10" = 0;
"11" = 0;
"2" = 0;
"3" = 0;
"4" = 0;
"5" = 0;
"6" = 0;
"7" = 0;
"8" = 0;
"9" = 0;
};
};
width = 630;
},
{
anchors = (
{
name = bottom;
pos = (306,0);
},
{
name = top;
pos = (306,680);
}
);
color = 0;
layerId = "E8AFECA5-8081-4A12-B551-7349FD4DE2D2";
shapes = (
{
closed = 1;
nodes = (
(330,253,ls),
(387,239,o),
(409,217,o),
(409,186,cs),
(409,146,o),
(370,122,o),
(313,122,cs),
(229,122,o),
(194,174,o),
(190,230,c),
(26,230,l),
(35,107,o),
(110,-10,o),
(309,-10,cs),
(465,-10,o),
(576,62,o),
(576,205,cs),
(576,316,o),
(504,374,o),
(370,406,cs),
(282,427,ls),
(225,441,o),
(203,463,o),
(203,494,cs),
(203,534,o),
(242,558,o),
(299,558,cs),
(383,558,o),
(418,506,o),
(422,450,c),
(586,450,l),
(577,573,o),
(502,690,o),
(303,690,cs),
(147,690,o),
(36,618,o),
(36,475,cs),
(36,364,o),
(110,306,o),
(243,274,cs)
);
}
);
userData = {
com.hugojourdan.ColorFlow = {
"0" = 0;
"1" = 0;
"10" = 0;
"11" = 0;
"2" = 0;
"3" = 0;
"4" = 0;
"5" = 0;
"6" = 0;
"7" = 0;
"8" = 0;
"9" = 0;
};
};
width = 612;
},
{
associatedMasterId = "E8AFECA5-8081-4A12-B551-7349FD4DE2D2";
layerId = "96200074-14C6-4F7C-A818-ABC4B46D3667";
name = "210";
shapes = (
{
closed = 1;
nodes = (
(344,243,ls),
(401,229,o),
(423,207,o),
(423,176,cs),
(423,136,o),
(384,112,o),
(327,112,cs),
(243,112,o),
(208,164,o),
(204,220,c),
(40,220,l),
(49,102,o),
(124,-10,o),
(323,-10,cs),
(479,-10,o),
(590,59,o),
(590,195,cs),
(590,306,o),
(518,364,o),
(384,396,cs),
(296,417,ls),
(239,431,o),
(217,453,o),
(217,484,cs),
(217,524,o),
(256,548,o),
(313,548,cs),
(397,548,o),
(432,496,o),
(436,440,c),
(600,440,l),
(591,558,o),
(516,670,o),
(317,670,cs),
(161,670,o),
(50,601,o),
(50,465,cs),
(50,354,o),
(124,296,o),
(257,264,cs)
);
}
);
width = 640;
},
{
anchors = (
{
name = bottom;
pos = (296,0);
},
{
name = top;
pos = (296,680);
}
);
color = 1;
layerId = "C3EEC1F8-B65E-484C-ADEF-3AACC3987924";
shapes = (
{
closed = 1;
nodes = (
(339,290,ls),
(408,273,o),
(456,243,o),
(456,177,cs),
(456,104,o),
(398,61,o),
(301,61,cs),
(183,61,o),
(129,128,o),
(125,210,c),
(46,210,l),
(54,96,o),
(129,-10,o),
(298,-10,cs),
(445,-10,o),
(536,67,o),
(536,182,cs),
(536,294,o),
(452,345,o),
(366,366,cs),
(253,394,ls),
(186,411,o),
(136,437,o),
(136,504,cs),
(136,576,o),
(194,619,o),
(289,619,cs),
(407,619,o),
(459,552,o),
(462,470,c),
(541,470,l),
(534,584,o),
(461,690,o),
(292,690,cs),
(147,690,o),
(56,613,o),
(56,498,cs),
(56,386,o),
(140,339,o),
(226,318,cs)
);
}
);
userData = {
com.hugojourdan.ColorFlow = {
"0" = 0;
"1" = 0;
"10" = 0;
"11" = 0;
"2" = 0;
"3" = 0;
"4" = 0;
"5" = 0;
"6" = 0;
"7" = 0;
"8" = 0;
"9" = 0;
};
};
width = 589;
},
{
anchors = (
{
name = bottom;
pos = (300,0);
},
{
name = top;
pos = (300,680);
}
);
color = 1;
layerId = m004;
shapes = (
{
closed = 1;
nodes = (
(327,256,ls),
(387,245,o),
(409,222,o),
(409,191,cs),
(409,151,o),
(372,127,o),
(309,127,cs),
(217,127,o),
(185,179,o),
(184,235,c),
(20,235,l),
(29,107,o),
(104,-10,o),
(303,-10,cs),
(462,-10,o),
(573,65,o),
(573,205,cs),
(573,319,o),
(501,385,o),
(367,409,cs),
(273,426,ls),
(213,437,o),
(191,457,o),
(191,488,cs),
(191,528,o),
(228,553,o),
(291,553,cs),
(383,553,o),
(414,501,o),
(416,445,c),
(580,445,l),
(571,573,o),
(496,690,o),
(297,690,cs),
(138,690,o),
(27,615,o),
(27,475,cs),
(27,361,o),
(101,297,o),
(234,273,cs)
);
}
);
userData = {
com.hugojourdan.ColorFlow = {
"0" = 0;
"1" = 0;
"10" = 0;
"11" = 0;
"2" = 0;
"3" = 0;
"4" = 0;
"5" = 0;
"6" = 0;
"7" = 0;
"8" = 0;
"9" = 0;
};
};
width = 600;
},
{
anchors = (
{
name = bottom;
pos = (290,0);
},
{
name = top;
pos = (290,680);
}
);
associatedMasterId = "C3EEC1F8-B65E-484C-ADEF-3AACC3987924";
color = 0;
layerId = "8B00E2AA-AF86-4957-8654-7D14760CAB10";
name = "Dec 1, 22, 15:44";
shapes = (
{
closed = 1;
nodes = (
(333,288,ls),
(402,271,o),
(448,236,o),
(448,175,cs),
(448,107,o),
(392,62,o),
(297,62,cs),
(177,62,o),
(123,133,o),
(120,210,c),
(40,210,l),
(48,96,o),
(128,-10,o),
(292,-10,cs),
(434,-10,o),
(530,67,o),
(530,182,cs),
(530,291,o),
(446,342,o),
(351,366,cs),
(247,392,ls),
(180,409,o),
(132,444,o),
(132,506,cs),
(132,573,o),
(188,618,o),
(283,618,cs),
(403,618,o),
(457,547,o),
(460,470,c),
(540,470,l),
(532,584,o),
(452,690,o),
(288,690,cs),
(146,690,o),
(50,613,o),
(50,498,cs),
(50,389,o),
(134,338,o),
(229,314,cs)
);
}
);
userData = {
com.hugojourdan.ColorFlow = {
"0" = 0;
"1" = 0;
"10" = 0;
"11" = 0;
"2" = 0;
"3" = 0;
"4" = 0;
"5" = 0;
"6" = 0;
"7" = 0;
"8" = 0;
"9" = 0;
};
};
visible = 1;
width = 580;
},
{
anchors = (
{
name = bottom;
pos = (305,0);
},
{
name = top;
pos = (305,680);
}
);
associatedMasterId = m004;
color = 0;
layerId = "64EB2395-BDA8-4413-896C-6D5E6C189725";
name = "Dec 1, 22, 17:47";
shapes = (
{
closed = 1;
nodes = (
(332,255,ls),
(389,245,o),
(411,221,o),
(411,192,cs),
(411,152,o),
(369,129,o),
(311,129,cs),
(225,129,o),
(193,179,o),
(189,235,c),
(25,235,l),
(34,107,o),
(109,-10,o),
(308,-10,cs),
(467,-10,o),
(578,65,o),
(578,205,cs),
(578,319,o),
(506,384,o),
(372,408,cs),
(278,425,ls),
(221,435,o),
(199,459,o),
(199,488,cs),
(199,528,o),
(241,551,o),
(299,551,cs),
(385,551,o),
(417,501,o),
(421,445,c),
(585,445,l),
(576,573,o),
(501,690,o),
(302,690,cs),
(143,690,o),
(32,615,o),
(32,475,cs),
(32,361,o),
(106,296,o),
(239,272,cs)
);
}
);
userData = {
com.hugojourdan.ColorFlow = {
"0" = 0;
"1" = 0;
"10" = 0;
"11" = 0;
"2" = 0;
"3" = 0;
"4" = 0;
"5" = 0;
"6" = 0;
"7" = 0;
"8" = 0;
"9" = 0;
};
};
width = 610;
},
{
anchors = (
{
name = bottom;
pos = (315,0);
},
{
name = top;
pos = (315,680);
}
);
associatedMasterId = m01;
color = 0;
layerId = "485D3C38-6A91-42C1-BB0D-090FA26E235D";
name = "Dec 6, 22, 14:30";
shapes = (
{
closed = 1;
nodes = (
(358,287,ls),
(427,268,o),
(468,242,o),
(468,173,cs),
(468,102,o),
(422,62,o),
(318,62,cs),
(187,62,o),
(153,128,o),
(150,200,c),
(70,200,l),
(78,101,o),
(153,-10,o),
(318,-10,cs),
(454,-10,o),
(550,69,o),
(550,181,cs),
(550,283,o),
(471,339,o),
(376,365,cs),
(272,393,ls),
(205,411,o),
(162,438,o),
(162,507,cs),
(162,578,o),
(208,618,o),
(312,618,cs),
(443,618,o),
(477,552,o),
(480,480,c),
(560,480,l),
(552,579,o),
(477,690,o),
(312,690,cs),
(176,690,o),
(80,611,o),
(80,499,cs),
(80,397,o),
(159,341,o),
(254,315,cs)
);
}
);
userData = {
com.hugojourdan.ColorFlow = {
"0" = 0;
"1" = 0;
"10" = 0;
"11" = 0;
"2" = 0;
"3" = 0;
"4" = 0;
"5" = 0;
"6" = 0;
"7" = 0;
"8" = 0;
"9" = 0;
};
};
width = 630;
},
{
anchors = (
{
name = bottom;
pos = (309,0);
},
{
name = top;
pos = (309,680);
}
);
associatedMasterId = m01;
color = 1;
layerId = "4B852F90-9364-47EE-B3FF-3C33095A1133";
name = "Jan 10, 23, 14:56";
shapes = (
{
closed = 1;
nodes = (
(352,287,ls),
(421,268,o),
(463,242,o),
(463,173,cs),
(463,102,o),
(416,61,o),
(312,61,cs),
(181,61,o),
(147,128,o),
(144,200,c),
(64,200,l),
(72,101,o),
(147,-10,o),
(312,-10,cs),
(448,-10,o),
(544,69,o),
(544,181,cs),
(544,283,o),
(465,339,o),
(370,365,cs),
(266,393,ls),
(199,411,o),
(155,438,o),
(155,507,cs),
(155,578,o),
(202,619,o),
(306,619,cs),
(437,619,o),
(471,552,o),
(474,480,c),
(554,480,l),
(546,579,o),
(471,690,o),
(306,690,cs),
(170,690,o),
(74,611,o),
(74,499,cs),
(74,397,o),
(153,341,o),
(248,315,cs)
);
}
);
userData = {
com.hugojourdan.ColorFlow = {
"0" = 0;
"1" = 0;
"10" = 0;
"11" = 0;
"2" = 0;
"3" = 0;
"4" = 0;
"5" = 0;
"6" = 0;
"7" = 0;
"8" = 0;
"9" = 0;
};
};
width = 618;
},
{
anchors = (
{
name = bottom;
pos = (309,0);
},
{
name = top;
pos = (309,680);
}
);
associatedMasterId = m01;
color = 4;
layerId = "96A964C9-0212-470D-A43E-7C238BAFE815";
name = "Jan 10, 23, 15:45";
shapes = (
{
closed = 1;
nodes = (
(352,287,ls),
(421,268,o),
(463,242,o),
(463,175,cs),
(463,102,o),
(411,61,o),
(314,61,cs),
(191,61,o),
(147,128,o),
(144,200,c),
(64,200,l),
(72,91,o),
(147,-10,o),
(308,-10,cs),
(448,-10,o),
(544,64,o),
(544,181,cs),
(544,287,o),
(465,339,o),
(370,365,cs),
(266,393,ls),
(199,411,o),
(155,438,o),
(155,505,cs),
(155,578,o),
(207,619,o),
(304,619,cs),
(427,619,o),
(471,552,o),
(474,480,c),
(554,480,l),
(546,589,o),
(471,690,o),
(310,690,cs),
(170,690,o),
(74,616,o),
(74,499,cs),
(74,393,o),
(153,341,o),
(248,315,cs)
);
}
);
userData = {
com.hugojourdan.ColorFlow = {
"0" = 0;
"1" = 0;
"10" = 0;
"11" = 0;
"2" = 0;
"3" = 0;
"4" = 0;
"5" = 0;
"6" = 0;
"7" = 0;
"8" = 0;
"9" = 0;
};
};
width = 618;
}
);
unicode = 83;
},
{
glyphname = Germandbls;
lastChange = "2022-12-06 06:50:00 +0000";
layers = (
{
color = 0;
layerId = m01;
shapes = (
{
closed = 1;
nodes = (
(354,380,l),
(556,624,l),
(556,680,l),
(510,680,l),
(266,380,l),
(266,336,l),
(357,336,ls),
(449,336,o),
(507,289,o),
(507,205,cs),
(507,117,o),
(446,74,o),
(354,74,cs),
(240,74,l),
(240,0,l),
(352,0,ls),
(491,0,o),
(589,80,o),
(589,205,cs),
(589,324,o),
(500,396,o),
(357,396,c)
);
},
{
closed = 1;
nodes = (
(521,608,l),
(521,680,l),
(124,680,l),
(124,608,l)
);
},
{
closed = 1;
nodes = (
(160,0,l),
(160,680,l),
(80,680,l),
(80,0,l)
);
}
);
userData = {
com.hugojourdan.ColorFlow = {
"0" = 0;
"1" = 0;
"10" = 0;
"11" = 0;
"2" = 0;
"3" = 0;
"4" = 0;
"5" = 0;
"6" = 0;
"7" = 0;
"8" = 0;
"9" = 0;
};
};
width = 649;
},
{
color = 0;
layerId = "E8AFECA5-8081-4A12-B551-7349FD4DE2D2";
shapes = (
{
closed = 1;
nodes = (
(408,330,l),
(630,564,l),
(630,680,l),
(564,680,l),
(310,400,l),
(310,316,l),
(391,316,ls),
(466,316,o),
(501,286,o),
(501,226,cs),
(501,168,o),
(468,140,o),
(392,140,cs),
(289,140,l),
(289,0,l),
(410,0,ls),
(561,0,o),
(663,80,o),
(663,211,cs),
(663,340,o),
(566,406,o),
(461,406,c)
);
},
{
closed = 1;
nodes = (
(555,544,l),
(605,680,l),
(128,680,l),
(128,544,l)
);
},
{
closed = 1;
nodes = (
(216,0,l),
(216,680,l),
(56,680,l),
(56,0,l)
);
}
);
userData = {
com.hugojourdan.ColorFlow = {
"0" = 0;
"1" = 0;
"10" = 0;
"11" = 0;
"2" = 0;
"3" = 0;
"4" = 0;
"5" = 0;
"6" = 0;
"7" = 0;
"8" = 0;
"9" = 0;
};
};
width = 699;
},
{
color = 0;
layerId = "C3EEC1F8-B65E-484C-ADEF-3AACC3987924";
shapes = (
{
closed = 1;
nodes = (
(344,380,l),
(556,624,l),
(556,680,l),
(510,680,l),
(256,380,l),
(256,336,l),
(337,336,ls),
(435,336,o),
(497,290,o),
(497,205,cs),
(497,118,o),
(432,74,o),
(334,74,cs),
(200,74,l),
(200,0,l),
(337,0,ls),
(484,0,o),
(579,80,o),
(579,205,cs),
(579,324,o),
(490,399,o),
(347,399,c)
);
},
{
closed = 1;
nodes = (
(521,608,l),
(521,680,l),
(84,680,l),
(84,608,l)
);
},
{
closed = 1;
nodes = (
(145,0,l),
(145,680,l),
(65,680,l),
(65,0,l)
);
}
);
userData = {
com.hugojourdan.ColorFlow = {
"0" = 0;
"1" = 0;
"10" = 0;
"11" = 0;
"2" = 0;
"3" = 0;
"4" = 0;
"5" = 0;
"6" = 0;
"7" = 0;
"8" = 0;
"9" = 0;
};
};
width = 622;
},
{
color = 0;
layerId = m004;
shapes = (
{
closed = 1;
nodes = (
(388,340,l),
(590,544,l),
(590,680,l),
(544,680,l),
(280,404,l),
(280,312,l),
(331,312,ls),
(415,312,o),
(451,281,o),
(451,227,cs),
(451,173,o),
(415,144,o),
(331,144,cs),
(250,144,l),
(250,0,l),
(340,0,ls),
(511,0,o),
(613,76,o),
(613,213,cs),
(613,346,o),
(516,414,o),
(411,414,c)
);
},
{
closed = 1;
nodes = (
(530,536,l),
(580,680,l),
(158,680,l),
(158,536,l)
);
},
{
closed = 1;
nodes = (
(196,0,l),
(196,680,l),
(36,680,l),
(36,0,l)
);
}
);
userData = {
com.hugojourdan.ColorFlow = {
"0" = 0;
"1" = 0;
"10" = 0;
"11" = 0;
"2" = 0;
"3" = 0;
"4" = 0;
"5" = 0;
"6" = 0;
"7" = 0;
"8" = 0;
"9" = 0;
};
};
width = 630;
}
);
metricLeft = "=H";
metricRight = "=B";
unicode = 7838;
},
{
glyphname = T;
kernLeft = T;
kernRight = T;
lastChange = "2023-01-10 07:46:06 +0000";
layers = (
{
anchors = (
{
name = bottom;
pos = (299,0);
},
{
name = center;
pos = (299,340);
},
{
name = top;
pos = (299,680);
}
);
color = 5;
layerId = m01;
shapes = (
{
closed = 1;
nodes = (
(339,0,l),
(339,660,l),
(258,660,l),
(258,0,l)
);
},
{
closed = 1;
nodes = (
(562,607,l),
(562,680,l),
(36,680,l),
(36,607,l)
);
}
);
userData = {
com.hugojourdan.ColorFlow = {
"0" = 0;
"1" = 0;
"10" = 0;
"11" = 0;
"2" = 0;
"3" = 0;
"4" = 0;
"5" = 0;
"6" = 0;
"7" = 0;
"8" = 0;
"9" = 0;
};
};
width = 598;
},
{
anchors = (
{
name = bottom;
pos = (300,0);
},
{
name = center;
pos = (300,340);
},
{
name = top;
pos = (300,680);
}
);
color = 0;
layerId = "E8AFECA5-8081-4A12-B551-7349FD4DE2D2";
shapes = (
{
closed = 1;
nodes = (
(380,0,l),
(380,620,l),
(220,620,l),
(220,0,l)
);
},
{
closed = 1;
nodes = (
(580,538,l),
(580,680,l),
(20,680,l),
(20,538,l)
);
}
);
userData = {
com.hugojourdan.ColorFlow = {
"0" = 0;
"1" = 0;
"10" = 0;
"11" = 0;
"2" = 0;
"3" = 0;
"4" = 0;
"5" = 0;
"6" = 0;
"7" = 0;
"8" = 0;
"9" = 0;
};
};
width = 600;
},
{
associatedMasterId = "E8AFECA5-8081-4A12-B551-7349FD4DE2D2";
layerId = "BE51101D-5B67-4453-A8AD-AE2CFD587722";
name = "210";
shapes = (
{
closed = 1;
nodes = (
(380,0,l),
(380,660,l),
(220,660,l),
(220,0,l)
);
},
{
closed = 1;
nodes = (
(580,518,l),
(580,660,l),
(20,660,l),
(20,518,l)
);
}
);
width = 600;
},
{
anchors = (
{
name = bottom;
pos = (288,0);
},
{
name = center;
pos = (288,340);
},
{
name = top;
pos = (288,680);
}
);
color = 0;
layerId = "C3EEC1F8-B65E-484C-ADEF-3AACC3987924";
shapes = (
{
closed = 1;
nodes = (
(328,0,l),
(328,660,l),
(248,660,l),
(248,0,l)
);
},
{
closed = 1;
nodes = (
(551,608,l),
(551,680,l),
(25,680,l),
(25,608,l)
);
}
);
userData = {
com.hugojourdan.ColorFlow = {
"0" = 0;
"1" = 0;
"10" = 0;
"11" = 0;
"2" = 0;
"3" = 0;
"4" = 0;
"5" = 0;
"6" = 0;
"7" = 0;
"8" = 0;
"9" = 0;
};
};
width = 576;
},
{
anchors = (
{
name = bottom;
pos = (280,0);
},
{
name = center;
pos = (280,340);
},
{
name = top;
pos = (280,680);
}
);
color = 0;
layerId = m004;
shapes = (
{
closed = 1;
nodes = (
(360,0,l),
(360,620,l),
(200,620,l),
(200,0,l)
);
},
{
closed = 1;
nodes = (
(550,530,l),
(550,680,l),
(10,680,l),
(10,530,l)
);
}
);
userData = {
com.hugojourdan.ColorFlow = {
"0" = 0;
"1" = 0;
"10" = 0;
"11" = 0;
"2" = 0;
"3" = 0;
"4" = 0;
"5" = 0;
"6" = 0;
"7" = 0;
"8" = 0;
"9" = 0;
};
};
width = 560;
},
{
anchors = (
{
name = bottom;
pos = (299,0);
},
{
name = center;
pos = (299,340);
},
{
name = top;
pos = (299,680);
}
);
associatedMasterId = m01;
color = 4;
layerId = "DD7CB438-4DAB-4E1F-8FCC-AAB049BE3F1E";
name = "Jan 10, 23, 15:45";
shapes = (
{
closed = 1;
nodes = (
(339,0,l),
(339,660,l),
(259,660,l),
(259,0,l)
);
},
{
closed = 1;
nodes = (
(562,608,l),
(562,680,l),
(36,680,l),
(36,608,l)
);
}
);
userData = {
com.hugojourdan.ColorFlow = {
"0" = 0;
"1" = 0;
"10" = 0;
"11" = 0;
"2" = 0;
"3" = 0;
"4" = 0;
"5" = 0;
"6" = 0;
"7" = 0;
"8" = 0;
"9" = 0;
};
};
width = 598;
}
);
unicode = 84;
},
{
glyphname = U;
kernLeft = U;
kernRight = U;
lastChange = "2023-01-10 07:46:18 +0000";
layers = (
{
anchors = (
{
name = bottom;
pos = (332,0);
},
{
name = ogonek;
pos = (392,0);
},
{
name = top;
pos = (332,680);
},
{
name = topright;
pos = (644,680);
}
);
color = 5;
layerId = m01;
shapes = (
{
closed = 1;
nodes = (
(481,-10,o),
(587,78,o),
(587,270,cs),
(587,680,l),
(507,680,l),
(507,270,ls),
(507,132,o),
(439,63,o),
(332,63,cs),
(225,63,o),
(159,132,o),
(159,270,cs),
(159,680,l),
(77,680,l),
(77,270,ls),
(77,78,o),
(183,-10,o),
(332,-10,cs)
);
}
);
userData = {
com.hugojourdan.ColorFlow = {
"0" = 0;
"1" = 0;
"10" = 0;
"11" = 0;
"2" = 0;
"3" = 0;
"4" = 0;
"5" = 0;
"6" = 0;
"7" = 0;
"8" = 0;
"9" = 0;
};
};
width = 664;
},
{
associatedMasterId = m01;
layerId = "6C9082DA-AD30-4522-BABC-04AF8EB5A783";
name = "Oct 20, 22, 17:21";
shapes = (
{
closed = 1;
nodes = (
(532,680,l),
(532,270,ls),
(532,132,o),
(459,64,o),
(342,64,cs),
(225,64,o),
(152,132,o),
(152,270,cs),
(152,680,l),
(72,680,l),
(72,270,ls),
(72,78,o),
(184,-10,o),
(342,-10,cs),
(500,-10,o),
(612,78,o),
(612,270,cs),
(612,680,l)
);
}
);
userData = {
com.hugojourdan.ColorFlow = {
"0" = 0;
"1" = 0;
"10" = 0;
"11" = 0;
"2" = 0;
"3" = 0;
"4" = 0;
"5" = 0;
"6" = 0;
"7" = 0;
"8" = 0;
"9" = 0;
};
};
width = 684;
},
{
associatedMasterId = m01;
layerId = "509D575E-588E-46E7-94C6-2AD3740D14AD";
name = "Oct 20, 22, 17:40";
shapes = (
{
closed = 1;
nodes = (
(497,680,l),
(497,270,ls),
(497,132,o),
(431,64,o),
(327,64,cs),
(223,64,o),
(157,132,o),
(157,270,cs),
(157,680,l),
(77,680,l),
(77,270,ls),
(77,78,o),
(181,-10,o),
(327,-10,cs),
(473,-10,o),
(577,78,o),
(577,270,cs),
(577,680,l)
);
}
);
userData = {
com.hugojourdan.ColorFlow = {
"0" = 0;
"1" = 0;
"10" = 0;
"11" = 0;
"2" = 0;
"3" = 0;
"4" = 0;
"5" = 0;
"6" = 0;
"7" = 0;
"8" = 0;
"9" = 0;
};
};
width = 654;
},
{
anchors = (
{
name = bottom;
pos = (331,0);
},
{
name = ogonek;
pos = (386,0);
},
{
name = top;
pos = (331,680);
},
{
name = topright;
pos = (642,680);
}
);
color = 0;
layerId = "E8AFECA5-8081-4A12-B551-7349FD4DE2D2";
shapes = (
{
closed = 1;
nodes = (
(518,-10,o),
(617,94,o),
(617,270,cs),
(617,680,l),
(457,680,l),
(457,274,ls),
(457,171,o),
(413,128,o),
(331,128,cs),
(249,128,o),
(205,171,o),
(205,274,cs),
(205,680,l),
(45,680,l),
(45,270,ls),
(45,94,o),
(144,-10,o),
(331,-10,cs)
);
}
);
userData = {
com.hugojourdan.ColorFlow = {
"0" = 0;
"1" = 0;
"10" = 0;
"11" = 0;
"2" = 0;
"3" = 0;
"4" = 0;
"5" = 0;
"6" = 0;
"7" = 0;
"8" = 0;
"9" = 0;
};
};
width = 662;
},
{
associatedMasterId = "E8AFECA5-8081-4A12-B551-7349FD4DE2D2";
layerId = "8FD62D46-6793-4B51-AB55-4AC95A03E057";
name = "210";
shapes = (
{
closed = 1;
nodes = (
(498,-10,o),
(617,94,o),
(617,270,cs),
(617,660,l),
(451,660,l),
(451,280,ls),
(451,177,o),
(409,134,o),
(331,134,cs),
(253,134,o),
(211,177,o),
(211,280,cs),
(211,660,l),
(45,660,l),
(45,270,ls),
(45,94,o),
(164,-10,o),
(331,-10,cs)
);
}
);
width = 662;
},
{
anchors = (
{
name = bottom;
pos = (325,0);
},
{
name = ogonek;
pos = (385,0);
},
{
name = top;
pos = (325,680);
},
{
name = topright;
pos = (630,680);
}
);
color = 1;
layerId = "C3EEC1F8-B65E-484C-ADEF-3AACC3987924";
shapes = (
{
closed = 1;
nodes = (
(481,-10,o),
(590,83,o),
(590,265,cs),
(590,680,l),
(510,680,l),
(510,270,ls),
(510,136,o),
(447,62,o),
(325,62,cs),
(203,62,o),
(140,136,o),
(140,270,cs),
(140,680,l),
(60,680,l),
(60,265,ls),
(60,83,o),
(169,-10,o),
(325,-10,cs)
);
}
);
userData = {
com.hugojourdan.ColorFlow = {
"0" = 0;
"1" = 0;
"10" = 0;
"11" = 0;
"2" = 0;
"3" = 0;
"4" = 0;
"5" = 0;
"6" = 0;
"7" = 0;
"8" = 0;
"9" = 0;
};
};
width = 650;
},
{
anchors = (
{
name = bottom;
pos = (314,0);
},
{
name = ogonek;
pos = (375,0);
},
{
name = top;
pos = (314,680);
},
{
name = topright;
pos = (608,680);
}
);
color = 1;
layerId = m004;
shapes = (
{
closed = 1;
nodes = (
(503,-10,o),
(603,94,o),
(603,280,cs),
(603,680,l),
(443,680,l),
(443,288,ls),
(443,179,o),
(398,138,o),
(314,138,cs),
(230,138,o),
(185,179,o),
(185,288,cs),
(185,680,l),
(25,680,l),
(25,280,ls),
(25,94,o),
(125,-10,o),
(314,-10,cs)
);
}
);
userData = {
com.hugojourdan.ColorFlow = {
"0" = 0;
"1" = 0;
"10" = 0;
"11" = 0;
"2" = 0;
"3" = 0;
"4" = 0;
"5" = 0;
"6" = 0;
"7" = 0;
"8" = 0;
"9" = 0;
};
};
width = 628;
},
{
associatedMasterId = "E8AFECA5-8081-4A12-B551-7349FD4DE2D2";
layerId = "B9DCD1E4-C442-4AAA-8415-3C4E62DFF5C0";
name = "Nov 9, 22, 10:19";
shapes = (
{
closed = 1;
nodes = (
(518,-10,o),
(617,94,o),
(617,270,cs),
(617,680,l),
(451,680,l),
(451,280,ls),
(451,177,o),
(409,134,o),
(331,134,cs),
(253,134,o),
(211,177,o),
(211,280,cs),
(211,680,l),
(45,680,l),
(45,270,ls),
(45,94,o),
(144,-10,o),
(331,-10,cs)
);
}
);
width = 662;
},
{
anchors = (
{
name = bottom;
pos = (325,0);
},
{
name = ogonek;
pos = (385,0);
},
{
name = top;
pos = (325,680);
},
{
name = topright;
pos = (630,680);
}
);
associatedMasterId = "C3EEC1F8-B65E-484C-ADEF-3AACC3987924";
color = 0;
layerId = "BB3C81BD-DF39-4618-BEA5-E49005BF3157";
name = "Dec 1, 22, 15:50";
shapes = (
{
closed = 1;
nodes = (
(477,-10,o),
(590,78,o),
(590,270,cs),
(590,680,l),
(510,680,l),
(510,270,ls),
(510,132,o),
(435,64,o),
(325,64,cs),
(215,64,o),
(140,132,o),
(140,270,cs),
(140,680,l),
(60,680,l),
(60,270,ls),
(60,78,o),
(173,-10,o),
(325,-10,cs)
);
}
);
userData = {
com.hugojourdan.ColorFlow = {
"0" = 0;
"1" = 0;
"10" = 0;
"11" = 0;
"2" = 0;
"3" = 0;
"4" = 0;
"5" = 0;
"6" = 0;
"7" = 0;
"8" = 0;
"9" = 0;
};
};
visible = 1;
width = 650;
},
{
anchors = (
{
name = bottom;
pos = (332,0);
},
{
name = ogonek;
pos = (392,0);
},
{
name = top;
pos = (332,680);
},
{
name = topright;
pos = (644,680);
}
);
associatedMasterId = m01;
color = 0;
layerId = "5F2F7270-7222-49B2-B271-D83A8816A1CE";
name = "Dec 6, 22, 14:30";
shapes = (
{
closed = 1;
nodes = (
(481,-10,o),
(587,78,o),
(587,270,cs),
(587,680,l),
(507,680,l),
(507,270,ls),
(507,132,o),
(439,64,o),
(332,64,cs),
(225,64,o),
(157,132,o),
(157,270,cs),
(157,680,l),
(77,680,l),
(77,270,ls),
(77,78,o),
(183,-10,o),
(332,-10,cs)
);
}
);
userData = {
com.hugojourdan.ColorFlow = {
"0" = 0;
"1" = 0;
"10" = 0;
"11" = 0;
"2" = 0;
"3" = 0;
"4" = 0;
"5" = 0;
"6" = 0;
"7" = 0;
"8" = 0;
"9" = 0;
};
};
width = 664;
},
{
anchors = (
{
name = bottom;
pos = (332,0);
},
{
name = ogonek;
pos = (392,0);
},
{
name = top;
pos = (332,680);
},
{
name = topright;
pos = (644,680);
}
);
associatedMasterId = m01;
color = 4;
layerId = "508BA079-0C4C-4280-996D-0F1DF68BAAF6";
name = "Jan 10, 23, 15:46";
shapes = (
{
closed = 1;
nodes = (
(481,-10,o),
(587,78,o),
(587,270,cs),
(587,680,l),
(507,680,l),
(507,270,ls),
(507,132,o),
(439,62,o),
(332,62,cs),
(225,62,o),
(157,132,o),
(157,270,cs),
(157,680,l),
(77,680,l),
(77,270,ls),
(77,78,o),
(183,-10,o),
(332,-10,cs)
);
}
);
userData = {
com.hugojourdan.ColorFlow = {
"0" = 0;
"1" = 0;
"10" = 0;
"11" = 0;
"2" = 0;
"3" = 0;
"4" = 0;
"5" = 0;
"6" = 0;
"7" = 0;
"8" = 0;
"9" = 0;
};
};
width = 664;
}
);
unicode = 85;
},
{
glyphname = V;
kernLeft = V;
kernRight = V;
lastChange = "2023-01-10 07:46:37 +0000";
layers = (
{
anchors = (
{
name = bottom;
pos = (331,0);
},
{
name = top;
pos = (331,680);
}
);
color = 5;
hints = (
{
name = _corner.sharp;
options = 2;
origin = (0,3,0,5);
stem = 1000;
type = Corner;
}
);
layerId = m01;
shapes = (
{
closed = 1;
nodes = (
(392,0,l),
(626,680,l),
(542,680,l),
(311,0,l),
(354,0,l),
(121,680,l),
(35,680,l),
(270,0,l)
);
}
);
userData = {
com.hugojourdan.ColorFlow = {
"0" = 0;
"1" = 0;
"10" = 0;
"11" = 0;
"2" = 0;
"3" = 0;
"4" = 0;
"5" = 0;
"6" = 0;
"7" = 0;
"8" = 0;
"9" = 0;
};
};
width = 661;
},
{
anchors = (
{
name = bottom;
pos = (350,0);
},
{
name = top;
pos = (350,680);
}
);
color = 4;
hints = (
{
name = _corner.sharp;
options = 2;
origin = (0,3,0,5);
stem = 1000;
type = Corner;
}
);
layerId = "E8AFECA5-8081-4A12-B551-7349FD4DE2D2";
shapes = (
{
closed = 1;
nodes = (
(475,0,l),
(670,680,l),
(503,680,l),
(318,0,l),
(388,0,l),
(197,680,l),
(30,680,l),
(225,0,l)
);
}
);
userData = {
com.hugojourdan.ColorFlow = {
"0" = 0;
"1" = 0;
"10" = 0;
"11" = 0;
"2" = 0;
"3" = 0;
"4" = 0;
"5" = 0;
"6" = 0;
"7" = 0;
"8" = 0;
"9" = 0;
};
};
width = 700;
},
{
associatedMasterId = "E8AFECA5-8081-4A12-B551-7349FD4DE2D2";
layerId = "345ACD0B-32CF-4954-BAA0-6A866874FABD";
name = "210";
shapes = (
{
closed = 1;
nodes = (
(363,0,l),
(192,660,l),
(25,660,l),
(200,0,l)
);
},
{
closed = 1;
nodes = (
(665,660,l),
(498,660,l),
(333,0,l),
(490,0,l)
);
}
);
width = 690;
},
{
associatedMasterId = m01;
layerId = "145A0185-48E5-4024-A599-F30BB2A53602";
name = "212";
shapes = (
{
closed = 1;
nodes = (
(342,0,l),
(119,680,l),
(35,680,l),
(260,0,l)
);
},
{
closed = 1;
nodes = (
(626,680,l),
(544,680,l),
(321,0,l),
(402,0,l)
);
}
);
userData = {
com.hugojourdan.ColorFlow = {
"0" = 0;
"1" = 0;
"10" = 0;
"11" = 0;
"2" = 0;
"3" = 0;
"4" = 0;
"5" = 0;
"6" = 0;
"7" = 0;
"8" = 0;
"9" = 0;
};
};
width = 661;
},
{
anchors = (
{
name = bottom;
pos = (326,0);
},
{
name = top;
pos = (326,680);
}
);
color = 1;
hints = (
{
name = _corner.sharp;
options = 2;
origin = (0,3,0,5);
stem = 1000;
type = Corner;
}
);
layerId = "C3EEC1F8-B65E-484C-ADEF-3AACC3987924";
shapes = (
{
closed = 1;
nodes = (
(392,0,l),
(631,680,l),
(546,680,l),
(312,0,l),
(342,0,l),
(105,680,l),
(20,680,l),
(260,0,l)
);
}
);
userData = {
com.hugojourdan.ColorFlow = {
"0" = 0;
"1" = 0;
"10" = 0;
"11" = 0;
"2" = 0;
"3" = 0;
"4" = 0;
"5" = 0;
"6" = 0;
"7" = 0;
"8" = 0;
"9" = 0;
};
};
width = 651;
},
{
anchors = (
{
name = bottom;
pos = (336,0);
},
{
name = top;
pos = (336,680);
}
);
color = 1;
hints = (
{
name = _corner.sharp;
options = 2;
origin = (0,3,0,5);
stem = 1000;
type = Corner;
}
);
layerId = m004;
shapes = (
{
closed = 1;
nodes = (
(472,0,l),
(657,680,l),
(491,680,l),
(316,0,l),
(362,0,l),
(181,680,l),
(15,680,l),
(202,0,l)
);
}
);
userData = {
com.hugojourdan.ColorFlow = {
"0" = 0;
"1" = 0;
"10" = 0;
"11" = 0;
"2" = 0;
"3" = 0;
"4" = 0;
"5" = 0;
"6" = 0;
"7" = 0;
"8" = 0;
"9" = 0;
};
};
width = 672;
},
{
anchors = (
{
name = bottom;
pos = (326,0);
},
{
name = top;
pos = (326,680);
}
);
associatedMasterId = "C3EEC1F8-B65E-484C-ADEF-3AACC3987924";
color = 0;
layerId = "318A0917-14E5-4D35-AA8D-4BD820DA2248";
name = "Dec 1, 22, 15:52";
shapes = (
{
closed = 1;
nodes = (
(342,0,l),
(104,680,l),
(20,680,l),
(260,0,l)
);
},
{
closed = 1;
nodes = (
(631,680,l),
(549,680,l),
(311,0,l),
(392,0,l)
);
}
);
userData = {
com.hugojourdan.ColorFlow = {
"0" = 0;
"1" = 0;
"10" = 0;
"11" = 0;
"2" = 0;
"3" = 0;
"4" = 0;
"5" = 0;
"6" = 0;
"7" = 0;
"8" = 0;
"9" = 0;
};
};
width = 651;
},
{
anchors = (
{
name = bottom;
pos = (336,0);
},
{
name = top;
pos = (336,680);
}
);
associatedMasterId = m004;
color = 0;
layerId = "B302E2D3-F258-4509-831C-833A5268397F";
name = "Dec 1, 22, 17:49";
shapes = (
{
closed = 1;
nodes = (
(362,0,l),
(181,680,l),
(15,680,l),
(199,0,l)
);
},
{
closed = 1;
nodes = (
(657,680,l),
(491,680,l),
(316,0,l),
(473,0,l)
);
}
);
userData = {
com.hugojourdan.ColorFlow = {
"0" = 0;
"1" = 0;
"10" = 0;
"11" = 0;
"2" = 0;
"3" = 0;
"4" = 0;
"5" = 0;
"6" = 0;
"7" = 0;
"8" = 0;
"9" = 0;
};
};
width = 672;
},
{
anchors = (
{
name = bottom;
pos = (350,0);
},
{
name = top;
pos = (350,680);
}
);
associatedMasterId = "E8AFECA5-8081-4A12-B551-7349FD4DE2D2";
color = 0;
hints = (
{
name = _corner.sharp;
options = 2;
origin = (0,3,0,5);
stem = 1000;
type = Corner;
}
);
layerId = "68D0EC61-4FBD-4A3A-B7E4-E8F4B8A60634";
name = "Jan 7, 23, 13:08";
shapes = (
{
closed = 1;
nodes = (
(495,0,l),
(670,680,l),
(503,680,l),
(338,0,l),
(368,0,l),
(197,680,l),
(30,680,l),
(205,0,l)
);
}
);
userData = {
com.hugojourdan.ColorFlow = {
"0" = 0;
"1" = 0;
"10" = 0;
"11" = 0;
"2" = 0;
"3" = 0;
"4" = 0;
"5" = 0;
"6" = 0;
"7" = 0;
"8" = 0;
"9" = 0;
};
};
width = 700;
},
{
anchors = (
{
name = bottom;
pos = (331,0);
},
{
name = top;
pos = (331,680);
}
);
associatedMasterId = m01;
color = 3;
hints = (
{
name = _corner.sharp;
options = 2;
origin = (0,3,0,5);
stem = 1000;
type = Corner;
}
);
layerId = "9E0314A3-03B7-40AC-8C06-3D699704DEF6";
name = "Jan 10, 23, 15:46";
shapes = (
{
closed = 1;
nodes = (
(392,0,l),
(626,680,l),
(544,680,l),
(311,0,l),
(352,0,l),
(119,680,l),
(35,680,l),
(270,0,l)
);
}
);
userData = {
com.hugojourdan.ColorFlow = {
"0" = 0;
"1" = 0;
"10" = 0;
"11" = 0;
"2" = 0;
"3" = 0;
"4" = 0;
"5" = 0;
"6" = 0;
"7" = 0;
"8" = 0;
"9" = 0;
};
};
width = 661;
}
);
unicode = 86;
},
{
glyphname = W;
kernLeft = V;
kernRight = V;
lastChange = "2023-01-13 05:06:27 +0000";
layers = (
{
anchors = (
{
name = bottom;
pos = (483,0);
},
{
name = top;
pos = (483,680);
}
);
color = 5;
hints = (
{
name = _corner.sharp;
options = 2;
origin = (0,1,0,3);
stem = 1000;
type = Corner;
},
{
name = _corner.sharp;
options = 2;
origin = (0,13,0,15);
stem = 1000;
type = Corner;
},
{
name = _corner.sharp;
options = 2;
origin = (0,7,0,9);
stem = 1000;
type = Corner;
}
);
layerId = m01;
shapes = (
{
closed = 1;
nodes = (
(423,680,l),
(254,0,l),
(282,0,l),
(119,680,l),
(35,680,l),
(200,0,l),
(330,0,l),
(497,680,l),
(466,680,l),
(634,0,l),
(766,0,l),
(930,680,l),
(850,680,l),
(687,0,l),
(715,0,l),
(546,680,l)
);
}
);
userData = {
com.hugojourdan.ColorFlow = {
"0" = 0;
"1" = 0;
"10" = 0;
"11" = 0;
"2" = 0;
"3" = 0;
"4" = 0;
"5" = 0;
"6" = 0;
"7" = 0;
"8" = 0;
"9" = 0;
};
};
width = 965;
},
{
associatedMasterId = m01;
layerId = "9241D02D-BE64-40B8-BB4A-4C7EBA035949";
name = "Oct 20, 22, 15:07";
shapes = (
{
closed = 1;
nodes = (
(307,0,l),
(114,680,l),
(30,680,l),
(225,0,l)
);
},
{
closed = 1;
nodes = (
(579,680,l),
(499,680,l),
(286,0,l),
(365,0,l)
);
},
{
closed = 1;
nodes = (
(844,0,l),
(631,680,l),
(548,680,l),
(763,0,l)
);
},
{
closed = 1;
nodes = (
(1098,680,l),
(1016,680,l),
(823,0,l),
(904,0,l)
);
}
);
userData = {
com.hugojourdan.ColorFlow = {
"0" = 0;
"1" = 0;
"10" = 0;
"11" = 0;
"2" = 0;
"3" = 0;
"4" = 0;
"5" = 0;
"6" = 0;
"7" = 0;
"8" = 0;
"9" = 0;
};
};
width = 1131;
},
{
anchors = (
{
name = bottom;
pos = (548,0);
},
{
name = top;
pos = (548,680);
}
);
color = 4;
hints = (
{
name = _corner.sharp;
options = 2;
origin = (0,1,0,3);
stem = 1000;
type = Corner;
},
{
name = _corner.sharp;
options = 2;
origin = (0,7,0,9);
stem = 1000;
type = Corner;
},
{
name = _corner.sharp;
options = 2;
origin = (0,13,0,15);
stem = 1000;
type = Corner;
}
);
layerId = "E8AFECA5-8081-4A12-B551-7349FD4DE2D2";
shapes = (
{
closed = 1;
nodes = (
(426,680,l),
(296,0,l),
(346,0,l),
(195,680,l),
(30,680,l),
(185,0,l),
(441,0,l),
(576,680,l),
(516,680,l),
(651,0,l),
(910,0,l),
(1065,680,l),
(903,680,l),
(758,0,l),
(808,0,l),
(674,680,l)
);
}
);
userData = {
com.hugojourdan.ColorFlow = {
"0" = 0;
"1" = 0;
"10" = 0;
"11" = 0;
"2" = 0;
"3" = 0;
"4" = 0;
"5" = 0;
"6" = 0;
"7" = 0;
"8" = 0;
"9" = 0;
};
};
width = 1095;
},
{
associatedMasterId = "E8AFECA5-8081-4A12-B551-7349FD4DE2D2";
layerId = "1EE9C420-C242-4B3F-83F9-B7EF4E10E569";
name = "210";
shapes = (
{
closed = 1;
nodes = (
(321,0,l),
(190,660,l),
(25,660,l),
(160,0,l)
);
},
{
closed = 1;
nodes = (
(571,660,l),
(418,660,l),
(291,0,l),
(436,0,l)
);
},
{
closed = 1;
nodes = (
(820,0,l),
(689,660,l),
(531,660,l),
(666,0,l)
);
},
{
closed = 1;
nodes = (
(1080,660,l),
(915,660,l),
(790,0,l),
(945,0,l)
);
}
);
width = 1105;
},
{
associatedMasterId = m01;
layerId = "4B02C2D4-92FB-4AA7-B279-28FFC3484E59";
name = "212";
shapes = (
{
closed = 1;
nodes = (
(280,0,l),
(117,680,l),
(35,680,l),
(200,0,l)
);
},
{
closed = 1;
nodes = (
(522,680,l),
(446,680,l),
(259,0,l),
(335,0,l)
);
},
{
closed = 1;
nodes = (
(757,0,l),
(570,680,l),
(491,680,l),
(679,0,l)
);
},
{
closed = 1;
nodes = (
(980,680,l),
(899,680,l),
(736,0,l),
(816,0,l)
);
}
);
userData = {
com.hugojourdan.ColorFlow = {
"0" = 0;
"1" = 0;
"10" = 0;
"11" = 0;
"2" = 0;
"3" = 0;
"4" = 0;
"5" = 0;
"6" = 0;
"7" = 0;
"8" = 0;
"9" = 0;
};
};
width = 1015;
},
{
anchors = (
{
name = bottom;
pos = (483,0);
},
{
name = top;
pos = (483,680);
}
);
color = 1;
hints = (
{
name = _corner.sharp;
options = 2;
origin = (0,1,0,3);
stem = 1000;
type = Corner;
},
{
name = _corner.sharp;
options = 2;
origin = (0,7,0,9);
stem = 1000;
type = Corner;
},
{
name = _corner.sharp;
options = 2;
origin = (0,13,0,15);
stem = 1000;
type = Corner;
}
);
layerId = "C3EEC1F8-B65E-484C-ADEF-3AACC3987924";
shapes = (
{
closed = 1;
nodes = (
(422,680,l),
(260,0,l),
(285,0,l),
(102,680,l),
(20,680,l),
(205,0,l),
(335,0,l),
(496,680,l),
(466,680,l),
(630,0,l),
(760,0,l),
(945,680,l),
(865,680,l),
(684,0,l),
(710,0,l),
(546,680,l)
);
}
);
userData = {
com.hugojourdan.ColorFlow = {
"0" = 0;
"1" = 0;
"10" = 0;
"11" = 0;
"2" = 0;
"3" = 0;
"4" = 0;
"5" = 0;
"6" = 0;
"7" = 0;
"8" = 0;
"9" = 0;
};
};
width = 965;
},
{
anchors = (
{
name = bottom;
pos = (523,0);
},
{
name = top;
pos = (523,680);
}
);
color = 1;
hints = (
{
name = _corner.sharp;
options = 2;
origin = (0,1,0,3);
stem = 1000;
type = Corner;
},
{
name = _corner.sharp;
options = 2;
origin = (0,7,0,9);
stem = 1000;
type = Corner;
},
{
name = _corner.sharp;
options = 2;
origin = (0,13,0,15);
stem = 1000;
type = Corner;
}
);
layerId = m004;
shapes = (
{
closed = 1;
nodes = (
(400,680,l),
(281,0,l),
(330,0,l),
(176,680,l),
(15,680,l),
(173,0,l),
(430,0,l),
(543,680,l),
(488,680,l),
(601,0,l),
(863,0,l),
(1020,680,l),
(863,680,l),
(715,0,l),
(761,0,l),
(639,680,l)
);
}
);
userData = {
com.hugojourdan.ColorFlow = {
"0" = 0;
"1" = 0;
"10" = 0;
"11" = 0;
"2" = 0;
"3" = 0;
"4" = 0;
"5" = 0;
"6" = 0;
"7" = 0;
"8" = 0;
"9" = 0;
};
};
width = 1035;
},
{
associatedMasterId = m01;
layerId = "1765ECF3-66F7-4909-A571-83ADC90696F8";
name = "Nov 7, 22, 18:40";
shapes = (
{
closed = 1;
nodes = (
(280,0,l),
(117,680,l),
(35,680,l),
(200,0,l)
);
},
{
closed = 1;
nodes = (
(517,680,l),
(441,680,l),
(254,0,l),
(330,0,l)
);
},
{
closed = 1;
nodes = (
(752,0,l),
(565,680,l),
(486,680,l),
(674,0,l)
);
},
{
closed = 1;
nodes = (
(970,680,l),
(889,680,l),
(726,0,l),
(806,0,l)
);
}
);
userData = {
com.hugojourdan.ColorFlow = {
"0" = 0;
"1" = 0;
"10" = 0;
"11" = 0;
"2" = 0;
"3" = 0;
"4" = 0;
"5" = 0;
"6" = 0;
"7" = 0;
"8" = 0;
"9" = 0;
};
};
width = 1005;
},
{
anchors = (
{
name = bottom;
pos = (493,0);
},
{
name = top;
pos = (493,680);
}
);
associatedMasterId = "C3EEC1F8-B65E-484C-ADEF-3AACC3987924";
color = 0;
layerId = "3BC4DF20-BB18-48E4-85F6-65A4C79C9C81";
name = "Dec 1, 22, 15:54";
shapes = (
{
closed = 1;
nodes = (
(265,0,l),
(102,680,l),
(20,680,l),
(185,0,l)
);
},
{
closed = 1;
nodes = (
(507,680,l),
(431,680,l),
(239,0,l),
(315,0,l)
);
},
{
closed = 1;
nodes = (
(747,0,l),
(555,680,l),
(476,680,l),
(669,0,l)
);
},
{
closed = 1;
nodes = (
(965,680,l),
(884,680,l),
(721,0,l),
(801,0,l)
);
}
);
userData = {
com.hugojourdan.ColorFlow = {
"0" = 0;
"1" = 0;
"10" = 0;
"11" = 0;
"2" = 0;
"3" = 0;
"4" = 0;
"5" = 0;
"6" = 0;
"7" = 0;
"8" = 0;
"9" = 0;
};
};
width = 985;
},
{
anchors = (
{
name = bottom;
pos = (537,0);
},
{
name = top;
pos = (537,680);
}
);
associatedMasterId = m004;
color = 0;
layerId = "4FA46A1C-EF28-42FE-B4DB-14E772F4133C";
name = "Dec 1, 22, 17:49";
shapes = (
{
closed = 1;
nodes = (
(319,0,l),
(180,680,l),
(15,680,l),
(158,0,l)
);
},
{
closed = 1;
nodes = (
(564,680,l),
(405,680,l),
(270,0,l),
(421,0,l)
);
},
{
closed = 1;
nodes = (
(806,0,l),
(667,680,l),
(509,680,l),
(652,0,l)
);
},
{
closed = 1;
nodes = (
(1058,680,l),
(893,680,l),
(760,0,l),
(915,0,l)
);
}
);
userData = {
com.hugojourdan.ColorFlow = {
"0" = 0;
"1" = 0;
"10" = 0;
"11" = 0;
"2" = 0;
"3" = 0;
"4" = 0;
"5" = 0;
"6" = 0;
"7" = 0;
"8" = 0;
"9" = 0;
};
};
width = 1073;
},
{
anchors = (
{
name = bottom;
pos = (493,0);
},
{
name = top;
pos = (493,680);
}
);
associatedMasterId = m01;
color = 0;
layerId = "33BA4255-A2E3-40A4-B6DA-D5A1726CA1B2";
name = "Jan 7, 23, 13:10";
shapes = (
{
closed = 1;
nodes = (
(431,680,l),
(244,0,l),
(270,0,l),
(117,680,l),
(35,680,l),
(190,0,l),
(320,0,l),
(507,680,l),
(476,680,l),
(664,0,l),
(796,0,l),
(950,680,l),
(869,680,l),
(716,0,l),
(742,0,l),
(555,680,l)
);
}
);
userData = {
com.hugojourdan.ColorFlow = {
"0" = 0;
"1" = 0;
"10" = 0;
"11" = 0;
"2" = 0;
"3" = 0;
"4" = 0;
"5" = 0;
"6" = 0;
"7" = 0;
"8" = 0;
"9" = 0;
};
};
width = 985;
},
{
anchors = (
{
name = bottom;
pos = (558,0);
},
{
name = top;
pos = (558,680);
}
);
associatedMasterId = "E8AFECA5-8081-4A12-B551-7349FD4DE2D2";
color = 0;
layerId = "8E10B8B6-9F53-41B9-A260-6930A032BDEF";
name = "Jan 7, 23, 13:10";
shapes = (
{
closed = 1;
nodes = (
(423,680,l),
(296,0,l),
(326,0,l),
(195,680,l),
(30,680,l),
(165,0,l),
(441,0,l),
(576,680,l),
(536,680,l),
(671,0,l),
(950,0,l),
(1085,680,l),
(920,680,l),
(795,0,l),
(825,0,l),
(694,680,l)
);
}
);
userData = {
com.hugojourdan.ColorFlow = {
"0" = 0;
"1" = 0;
"10" = 0;
"11" = 0;
"2" = 0;
"3" = 0;
"4" = 0;
"5" = 0;
"6" = 0;
"7" = 0;
"8" = 0;
"9" = 0;
};
};
width = 1115;
},
{
anchors = (
{
name = bottom;
pos = (493,0);
},
{
name = top;
pos = (493,680);
}
);
associatedMasterId = m01;
color = 3;
hints = (
{
name = _corner.sharp;
options = 2;
origin = (0,1,0,3);
stem = 1000;
type = Corner;
},
{
name = _corner.sharp;
options = 2;
origin = (0,13,0,15);
stem = 1000;
type = Corner;
},
{
name = _corner.sharp;
options = 2;
origin = (0,7,0,9);
stem = 1000;
type = Corner;
}
);
layerId = "B2957E7A-EBCD-4AE3-AB3D-12E2CDF3548B";
name = "Jan 10, 23, 15:46";
shapes = (
{
closed = 1;
nodes = (
(431,680,l),
(244,0,l),
(270,0,l),
(117,680,l),
(35,680,l),
(190,0,l),
(320,0,l),
(507,680,l),
(476,680,l),
(664,0,l),
(796,0,l),
(950,680,l),
(869,680,l),
(716,0,l),
(742,0,l),
(555,680,l)
);
}
);
userData = {
com.hugojourdan.ColorFlow = {
"0" = 0;
"1" = 0;
"10" = 0;
"11" = 0;
"2" = 0;
"3" = 0;
"4" = 0;
"5" = 0;
"6" = 0;
"7" = 0;
"8" = 0;
"9" = 0;
};
};
width = 985;
},
{
anchors = (
{
name = bottom;
pos = (493,0);
},
{
name = top;
pos = (493,680);
}
);
associatedMasterId = m01;
color = 5;
hints = (
{
name = _corner.sharp;
options = 2;
origin = (0,1,0,3);
stem = 1000;
type = Corner;
},
{
name = _corner.sharp;
options = 2;
origin = (0,13,0,15);
stem = 1000;
type = Corner;
},
{
name = _corner.sharp;
options = 2;
origin = (0,7,0,9);
stem = 1000;
type = Corner;
}
);
layerId = "7741A45C-2DFB-41EC-B119-3E53DDD5E35F";
name = "Jan 13, 23, 13:04";
shapes = (
{
closed = 1;
nodes = (
(431,680,l),
(254,0,l),
(282,0,l),
(119,680,l),
(35,680,l),
(200,0,l),
(330,0,l),
(507,680,l),
(476,680,l),
(654,0,l),
(786,0,l),
(950,680,l),
(869,680,l),
(706,0,l),
(734,0,l),
(557,680,l)
);
}
);
userData = {
com.hugojourdan.ColorFlow = {
"0" = 0;
"1" = 0;
"10" = 0;
"11" = 0;
"2" = 0;
"3" = 0;
"4" = 0;
"5" = 0;
"6" = 0;
"7" = 0;
"8" = 0;
"9" = 0;
};
};
width = 985;
},
{
anchors = (
{
name = bottom;
pos = (558,0);
},
{
name = top;
pos = (558,680);
}
);
associatedMasterId = "E8AFECA5-8081-4A12-B551-7349FD4DE2D2";
color = 4;
hints = (
{
name = _corner.sharp;
options = 2;
origin = (0,1,0,3);
stem = 1000;
type = Corner;
},
{
name = _corner.sharp;
options = 2;
origin = (0,7,0,9);
stem = 1000;
type = Corner;
},
{
name = _corner.sharp;
options = 2;
origin = (0,13,0,15);
stem = 1000;
type = Corner;
}
);
layerId = "69A7B1FA-A690-4EF0-8ADF-D401C260A892";
name = "Jan 13, 23, 13:04";
shapes = (
{
closed = 1;
nodes = (
(433,680,l),
(296,0,l),
(346,0,l),
(195,680,l),
(30,680,l),
(185,0,l),
(441,0,l),
(586,680,l),
(526,680,l),
(671,0,l),
(930,0,l),
(1085,680,l),
(920,680,l),
(775,0,l),
(825,0,l),
(684,680,l)
);
}
);
userData = {
com.hugojourdan.ColorFlow = {
"0" = 0;
"1" = 0;
"10" = 0;
"11" = 0;
"2" = 0;
"3" = 0;
"4" = 0;
"5" = 0;
"6" = 0;
"7" = 0;
"8" = 0;
"9" = 0;
};
};
width = 1115;
},
{
anchors = (
{
name = bottom;
pos = (493,0);
},
{
name = top;
pos = (493,680);
}
);
associatedMasterId = "C3EEC1F8-B65E-484C-ADEF-3AACC3987924";
color = 1;
hints = (
{
name = _corner.sharp;
options = 2;
origin = (0,1,0,3);
stem = 1000;
type = Corner;
},
{
name = _corner.sharp;
options = 2;
origin = (0,7,0,9);
stem = 1000;
type = Corner;
},
{
name = _corner.sharp;
options = 2;
origin = (0,13,0,15);
stem = 1000;
type = Corner;
}
);
layerId = "DF4B2345-0B6A-4F84-A05C-78069E542B15";
name = "Jan 13, 23, 13:04";
shapes = (
{
closed = 1;
nodes = (
(431,680,l),
(260,0,l),
(285,0,l),
(102,680,l),
(20,680,l),
(205,0,l),
(335,0,l),
(506,680,l),
(476,680,l),
(650,0,l),
(780,0,l),
(965,680,l),
(883,680,l),
(702,0,l),
(728,0,l),
(555,680,l)
);
}
);
userData = {
com.hugojourdan.ColorFlow = {
"0" = 0;
"1" = 0;
"10" = 0;
"11" = 0;
"2" = 0;
"3" = 0;
"4" = 0;
"5" = 0;
"6" = 0;
"7" = 0;
"8" = 0;
"9" = 0;
};
};
width = 985;
},
{
anchors = (
{
name = bottom;
pos = (533,0);
},
{
name = top;
pos = (533,680);
}
);
associatedMasterId = m004;
color = 1;
hints = (
{
name = _corner.sharp;
options = 2;
origin = (0,1,0,3);
stem = 1000;
type = Corner;
},
{
name = _corner.sharp;
options = 2;
origin = (0,7,0,9);
stem = 1000;
type = Corner;
},
{
name = _corner.sharp;
options = 2;
origin = (0,13,0,15);
stem = 1000;
type = Corner;
}
);
layerId = "0E3FC0AC-DA4D-41EF-A9D6-D0ED1A26D1C8";
name = "Jan 13, 23, 13:04";
shapes = (
{
closed = 1;
nodes = (
(407,680,l),
(281,0,l),
(330,0,l),
(176,680,l),
(15,680,l),
(173,0,l),
(430,0,l),
(553,680,l),
(498,680,l),
(621,0,l),
(883,0,l),
(1040,680,l),
(879,680,l),
(731,0,l),
(777,0,l),
(647,680,l)
);
}
);
userData = {
com.hugojourdan.ColorFlow = {
"0" = 0;
"1" = 0;
"10" = 0;
"11" = 0;
"2" = 0;
"3" = 0;
"4" = 0;
"5" = 0;
"6" = 0;
"7" = 0;
"8" = 0;
"9" = 0;
};
};
width = 1055;
}
);
metricLeft = "=V";
metricRight = "=V";
unicode = 87;
},
{
glyphname = X;
kernLeft = X;
kernRight = X;
lastChange = "2023-01-10 08:22:29 +0000";
layers = (
{
anchors = (
{
name = bottom;
pos = (306,0);
},
{
name = top;
pos = (306,680);
}
);
color = 5;
hints = (
{
name = _corner.sharp;
options = 2;
origin = (0,9,0,11);
stem = 1000;
type = Corner;
},
{
name = _corner.sharp;
options = 2;
origin = (0,2,0,4);
stem = 1000;
type = Corner;
}
);
layerId = m01;
shapes = (
{
closed = 1;
nodes = (
(36,0,l),
(125,0,l),
(331,339,l),
(282,339,l),
(486,0,l),
(577,0,l),
(362,340,l),
(576,680,l),
(487,680,l),
(282,341,l),
(331,341,l),
(126,680,l),
(35,680,l),
(250,340,l)
);
}
);
userData = {
com.hugojourdan.ColorFlow = {
"0" = 0;
"1" = 0;
"10" = 0;
"11" = 0;
"2" = 0;
"3" = 0;
"4" = 0;
"5" = 0;
"6" = 0;
"7" = 0;
"8" = 0;
"9" = 0;
};
};
width = 612;
},
{
anchors = (
{
name = bottom;
pos = (350,0);
},
{
name = top;
pos = (350,680);
}
);
color = 0;
hints = (
{
name = _corner.sharp;
options = 2;
origin = (0,9,0,11);
stem = 1000;
type = Corner;
},
{
name = _corner.sharp;
options = 2;
origin = (0,2,0,4);
stem = 1000;
type = Corner;
}
);
layerId = "E8AFECA5-8081-4A12-B551-7349FD4DE2D2";
shapes = (
{
closed = 1;
nodes = (
(30,0,l),
(211,0,l),
(392,339,l),
(297,339,l),
(488,0,l),
(670,0,l),
(475,340,l),
(670,680,l),
(489,680,l),
(308,341,l),
(403,341,l),
(212,680,l),
(30,680,l),
(225,340,l)
);
}
);
userData = {
com.hugojourdan.ColorFlow = {
"0" = 0;
"1" = 0;
"10" = 0;
"11" = 0;
"2" = 0;
"3" = 0;
"4" = 0;
"5" = 0;
"6" = 0;
"7" = 0;
"8" = 0;
"9" = 0;
};
};
width = 700;
},
{
associatedMasterId = "E8AFECA5-8081-4A12-B551-7349FD4DE2D2";
layerId = "2853C7A9-DDAD-4FE4-AF9F-0851E1DB891C";
name = "210";
shapes = (
{
closed = 1;
nodes = (
(398,330,l),
(205,660,l),
(25,660,l),
(220,330,l)
);
},
{
closed = 1;
nodes = (
(665,660,l),
(485,660,l),
(303,330,l),
(470,330,l)
);
},
{
closed = 1;
nodes = (
(292,330,l),
(485,0,l),
(665,0,l),
(470,330,l)
);
},
{
closed = 1;
nodes = (
(25,0,l),
(205,0,l),
(387,330,l),
(220,330,l)
);
}
);
width = 690;
},
{
anchors = (
{
name = bottom;
pos = (296,0);
},
{
name = top;
pos = (296,680);
}
);
color = 1;
hints = (
{
name = _corner.sharp;
options = 2;
origin = (0,9,0,11);
stem = 1000;
type = Corner;
},
{
name = _corner.sharp;
options = 2;
origin = (0,2,0,4);
stem = 1000;
type = Corner;
}
);
layerId = "C3EEC1F8-B65E-484C-ADEF-3AACC3987924";
shapes = (
{
closed = 1;
nodes = (
(21,0,l),
(110,0,l),
(326,339,l),
(265,339,l),
(481,0,l),
(572,0,l),
(352,340,l),
(571,680,l),
(482,680,l),
(266,341,l),
(327,341,l),
(111,680,l),
(20,680,l),
(240,340,l)
);
}
);
userData = {
com.hugojourdan.ColorFlow = {
"0" = 0;
"1" = 0;
"10" = 0;
"11" = 0;
"2" = 0;
"3" = 0;
"4" = 0;
"5" = 0;
"6" = 0;
"7" = 0;
"8" = 0;
"9" = 0;
};
};
width = 592;
},
{
anchors = (
{
name = bottom;
pos = (342,0);
},
{
name = top;
pos = (342,680);
}
);
color = 1;
hints = (
{
name = _corner.sharp;
options = 2;
origin = (0,9,0,11);
stem = 1000;
type = Corner;
},
{
name = _corner.sharp;
options = 2;
origin = (0,2,0,4);
stem = 1000;
type = Corner;
}
);
layerId = m004;
shapes = (
{
closed = 1;
nodes = (
(15,0,l),
(202,0,l),
(388,339,l),
(286,339,l),
(483,0,l),
(669,0,l),
(464,340,l),
(669,680,l),
(482,680,l),
(296,341,l),
(398,341,l),
(201,680,l),
(15,680,l),
(220,340,l)
);
}
);
userData = {
com.hugojourdan.ColorFlow = {
"0" = 0;
"1" = 0;
"10" = 0;
"11" = 0;
"2" = 0;
"3" = 0;
"4" = 0;
"5" = 0;
"6" = 0;
"7" = 0;
"8" = 0;
"9" = 0;
};
};
width = 684;
},
{
anchors = (
{
name = bottom;
pos = (342,0);
},
{
name = top;
pos = (342,680);
}
);
associatedMasterId = m004;
color = 0;
layerId = "9C1A364B-70B7-43B0-94DB-1F6783855484";
name = "Dec 1, 22, 17:54";
shapes = (
{
closed = 1;
nodes = (
(400,340,l),
(202,680,l),
(15,680,l),
(217,340,l)
);
},
{
closed = 1;
nodes = (
(669,680,l),
(482,680,l),
(295,340,l),
(467,340,l)
);
},
{
closed = 1;
nodes = (
(284,340,l),
(482,0,l),
(669,0,l),
(467,340,l)
);
},
{
closed = 1;
nodes = (
(15,0,l),
(202,0,l),
(389,340,l),
(217,340,l)
);
}
);
userData = {
com.hugojourdan.ColorFlow = {
"0" = 0;
"1" = 0;
"10" = 0;
"11" = 0;
"2" = 0;
"3" = 0;
"4" = 0;
"5" = 0;
"6" = 0;
"7" = 0;
"8" = 0;
"9" = 0;
};
};
width = 684;
}
);
metricLeft = "=V";
metricRight = "=V";
unicode = 88;
},
{
glyphname = Y;
kernLeft = Y;
kernRight = Y;
lastChange = "2023-01-10 07:48:08 +0000";
layers = (
{
anchors = (
{
name = bottom;
pos = (306,0);
},
{
name = top;
pos = (306,680);
},
{
name = topleft;
pos = (25,680);
}
);
color = 5;
hints = (
{
name = _corner.sharp;
options = 2;
origin = (0,3,0,5);
stem = 1000;
type = Corner;
}
);
layerId = m01;
shapes = (
{
closed = 1;
nodes = (
(374,270,l),
(576,680,l),
(490,680,l),
(293,270,l),
(320,270,l),
(123,680,l),
(35,680,l),
(238,270,l)
);
},
{
closed = 1;
nodes = (
(346,0,l),
(346,275,l),
(266,275,l),
(266,0,l)
);
}
);
userData = {
com.hugojourdan.ColorFlow = {
"0" = 0;
"1" = 0;
"10" = 0;
"11" = 0;
"2" = 0;
"3" = 0;
"4" = 0;
"5" = 0;
"6" = 0;
"7" = 0;
"8" = 0;
"9" = 0;
};
};
width = 611;
},
{
anchors = (
{
name = bottom;
pos = (336,0);
},
{
name = top;
pos = (336,680);
},
{
name = topleft;
pos = (20,680);
}
);
color = 0;
hints = (
{
name = _corner.sharp;
options = 2;
origin = (0,3,0,5);
stem = 1000;
type = Corner;
}
);
layerId = "E8AFECA5-8081-4A12-B551-7349FD4DE2D2";
shapes = (
{
closed = 1;
nodes = (
(467,260,l),
(641,680,l),
(477,680,l),
(316,260,l),
(357,260,l),
(196,680,l),
(30,680,l),
(205,260,l)
);
},
{
closed = 1;
nodes = (
(416,0,l),
(416,265,l),
(256,265,l),
(256,0,l)
);
}
);
userData = {
com.hugojourdan.ColorFlow = {
"0" = 0;
"1" = 0;
"10" = 0;
"11" = 0;
"2" = 0;
"3" = 0;
"4" = 0;
"5" = 0;
"6" = 0;
"7" = 0;
"8" = 0;
"9" = 0;
};
};
width = 671;
},
{
associatedMasterId = "E8AFECA5-8081-4A12-B551-7349FD4DE2D2";
layerId = "009103DA-3A1C-48EC-8296-1B55DBC92990";
name = "210";
shapes = (
{
closed = 1;
nodes = (
(352,250,l),
(191,660,l),
(25,660,l),
(200,250,l)
);
},
{
closed = 1;
nodes = (
(636,660,l),
(472,660,l),
(311,250,l),
(462,250,l)
);
},
{
closed = 1;
nodes = (
(411,0,l),
(411,255,l),
(251,255,l),
(251,0,l)
);
}
);
width = 661;
},
{
associatedMasterId = m01;
layerId = "70EF4802-14A9-48A7-BA2F-BC33893F2314";
name = "212";
shapes = (
{
closed = 1;
nodes = (
(312,270,l),
(121,680,l),
(35,680,l),
(230,270,l)
);
},
{
closed = 1;
nodes = (
(566,680,l),
(482,680,l),
(291,270,l),
(372,270,l)
);
},
{
closed = 1;
nodes = (
(341,0,l),
(341,275,l),
(261,275,l),
(261,0,l)
);
}
);
userData = {
com.hugojourdan.ColorFlow = {
"0" = 0;
"1" = 0;
"10" = 0;
"11" = 0;
"2" = 0;
"3" = 0;
"4" = 0;
"5" = 0;
"6" = 0;
"7" = 0;
"8" = 0;
"9" = 0;
};
};
width = 601;
},
{
anchors = (
{
name = bottom;
pos = (286,0);
},
{
name = top;
pos = (286,680);
},
{
name = topleft;
pos = (20,680);
}
);
color = 1;
hints = (
{
name = _corner.sharp;
options = 2;
origin = (0,3,0,5);
stem = 1000;
type = Corner;
}
);
layerId = "C3EEC1F8-B65E-484C-ADEF-3AACC3987924";
shapes = (
{
closed = 1;
nodes = (
(354,300,l),
(551,680,l),
(465,680,l),
(273,300,l),
(300,300,l),
(108,680,l),
(20,680,l),
(218,300,l)
);
},
{
closed = 1;
nodes = (
(326,0,l),
(326,305,l),
(246,305,l),
(246,0,l)
);
}
);
userData = {
com.hugojourdan.ColorFlow = {
"0" = 0;
"1" = 0;
"10" = 0;
"11" = 0;
"2" = 0;
"3" = 0;
"4" = 0;
"5" = 0;
"6" = 0;
"7" = 0;
"8" = 0;
"9" = 0;
};
};
width = 571;
},
{
anchors = (
{
name = bottom;
pos = (321,0);
},
{
name = top;
pos = (321,680);
},
{
name = topleft;
pos = (20,680);
}
);
color = 1;
hints = (
{
name = _corner.sharp;
options = 2;
origin = (0,3,0,5);
stem = 1000;
type = Corner;
}
);
layerId = m004;
metricLeft = "=V-10";
metricRight = "=V-10";
shapes = (
{
closed = 1;
nodes = (
(452,280,l),
(636,680,l),
(459,680,l),
(291,280,l),
(354,280,l),
(182,680,l),
(5,680,l),
(190,280,l)
);
},
{
closed = 1;
nodes = (
(401,0,l),
(401,285,l),
(241,285,l),
(241,0,l)
);
}
);
userData = {
com.hugojourdan.ColorFlow = {
"0" = 0;
"1" = 0;
"10" = 0;
"11" = 0;
"2" = 0;
"3" = 0;
"4" = 0;
"5" = 0;
"6" = 0;
"7" = 0;
"8" = 0;
"9" = 0;
};
};
width = 641;
},
{
anchors = (
{
name = bottom;
pos = (286,0);
},
{
name = top;
pos = (286,680);
},
{
name = topleft;
pos = (20,680);
}
);
associatedMasterId = "C3EEC1F8-B65E-484C-ADEF-3AACC3987924";
color = 0;
layerId = "2F960FE6-17BD-4FF5-BCE3-DBE2D2A70093";
name = "Dec 1, 22, 16:03";
shapes = (
{
closed = 1;
nodes = (
(300,300,l),
(106,680,l),
(20,680,l),
(218,300,l)
);
},
{
closed = 1;
nodes = (
(551,680,l),
(467,680,l),
(273,300,l),
(354,300,l)
);
},
{
closed = 1;
nodes = (
(326,0,l),
(326,305,l),
(246,305,l),
(246,0,l)
);
}
);
userData = {
com.hugojourdan.ColorFlow = {
"0" = 0;
"1" = 0;
"10" = 0;
"11" = 0;
"2" = 0;
"3" = 0;
"4" = 0;
"5" = 0;
"6" = 0;
"7" = 0;
"8" = 0;
"9" = 0;
};
};
width = 571;
},
{
anchors = (
{
name = bottom;
pos = (321,0);
},
{
name = top;
pos = (321,680);
},
{
name = topleft;
pos = (20,680);
}
);
associatedMasterId = m004;
color = 0;
layerId = "31553073-5881-4535-8DEE-BD160230150D";
metricLeft = "=V-10";
metricRight = "=V-10";
name = "Dec 1, 22, 17:53";
shapes = (
{
closed = 1;
nodes = (
(352,280,l),
(181,680,l),
(5,680,l),
(190,280,l)
);
},
{
closed = 1;
nodes = (
(636,680,l),
(462,680,l),
(291,280,l),
(452,280,l)
);
},
{
closed = 1;
nodes = (
(401,0,l),
(401,285,l),
(241,285,l),
(241,0,l)
);
}
);
userData = {
com.hugojourdan.ColorFlow = {
"0" = 0;
"1" = 0;
"10" = 0;
"11" = 0;
"2" = 0;
"3" = 0;
"4" = 0;
"5" = 0;
"6" = 0;
"7" = 0;
"8" = 0;
"9" = 0;
};
};
width = 641;
}
);
metricLeft = "=V";
metricRight = "=V";
unicode = 89;
},
